# MagicaVoxel @ Ephtracy

# group
g bumped_Hall_V2

# material
mtllib bumped_Hall_V2.mtl
usemtl palette

# normals
vn -1 0 0
vn 1 0 0
vn 0 0 1
vn 0 0 -1
vn 0 -1 0
vn 0 1 0

# texcoords
vt 0.978516 0.5
vt 0.982422 0.5

# verts
v -20 0 20
v -20 0 -20
v -20 19 20
v -20 19 19
v -20 20 20
v -20 20 19
v -20 20 15
v -20 33 20
v -20 33 15
v -20 40 20
v -20 40 -20
v -8 20 20
v -8 20 19
v -8 20 15
v -8 21 19
v -8 21 15
v -8 22 19
v -8 22 15
v -8 23 19
v -8 23 15
v -8 24 19
v -8 24 15
v -8 25 20
v -8 25 19
v -8 25 15
v 7 20 20
v 7 20 19
v 7 20 15
v 7 21 19
v 7 21 15
v 7 22 19
v 7 22 15
v 7 23 19
v 7 23 15
v 7 24 19
v 7 24 15
v 7 25 20
v 7 25 19
v 7 25 15
v 20 0 20
v 20 0 -20
v 20 19 20
v 20 19 15
v 20 20 20
v 20 20 15
v 20 33 20
v 20 33 15
v 20 40 20
v 20 40 -20
v -20 0 20
v -20 19 20
v -20 20 20
v -20 33 20
v -20 40 20
v -8 20 20
v -8 25 20
v -7 19 20
v -7 24 20
v 6 19 20
v 6 24 20
v 7 20 20
v 7 25 20
v 20 0 20
v 20 19 20
v 20 20 20
v 20 33 20
v 20 40 20
v -20 20 15
v -20 33 15
v -19 20 15
v -18 20 15
v -17 20 15
v -16 20 15
v -15 20 15
v -14 20 15
v -13 20 15
v -12 20 15
v -11 20 15
v -10 20 15
v -9 20 15
v -8 20 15
v -8 21 15
v -8 22 15
v -8 23 15
v -8 24 15
v -8 25 15
v -7 25 15
v -6 25 15
v -5 25 15
v -4 25 15
v -3 25 15
v -2 25 15
v -1 25 15
v 0 25 15
v 1 25 15
v 2 25 15
v 3 25 15
v 4 25 15
v 5 25 15
v 6 25 15
v 7 20 15
v 7 21 15
v 7 22 15
v 7 23 15
v 7 24 15
v 7 25 15
v 8 20 15
v 9 20 15
v 10 20 15
v 11 20 15
v 12 20 15
v 13 20 15
v 14 20 15
v 15 20 15
v 16 20 15
v 17 20 15
v 18 20 15
v 19 20 15
v 20 20 15
v 20 33 15
v -20 0 -20
v -20 40 -20
v 20 0 -20
v 20 40 -20
v -20 0 20
v 20 0 20
v -20 0 -20
v 20 0 -20
v -20 33 20
v 20 33 20
v -20 33 15
v 20 33 15
v -20 20 20
v -8 20 20
v 7 20 20
v 20 20 20
v -20 20 19
v -19 20 19
v -18 20 19
v -17 20 19
v -16 20 19
v -15 20 19
v -14 20 19
v -13 20 19
v -12 20 19
v -11 20 19
v -10 20 19
v -9 20 19
v -8 20 19
v 7 20 19
v 8 20 19
v 9 20 19
v 10 20 19
v 11 20 19
v 12 20 19
v 13 20 19
v 14 20 19
v 15 20 19
v 16 20 19
v 17 20 19
v 18 20 19
v 19 20 19
v -20 20 15
v -19 20 15
v -18 20 15
v -17 20 15
v -16 20 15
v -15 20 15
v -14 20 15
v -13 20 15
v -12 20 15
v -11 20 15
v -10 20 15
v -9 20 15
v -8 20 15
v 7 20 15
v 8 20 15
v 9 20 15
v 10 20 15
v 11 20 15
v 12 20 15
v 13 20 15
v 14 20 15
v 15 20 15
v 16 20 15
v 17 20 15
v 18 20 15
v 19 20 15
v 20 20 15
v -8 25 20
v 7 25 20
v -8 25 19
v -7 25 19
v -6 25 19
v -5 25 19
v -4 25 19
v -3 25 19
v -2 25 19
v -1 25 19
v 0 25 19
v 1 25 19
v 2 25 19
v 3 25 19
v 4 25 19
v 5 25 19
v 6 25 19
v 7 25 19
v -8 25 15
v -7 25 15
v -6 25 15
v -5 25 15
v -4 25 15
v -3 25 15
v -2 25 15
v -1 25 15
v 0 25 15
v 1 25 15
v 2 25 15
v 3 25 15
v 4 25 15
v 5 25 15
v 6 25 15
v 7 25 15
v -20 40 20
v 20 40 20
v -20 40 -20
v 20 40 -20

# faces
f 3/2/1 2/2/1 1/2/1
f 4/2/1 2/2/1 3/2/1
f 5/1/1 4/1/1 3/1/1
f 6/2/1 2/2/1 4/2/1
f 6/1/1 4/1/1 5/1/1
f 7/2/1 2/2/1 6/2/1
f 9/2/1 2/2/1 7/2/1
f 10/2/1 9/2/1 8/2/1
f 11/2/1 2/2/1 9/2/1
f 11/2/1 9/2/1 10/2/1
f 15/1/1 13/1/1 12/1/1
f 15/2/1 14/2/1 13/2/1
f 16/2/1 14/2/1 15/2/1
f 17/1/1 15/1/1 12/1/1
f 17/1/1 16/1/1 15/1/1
f 18/1/1 16/1/1 17/1/1
f 19/1/1 17/1/1 12/1/1
f 19/2/1 18/2/1 17/2/1
f 20/2/1 18/2/1 19/2/1
f 21/1/1 19/1/1 12/1/1
f 21/1/1 20/1/1 19/1/1
f 22/1/1 20/1/1 21/1/1
f 23/1/1 21/1/1 12/1/1
f 24/2/1 22/2/1 21/2/1
f 24/1/1 21/1/1 23/1/1
f 25/2/1 22/2/1 24/2/1
f 26/1/2 27/1/2 29/1/2
f 27/2/2 28/2/2 29/2/2
f 29/2/2 28/2/2 30/2/2
f 26/1/2 29/1/2 31/1/2
f 29/1/2 30/1/2 31/1/2
f 31/1/2 30/1/2 32/1/2
f 26/1/2 31/1/2 33/1/2
f 31/2/2 32/2/2 33/2/2
f 33/2/2 32/2/2 34/2/2
f 26/1/2 33/1/2 35/1/2
f 33/1/2 34/1/2 35/1/2
f 35/1/2 34/1/2 36/1/2
f 26/1/2 35/1/2 37/1/2
f 35/2/2 36/2/2 38/2/2
f 37/1/2 35/1/2 38/1/2
f 38/2/2 36/2/2 39/2/2
f 40/2/2 41/2/2 42/2/2
f 42/2/2 41/2/2 43/2/2
f 42/1/2 43/1/2 44/1/2
f 43/2/2 41/2/2 45/2/2
f 44/1/2 43/1/2 45/1/2
f 45/2/2 41/2/2 47/2/2
f 46/2/2 47/2/2 48/2/2
f 47/2/2 41/2/2 49/2/2
f 48/2/2 47/2/2 49/2/2
f 55/1/3 52/1/3 51/1/3
f 57/2/3 51/2/3 50/2/3
f 57/1/3 56/1/3 55/1/3
f 57/1/3 55/1/3 51/1/3
f 58/1/3 56/1/3 57/1/3
f 59/2/3 57/2/3 50/2/3
f 59/2/3 58/2/3 57/2/3
f 60/1/3 56/1/3 58/1/3
f 60/2/3 58/2/3 59/2/3
f 61/1/3 60/1/3 59/1/3
f 62/1/3 56/1/3 60/1/3
f 62/1/3 60/1/3 61/1/3
f 63/2/3 59/2/3 50/2/3
f 64/1/3 61/1/3 59/1/3
f 64/2/3 59/2/3 63/2/3
f 65/1/3 61/1/3 64/1/3
f 66/2/3 54/2/3 53/2/3
f 67/2/3 54/2/3 66/2/3
f 70/2/3 69/2/3 68/2/3
f 71/2/3 69/2/3 70/2/3
f 72/2/3 69/2/3 71/2/3
f 73/2/3 69/2/3 72/2/3
f 74/2/3 69/2/3 73/2/3
f 75/2/3 69/2/3 74/2/3
f 76/2/3 69/2/3 75/2/3
f 77/2/3 69/2/3 76/2/3
f 78/2/3 69/2/3 77/2/3
f 79/2/3 69/2/3 78/2/3
f 80/2/3 69/2/3 79/2/3
f 81/2/3 69/2/3 80/2/3
f 82/2/3 69/2/3 81/2/3
f 83/2/3 69/2/3 82/2/3
f 84/2/3 69/2/3 83/2/3
f 85/2/3 69/2/3 84/2/3
f 86/2/3 69/2/3 85/2/3
f 87/2/3 69/2/3 86/2/3
f 88/2/3 69/2/3 87/2/3
f 89/2/3 69/2/3 88/2/3
f 90/2/3 69/2/3 89/2/3
f 91/2/3 69/2/3 90/2/3
f 92/2/3 69/2/3 91/2/3
f 93/2/3 69/2/3 92/2/3
f 94/2/3 69/2/3 93/2/3
f 95/2/3 69/2/3 94/2/3
f 96/2/3 69/2/3 95/2/3
f 97/2/3 69/2/3 96/2/3
f 98/2/3 69/2/3 97/2/3
f 99/2/3 69/2/3 98/2/3
f 100/2/3 69/2/3 99/2/3
f 106/2/3 69/2/3 100/2/3
f 107/2/3 105/2/3 104/2/3
f 107/2/3 106/2/3 105/2/3
f 107/2/3 102/2/3 101/2/3
f 107/2/3 103/2/3 102/2/3
f 107/2/3 104/2/3 103/2/3
f 108/2/3 106/2/3 107/2/3
f 109/2/3 106/2/3 108/2/3
f 110/2/3 106/2/3 109/2/3
f 111/2/3 106/2/3 110/2/3
f 112/2/3 106/2/3 111/2/3
f 113/2/3 106/2/3 112/2/3
f 114/2/3 106/2/3 113/2/3
f 115/2/3 106/2/3 114/2/3
f 116/2/3 106/2/3 115/2/3
f 117/2/3 106/2/3 116/2/3
f 118/2/3 106/2/3 117/2/3
f 119/2/3 106/2/3 118/2/3
f 120/2/3 69/2/3 106/2/3
f 120/2/3 106/2/3 119/2/3
f 121/2/4 122/2/4 123/2/4
f 123/2/4 122/2/4 124/2/4
f 127/2/5 126/2/5 125/2/5
f 128/2/5 126/2/5 127/2/5
f 131/2/5 130/2/5 129/2/5
f 132/2/5 130/2/5 131/2/5
f 133/1/6 134/1/6 137/1/6
f 137/1/6 134/1/6 138/1/6
f 138/1/6 134/1/6 139/1/6
f 139/1/6 134/1/6 140/1/6
f 140/1/6 134/1/6 141/1/6
f 141/1/6 134/1/6 142/1/6
f 142/1/6 134/1/6 143/1/6
f 143/1/6 134/1/6 144/1/6
f 144/1/6 134/1/6 145/1/6
f 145/1/6 134/1/6 146/1/6
f 146/1/6 134/1/6 147/1/6
f 147/1/6 134/1/6 148/1/6
f 148/1/6 134/1/6 149/1/6
f 135/1/6 136/1/6 150/1/6
f 150/1/6 136/1/6 151/1/6
f 151/1/6 136/1/6 152/1/6
f 152/1/6 136/1/6 153/1/6
f 153/1/6 136/1/6 154/1/6
f 154/1/6 136/1/6 155/1/6
f 155/1/6 136/1/6 156/1/6
f 156/1/6 136/1/6 157/1/6
f 157/1/6 136/1/6 158/1/6
f 158/1/6 136/1/6 159/1/6
f 159/1/6 136/1/6 160/1/6
f 160/1/6 136/1/6 161/1/6
f 161/1/6 136/1/6 162/1/6
f 137/2/6 138/2/6 163/2/6
f 138/1/6 139/1/6 164/1/6
f 163/2/6 138/2/6 164/2/6
f 139/2/6 140/2/6 165/2/6
f 164/1/6 139/1/6 165/1/6
f 140/1/6 141/1/6 166/1/6
f 165/2/6 140/2/6 166/2/6
f 141/2/6 142/2/6 167/2/6
f 166/1/6 141/1/6 167/1/6
f 142/1/6 143/1/6 168/1/6
f 167/2/6 142/2/6 168/2/6
f 143/2/6 144/2/6 169/2/6
f 168/1/6 143/1/6 169/1/6
f 144/1/6 145/1/6 170/1/6
f 169/2/6 144/2/6 170/2/6
f 145/2/6 146/2/6 171/2/6
f 170/1/6 145/1/6 171/1/6
f 146/1/6 147/1/6 172/1/6
f 171/2/6 146/2/6 172/2/6
f 147/2/6 148/2/6 173/2/6
f 172/1/6 147/1/6 173/1/6
f 148/1/6 149/1/6 174/1/6
f 173/2/6 148/2/6 174/2/6
f 174/1/6 149/1/6 175/1/6
f 150/1/6 151/1/6 176/1/6
f 151/2/6 152/2/6 177/2/6
f 176/1/6 151/1/6 177/1/6
f 152/1/6 153/1/6 178/1/6
f 177/2/6 152/2/6 178/2/6
f 153/2/6 154/2/6 179/2/6
f 178/1/6 153/1/6 179/1/6
f 154/1/6 155/1/6 180/1/6
f 179/2/6 154/2/6 180/2/6
f 155/2/6 156/2/6 181/2/6
f 180/1/6 155/1/6 181/1/6
f 156/1/6 157/1/6 182/1/6
f 181/2/6 156/2/6 182/2/6
f 157/2/6 158/2/6 183/2/6
f 182/1/6 157/1/6 183/1/6
f 158/1/6 159/1/6 184/1/6
f 183/2/6 158/2/6 184/2/6
f 159/2/6 160/2/6 185/2/6
f 184/1/6 159/1/6 185/1/6
f 160/1/6 161/1/6 186/1/6
f 185/2/6 160/2/6 186/2/6
f 161/2/6 162/2/6 187/2/6
f 186/1/6 161/1/6 187/1/6
f 162/1/6 136/1/6 188/1/6
f 187/2/6 162/2/6 188/2/6
f 188/1/6 136/1/6 189/1/6
f 190/1/6 191/1/6 192/1/6
f 192/1/6 191/1/6 193/1/6
f 193/1/6 191/1/6 194/1/6
f 194/1/6 191/1/6 195/1/6
f 195/1/6 191/1/6 196/1/6
f 196/1/6 191/1/6 197/1/6
f 197/1/6 191/1/6 198/1/6
f 198/1/6 191/1/6 199/1/6
f 199/1/6 191/1/6 200/1/6
f 200/1/6 191/1/6 201/1/6
f 201/1/6 191/1/6 202/1/6
f 202/1/6 191/1/6 203/1/6
f 203/1/6 191/1/6 204/1/6
f 204/1/6 191/1/6 205/1/6
f 205/1/6 191/1/6 206/1/6
f 206/1/6 191/1/6 207/1/6
f 192/2/6 193/2/6 208/2/6
f 193/1/6 194/1/6 209/1/6
f 208/2/6 193/2/6 209/2/6
f 194/2/6 195/2/6 210/2/6
f 209/1/6 194/1/6 210/1/6
f 195/1/6 196/1/6 211/1/6
f 210/2/6 195/2/6 211/2/6
f 196/2/6 197/2/6 212/2/6
f 211/1/6 196/1/6 212/1/6
f 197/1/6 198/1/6 213/1/6
f 212/2/6 197/2/6 213/2/6
f 198/2/6 199/2/6 214/2/6
f 213/1/6 198/1/6 214/1/6
f 199/1/6 200/1/6 215/1/6
f 214/2/6 199/2/6 215/2/6
f 200/2/6 201/2/6 216/2/6
f 215/1/6 200/1/6 216/1/6
f 201/1/6 202/1/6 217/1/6
f 216/2/6 201/2/6 217/2/6
f 202/2/6 203/2/6 218/2/6
f 217/1/6 202/1/6 218/1/6
f 203/1/6 204/1/6 219/1/6
f 218/2/6 203/2/6 219/2/6
f 204/2/6 205/2/6 220/2/6
f 219/1/6 204/1/6 220/1/6
f 205/1/6 206/1/6 221/1/6
f 220/2/6 205/2/6 221/2/6
f 206/2/6 207/2/6 222/2/6
f 221/1/6 206/1/6 222/1/6
f 222/2/6 207/2/6 223/2/6
f 224/2/6 225/2/6 226/2/6
f 226/2/6 225/2/6 227/2/6
