# MagicaVoxel @ Ephtracy

# group
g door_V1

# material
mtllib door_V1.mtl
usemtl palette

# normals
vn -1 0 0
vn 1 0 0
vn 0 0 1
vn 0 0 -1
vn 0 -1 0
vn 0 1 0

# texcoords
vt 0.537109 0.5
vt 0.982422 0.5

# verts
v -1 21 14
v -1 21 13
v -1 22 14
v -1 22 13
v 1 3 15
v 1 3 -11
v 1 5 12
v 1 5 -10
v 1 6 11
v 1 6 -9
v 1 14 11
v 1 14 -9
v 1 15 12
v 1 15 -10
v 1 16 12
v 1 16 -10
v 1 17 11
v 1 17 -9
v 1 21 14
v 1 21 13
v 1 22 14
v 1 22 13
v 1 25 11
v 1 25 -9
v 1 26 12
v 1 26 -10
v 1 27 12
v 1 27 -10
v 1 28 11
v 1 28 -9
v 1 36 11
v 1 36 -9
v 1 37 12
v 1 37 -10
v 1 38 15
v 1 38 -11
v 2 5 12
v 2 5 -10
v 2 6 11
v 2 6 -9
v 2 14 11
v 2 14 -9
v 2 14 -10
v 2 15 12
v 2 15 -9
v 2 16 12
v 2 16 -10
v 2 17 11
v 2 17 -9
v 2 25 11
v 2 25 -9
v 2 26 12
v 2 26 -10
v 2 27 12
v 2 27 -10
v 2 28 11
v 2 28 -9
v 2 36 11
v 2 36 -9
v 2 36 -10
v 2 37 12
v 2 37 -9
v 3 14 -9
v 3 14 -10
v 3 15 -9
v 3 15 -10
v 3 36 -9
v 3 36 -10
v 3 37 -9
v 3 37 -10
v 4 3 15
v 4 3 -11
v 4 38 15
v 4 38 -11
v 1 3 15
v 1 38 15
v 4 3 15
v 4 38 15
v -1 21 14
v -1 22 14
v 1 21 14
v 1 22 14
v 1 6 11
v 1 14 11
v 1 17 11
v 1 25 11
v 1 28 11
v 1 36 11
v 2 6 11
v 2 14 11
v 2 17 11
v 2 25 11
v 2 28 11
v 2 36 11
v 1 5 -10
v 1 15 -10
v 1 16 -10
v 1 26 -10
v 1 27 -10
v 1 37 -10
v 2 5 -10
v 2 14 -10
v 2 16 -10
v 2 26 -10
v 2 27 -10
v 2 36 -10
v 3 14 -10
v 3 15 -10
v 3 36 -10
v 3 37 -10
v -1 21 13
v -1 22 13
v 1 21 13
v 1 22 13
v 1 5 12
v 1 15 12
v 1 16 12
v 1 26 12
v 1 27 12
v 1 37 12
v 2 5 12
v 2 15 12
v 2 16 12
v 2 26 12
v 2 27 12
v 2 37 12
v 1 6 -9
v 1 14 -9
v 1 17 -9
v 1 25 -9
v 1 28 -9
v 1 36 -9
v 2 6 -9
v 2 14 -9
v 2 15 -9
v 2 17 -9
v 2 25 -9
v 2 28 -9
v 2 36 -9
v 2 37 -9
v 3 14 -9
v 3 15 -9
v 3 36 -9
v 3 37 -9
v 1 3 -11
v 1 38 -11
v 4 3 -11
v 4 38 -11
v 1 3 15
v 4 3 15
v 2 3 14
v 3 3 14
v 2 3 13
v 3 3 13
v 1 3 -11
v 4 3 -11
v 1 6 11
v 2 6 11
v 1 6 -9
v 2 6 -9
v 1 15 12
v 2 15 12
v 2 15 -9
v 3 15 -9
v 1 15 -10
v 3 15 -10
v 1 17 11
v 2 17 11
v 1 17 -9
v 2 17 -9
v -1 21 14
v 1 21 14
v -1 21 13
v 1 21 13
v 1 26 12
v 2 26 12
v 1 26 -10
v 2 26 -10
v 1 28 11
v 2 28 11
v 1 28 -9
v 2 28 -9
v 1 37 12
v 2 37 12
v 2 37 -9
v 3 37 -9
v 1 37 -10
v 3 37 -10
v 1 5 12
v 2 5 12
v 1 5 -10
v 2 5 -10
v 1 14 11
v 2 14 11
v 1 14 -9
v 2 14 -9
v 3 14 -9
v 2 14 -10
v 3 14 -10
v 1 16 12
v 2 16 12
v 1 16 -10
v 2 16 -10
v -1 22 14
v 1 22 14
v -1 22 13
v 1 22 13
v 1 25 11
v 2 25 11
v 1 25 -9
v 2 25 -9
v 1 27 12
v 2 27 12
v 1 27 -10
v 2 27 -10
v 1 36 11
v 2 36 11
v 1 36 -9
v 2 36 -9
v 3 36 -9
v 2 36 -10
v 3 36 -10
v 1 38 15
v 4 38 15
v 1 38 -11
v 4 38 -11

# faces
f 3/1/1 2/1/1 1/1/1
f 4/1/1 2/1/1 3/1/1
f 7/1/1 6/1/1 5/1/1
f 8/1/1 6/1/1 7/1/1
f 11/1/1 10/1/1 9/1/1
f 12/1/1 10/1/1 11/1/1
f 13/1/1 7/1/1 5/1/1
f 14/1/1 6/1/1 8/1/1
f 15/1/1 13/1/1 5/1/1
f 15/1/1 14/1/1 13/1/1
f 16/1/1 6/1/1 14/1/1
f 16/1/1 14/1/1 15/1/1
f 19/1/1 15/1/1 5/1/1
f 20/1/1 15/1/1 19/1/1
f 21/1/1 19/1/1 5/1/1
f 22/1/1 15/1/1 20/1/1
f 23/1/1 18/1/1 17/1/1
f 24/1/1 18/1/1 23/1/1
f 25/1/1 22/1/1 21/1/1
f 25/1/1 15/1/1 22/1/1
f 26/1/1 6/1/1 16/1/1
f 27/1/1 25/1/1 21/1/1
f 27/1/1 26/1/1 25/1/1
f 28/1/1 6/1/1 26/1/1
f 28/1/1 26/1/1 27/1/1
f 31/1/1 30/1/1 29/1/1
f 32/1/1 30/1/1 31/1/1
f 33/1/1 27/1/1 21/1/1
f 34/1/1 6/1/1 28/1/1
f 35/1/1 33/1/1 21/1/1
f 35/1/1 34/1/1 33/1/1
f 35/1/1 21/1/1 5/1/1
f 36/1/1 6/1/1 34/1/1
f 36/1/1 34/1/1 35/1/1
f 39/1/1 38/1/1 37/1/1
f 40/1/1 38/1/1 39/1/1
f 41/1/1 39/1/1 37/1/1
f 42/1/1 38/1/1 40/1/1
f 43/1/1 38/1/1 42/1/1
f 44/1/1 41/1/1 37/1/1
f 44/1/1 42/1/1 41/1/1
f 45/1/1 42/1/1 44/1/1
f 48/1/1 47/1/1 46/1/1
f 49/1/1 47/1/1 48/1/1
f 50/1/1 48/1/1 46/1/1
f 51/1/1 47/1/1 49/1/1
f 52/1/1 50/1/1 46/1/1
f 52/1/1 51/1/1 50/1/1
f 53/1/1 47/1/1 51/1/1
f 53/1/1 51/1/1 52/1/1
f 56/1/1 55/1/1 54/1/1
f 57/1/1 55/1/1 56/1/1
f 58/1/1 56/1/1 54/1/1
f 59/1/1 55/1/1 57/1/1
f 60/1/1 55/1/1 59/1/1
f 61/1/1 58/1/1 54/1/1
f 61/1/1 59/1/1 58/1/1
f 62/1/1 59/1/1 61/1/1
f 65/1/1 64/1/1 63/1/1
f 66/1/1 64/1/1 65/1/1
f 69/1/1 68/1/1 67/1/1
f 70/1/1 68/1/1 69/1/1
f 71/1/2 72/1/2 73/1/2
f 73/1/2 72/1/2 74/1/2
f 77/1/3 76/1/3 75/1/3
f 78/1/3 76/1/3 77/1/3
f 81/1/3 80/1/3 79/1/3
f 82/1/3 80/1/3 81/1/3
f 89/1/3 84/1/3 83/1/3
f 90/1/3 84/1/3 89/1/3
f 91/1/3 86/1/3 85/1/3
f 92/1/3 86/1/3 91/1/3
f 93/1/3 88/1/3 87/1/3
f 94/1/3 88/1/3 93/1/3
f 101/1/3 96/1/3 95/1/3
f 102/1/3 96/1/3 101/1/3
f 103/1/3 98/1/3 97/1/3
f 104/1/3 98/1/3 103/1/3
f 105/1/3 100/1/3 99/1/3
f 106/1/3 100/1/3 105/1/3
f 107/1/3 96/1/3 102/1/3
f 108/1/3 96/1/3 107/1/3
f 109/1/3 100/1/3 106/1/3
f 110/1/3 100/1/3 109/1/3
f 111/1/4 112/1/4 113/1/4
f 113/1/4 112/1/4 114/1/4
f 115/1/4 116/1/4 121/1/4
f 121/1/4 116/1/4 122/1/4
f 117/1/4 118/1/4 123/1/4
f 123/1/4 118/1/4 124/1/4
f 119/1/4 120/1/4 125/1/4
f 125/1/4 120/1/4 126/1/4
f 127/1/4 128/1/4 133/1/4
f 133/1/4 128/1/4 134/1/4
f 129/1/4 130/1/4 136/1/4
f 136/1/4 130/1/4 137/1/4
f 131/1/4 132/1/4 138/1/4
f 138/1/4 132/1/4 139/1/4
f 134/1/4 135/1/4 141/1/4
f 141/1/4 135/1/4 142/1/4
f 139/1/4 140/1/4 143/1/4
f 143/1/4 140/1/4 144/1/4
f 145/1/4 146/1/4 147/1/4
f 147/1/4 146/1/4 148/1/4
f 151/1/5 150/1/5 149/1/5
f 152/1/5 150/1/5 151/1/5
f 153/1/5 151/1/5 149/1/5
f 153/2/5 152/2/5 151/2/5
f 154/1/5 150/1/5 152/1/5
f 154/2/5 152/2/5 153/2/5
f 155/1/5 153/1/5 149/1/5
f 155/1/5 154/1/5 153/1/5
f 156/1/5 150/1/5 154/1/5
f 156/1/5 154/1/5 155/1/5
f 159/1/5 158/1/5 157/1/5
f 160/1/5 158/1/5 159/1/5
f 163/1/5 162/1/5 161/1/5
f 165/1/5 163/1/5 161/1/5
f 165/1/5 164/1/5 163/1/5
f 166/1/5 164/1/5 165/1/5
f 169/1/5 168/1/5 167/1/5
f 170/1/5 168/1/5 169/1/5
f 173/1/5 172/1/5 171/1/5
f 174/1/5 172/1/5 173/1/5
f 177/1/5 176/1/5 175/1/5
f 178/1/5 176/1/5 177/1/5
f 181/1/5 180/1/5 179/1/5
f 182/1/5 180/1/5 181/1/5
f 185/1/5 184/1/5 183/1/5
f 187/1/5 185/1/5 183/1/5
f 187/1/5 186/1/5 185/1/5
f 188/1/5 186/1/5 187/1/5
f 189/1/6 190/1/6 191/1/6
f 191/1/6 190/1/6 192/1/6
f 193/1/6 194/1/6 195/1/6
f 195/1/6 194/1/6 196/1/6
f 196/1/6 197/1/6 198/1/6
f 198/1/6 197/1/6 199/1/6
f 200/1/6 201/1/6 202/1/6
f 202/1/6 201/1/6 203/1/6
f 204/1/6 205/1/6 206/1/6
f 206/1/6 205/1/6 207/1/6
f 208/1/6 209/1/6 210/1/6
f 210/1/6 209/1/6 211/1/6
f 212/1/6 213/1/6 214/1/6
f 214/1/6 213/1/6 215/1/6
f 216/1/6 217/1/6 218/1/6
f 218/1/6 217/1/6 219/1/6
f 219/1/6 220/1/6 221/1/6
f 221/1/6 220/1/6 222/1/6
f 223/1/6 224/1/6 225/1/6
f 225/1/6 224/1/6 226/1/6
