# MagicaVoxel @ Ephtracy

# group
g straight_Hallway_V1

# material
mtllib straight_Hallway_V1.mtl
usemtl palette

# normals
vn -1 0 0
vn 1 0 0
vn 0 0 1
vn 0 0 -1
vn 0 -1 0
vn 0 1 0

# texcoords
vt 0.958984 0.5
vt 0.982422 0.5

# verts
v -20 0 20
v -20 0 -20
v -20 12 20
v -20 12 10
v -20 31 20
v -20 31 10
v -20 40 20
v -20 40 -20
v -10 20 10
v -10 20 9
v -10 21 10
v -10 21 9
v -8 21 10
v -8 21 9
v -8 22 10
v -8 22 9
v -8 25 10
v -8 25 9
v -8 26 10
v -8 26 9
v -7 24 9
v -7 24 8
v -7 25 9
v -7 25 8
v -6 23 10
v -6 23 9
v -6 24 10
v -6 24 9
v -5 22 8
v -5 22 7
v -5 23 9
v -5 23 8
v -5 23 7
v -5 24 9
v -5 24 8
v -4 22 9
v -4 22 8
v -4 23 9
v -4 23 8
v -2 20 10
v -2 20 9
v -2 21 10
v -2 21 9
v -2 21 8
v -2 21 7
v -2 22 8
v -2 22 7
v -1 22 10
v -1 22 9
v -1 23 9
v -1 23 8
v -1 24 10
v -1 24 8
v 1 21 9
v 1 21 8
v 1 22 9
v 1 22 8
v 1 24 9
v 1 24 8
v 1 25 9
v 1 25 8
v 4 22 9
v 4 22 8
v 4 23 9
v 4 23 8
v 4 25 10
v 4 25 9
v 4 26 10
v 4 26 9
v 6 24 10
v 6 24 9
v 6 25 10
v 6 25 9
v 7 21 10
v 7 21 9
v 7 22 10
v 7 22 9
v 10 22 10
v 10 22 9
v 10 24 10
v 10 24 9
v 11 19 10
v 11 19 9
v 11 21 10
v 11 21 9
v -16 22 10
v -16 22 9
v -16 23 10
v -16 23 9
v -15 19 10
v -15 19 9
v -15 20 10
v -15 20 9
v -15 22 9
v -15 22 8
v -15 23 9
v -15 23 8
v -12 20 10
v -12 20 9
v -12 21 10
v -12 21 9
v -10 21 10
v -10 21 9
v -10 22 10
v -10 22 9
v -9 22 8
v -9 22 7
v -9 23 8
v -9 23 7
v -9 24 10
v -9 24 9
v -9 26 10
v -9 26 9
v -8 24 9
v -8 24 8
v -8 25 9
v -8 25 8
v -7 21 10
v -7 21 9
v -7 22 10
v -7 22 9
v -7 23 10
v -7 23 9
v -7 24 10
v -7 24 9
v -6 23 9
v -6 23 8
v -6 24 9
v -6 24 8
v -5 23 10
v -5 23 9
v -5 24 10
v -5 24 9
v -4 20 10
v -4 20 9
v -4 21 10
v -4 21 9
v -4 21 8
v -4 21 7
v -4 22 9
v -4 22 7
v -2 23 9
v -2 23 8
v -2 24 9
v -2 24 8
v -2 25 9
v -2 25 8
v 1 22 9
v 1 22 8
v 1 23 9
v 1 23 8
v 1 25 10
v 1 25 9
v 1 26 10
v 1 26 9
v 3 22 10
v 3 22 9
v 3 23 10
v 3 23 9
v 4 20 10
v 4 20 9
v 4 21 10
v 4 21 9
v 7 23 10
v 7 23 9
v 7 24 10
v 7 24 9
v 20 0 20
v 20 0 -20
v 20 12 20
v 20 12 10
v 20 31 20
v 20 31 10
v 20 40 20
v 20 40 -20
v -20 0 20
v -20 12 20
v -20 31 20
v -20 40 20
v 20 0 20
v 20 12 20
v 20 31 20
v 20 40 20
v -20 12 10
v -20 31 10
v -16 22 10
v -16 23 10
v -15 19 10
v -15 20 10
v -12 20 10
v -12 21 10
v -10 20 10
v -10 21 10
v -10 22 10
v -9 24 10
v -9 26 10
v -8 21 10
v -8 22 10
v -8 25 10
v -8 26 10
v -7 21 10
v -7 22 10
v -7 23 10
v -7 24 10
v -6 23 10
v -6 24 10
v -5 23 10
v -5 24 10
v -4 20 10
v -4 21 10
v -2 20 10
v -2 21 10
v -1 22 10
v -1 24 10
v 1 25 10
v 1 26 10
v 3 22 10
v 3 23 10
v 4 20 10
v 4 21 10
v 4 25 10
v 4 26 10
v 6 24 10
v 6 25 10
v 7 21 10
v 7 22 10
v 7 23 10
v 7 24 10
v 10 22 10
v 10 24 10
v 11 19 10
v 11 21 10
v 20 12 10
v 20 31 10
v -16 22 9
v -16 23 9
v -15 19 9
v -15 20 9
v -15 22 9
v -15 23 9
v -12 20 9
v -12 21 9
v -10 20 9
v -10 21 9
v -10 22 9
v -9 24 9
v -9 26 9
v -8 21 9
v -8 22 9
v -8 24 9
v -8 25 9
v -8 26 9
v -7 21 9
v -7 22 9
v -7 23 9
v -7 24 9
v -7 25 9
v -6 23 9
v -6 24 9
v -5 23 9
v -5 24 9
v -4 20 9
v -4 21 9
v -4 22 9
v -4 23 9
v -2 20 9
v -2 21 9
v -2 22 9
v -2 23 9
v -2 24 9
v -2 25 9
v -1 22 9
v -1 23 9
v 1 21 9
v 1 22 9
v 1 24 9
v 1 25 9
v 1 26 9
v 3 22 9
v 4 20 9
v 4 21 9
v 4 22 9
v 4 23 9
v 4 25 9
v 4 26 9
v 6 24 9
v 6 25 9
v 7 21 9
v 7 22 9
v 7 23 9
v 7 24 9
v 10 22 9
v 10 24 9
v 11 19 9
v 11 21 9
v -15 22 8
v -15 23 8
v -10 22 8
v -9 22 8
v -9 23 8
v -8 24 8
v -8 25 8
v -7 24 8
v -7 25 8
v -6 23 8
v -6 24 8
v -5 22 8
v -5 23 8
v -5 24 8
v -4 22 8
v -4 23 8
v -2 21 8
v -2 22 8
v -2 23 8
v -2 24 8
v -2 25 8
v -1 22 8
v -1 23 8
v -1 24 8
v 1 21 8
v 1 22 8
v 1 23 8
v 1 24 8
v 1 25 8
v 3 22 8
v 3 23 8
v 4 22 8
v 4 23 8
v -9 22 7
v -9 23 7
v -5 22 7
v -5 23 7
v -4 21 7
v -4 22 7
v -3 22 7
v -2 21 7
v -2 22 7
v -6 23 9
v -6 24 9
v -5 23 9
v -5 24 9
v 1 22 9
v 1 23 9
v 3 22 9
v 3 23 9
v -20 0 -20
v -20 40 -20
v 20 0 -20
v 20 40 -20
v -20 0 20
v 20 0 20
v -20 0 -20
v 20 0 -20
v -15 20 10
v -12 20 10
v -10 20 10
v -4 20 10
v -2 20 10
v 4 20 10
v -15 20 9
v -12 20 9
v -10 20 9
v -4 20 9
v -2 20 9
v 4 20 9
v -12 21 10
v -10 21 10
v 7 21 10
v 11 21 10
v -12 21 9
v -10 21 9
v 7 21 9
v 11 21 9
v -1 22 10
v 3 22 10
v -4 22 9
v -2 22 9
v -1 22 9
v 1 22 9
v 3 22 9
v -3 22 8
v -2 22 8
v -1 22 8
v 1 22 8
v -4 22 7
v -3 22 7
v -2 22 7
v -16 23 10
v -7 23 10
v -6 23 10
v -5 23 10
v 3 23 10
v 7 23 10
v -16 23 9
v -15 23 9
v -7 23 9
v -6 23 9
v -5 23 9
v -4 23 9
v 1 23 9
v 3 23 9
v 4 23 9
v 7 23 9
v -15 23 8
v -9 23 8
v -6 23 8
v -5 23 8
v -4 23 8
v 1 23 8
v 3 23 8
v 4 23 8
v -9 23 7
v -5 23 7
v 7 24 10
v 10 24 10
v -6 24 9
v -5 24 9
v 7 24 9
v 10 24 9
v -6 24 8
v -5 24 8
v -8 25 10
v 1 25 10
v 4 25 10
v 6 25 10
v -8 25 9
v -7 25 9
v -2 25 9
v 1 25 9
v 4 25 9
v 6 25 9
v -8 25 8
v -7 25 8
v -2 25 8
v 1 25 8
v -9 26 10
v -8 26 10
v 1 26 10
v 4 26 10
v -9 26 9
v -8 26 9
v 1 26 9
v 4 26 9
v -20 31 20
v 20 31 20
v -20 31 10
v 20 31 10
v -20 12 20
v 20 12 20
v -20 12 10
v 20 12 10
v -15 19 10
v 11 19 10
v -15 19 9
v 11 19 9
v -10 21 10
v -8 21 10
v -7 21 10
v -4 21 10
v -2 21 10
v 4 21 10
v -10 21 9
v -8 21 9
v -7 21 9
v -4 21 9
v -2 21 9
v 1 21 9
v 4 21 9
v -4 21 8
v -2 21 8
v 1 21 8
v -4 21 7
v -2 21 7
v -16 22 10
v -10 22 10
v -8 22 10
v -7 22 10
v 7 22 10
v 10 22 10
v -16 22 9
v -15 22 9
v -10 22 9
v -8 22 9
v -7 22 9
v -4 22 9
v 1 22 9
v 3 22 9
v 4 22 9
v 7 22 9
v 10 22 9
v -15 22 8
v -10 22 8
v -9 22 8
v -8 22 8
v -7 22 8
v -5 22 8
v -4 22 8
v 1 22 8
v 3 22 8
v 4 22 8
v -9 22 7
v -5 22 7
v -2 23 9
v -1 23 9
v -2 23 8
v -1 23 8
v -9 24 10
v -7 24 10
v -6 24 10
v -5 24 10
v -1 24 10
v 6 24 10
v -9 24 9
v -8 24 9
v -7 24 9
v -6 24 9
v -5 24 9
v 1 24 9
v 6 24 9
v -8 24 8
v -7 24 8
v -1 24 8
v 1 24 8
v -20 40 20
v 20 40 20
v -20 40 -20
v 20 40 -20

# faces
f 3/2/1 2/2/1 1/2/1
f 4/2/1 2/2/1 3/2/1
f 6/2/1 2/2/1 4/2/1
f 7/2/1 6/2/1 5/2/1
f 8/2/1 2/2/1 6/2/1
f 8/2/1 6/2/1 7/2/1
f 11/2/1 10/2/1 9/2/1
f 12/2/1 10/2/1 11/2/1
f 15/2/1 14/2/1 13/2/1
f 16/2/1 14/2/1 15/2/1
f 19/2/1 18/2/1 17/2/1
f 20/2/1 18/2/1 19/2/1
f 23/1/1 22/1/1 21/1/1
f 24/1/1 22/1/1 23/1/1
f 27/2/1 26/2/1 25/2/1
f 28/2/1 26/2/1 27/2/1
f 32/1/1 30/1/1 29/1/1
f 33/1/1 30/1/1 32/1/1
f 34/2/1 32/2/1 31/2/1
f 35/2/1 32/2/1 34/2/1
f 38/2/1 37/2/1 36/2/1
f 39/2/1 37/2/1 38/2/1
f 42/2/1 41/2/1 40/2/1
f 43/2/1 41/2/1 42/2/1
f 46/1/1 45/1/1 44/1/1
f 47/1/1 45/1/1 46/1/1
f 50/2/1 49/2/1 48/2/1
f 52/2/1 50/2/1 48/2/1
f 52/2/1 51/2/1 50/2/1
f 53/2/1 51/2/1 52/2/1
f 56/1/1 55/1/1 54/1/1
f 57/1/1 55/1/1 56/1/1
f 60/1/1 59/1/1 58/1/1
f 61/1/1 59/1/1 60/1/1
f 64/1/1 63/1/1 62/1/1
f 65/1/1 63/1/1 64/1/1
f 68/2/1 67/2/1 66/2/1
f 69/2/1 67/2/1 68/2/1
f 72/2/1 71/2/1 70/2/1
f 73/2/1 71/2/1 72/2/1
f 76/2/1 75/2/1 74/2/1
f 77/2/1 75/2/1 76/2/1
f 80/2/1 79/2/1 78/2/1
f 81/2/1 79/2/1 80/2/1
f 84/2/1 83/2/1 82/2/1
f 85/2/1 83/2/1 84/2/1
f 86/2/2 87/2/2 88/2/2
f 88/2/2 87/2/2 89/2/2
f 90/2/2 91/2/2 92/2/2
f 92/2/2 91/2/2 93/2/2
f 94/1/2 95/1/2 96/1/2
f 96/1/2 95/1/2 97/1/2
f 98/2/2 99/2/2 100/2/2
f 100/2/2 99/2/2 101/2/2
f 102/2/2 103/2/2 104/2/2
f 104/2/2 103/2/2 105/2/2
f 106/1/2 107/1/2 108/1/2
f 108/1/2 107/1/2 109/1/2
f 110/2/2 111/2/2 112/2/2
f 112/2/2 111/2/2 113/2/2
f 114/1/2 115/1/2 116/1/2
f 116/1/2 115/1/2 117/1/2
f 118/2/2 119/2/2 120/2/2
f 120/2/2 119/2/2 121/2/2
f 122/2/2 123/2/2 124/2/2
f 124/2/2 123/2/2 125/2/2
f 126/2/2 127/2/2 128/2/2
f 128/2/2 127/2/2 129/2/2
f 130/2/2 131/2/2 132/2/2
f 132/2/2 131/2/2 133/2/2
f 134/2/2 135/2/2 136/2/2
f 136/2/2 135/2/2 137/2/2
f 138/1/2 139/1/2 140/1/2
f 137/1/2 138/1/2 140/1/2
f 140/1/2 139/1/2 141/1/2
f 142/2/2 143/2/2 144/2/2
f 144/2/2 143/2/2 145/2/2
f 144/1/2 145/1/2 146/1/2
f 146/1/2 145/1/2 147/1/2
f 148/2/2 149/2/2 150/2/2
f 150/2/2 149/2/2 151/2/2
f 152/2/2 153/2/2 154/2/2
f 154/2/2 153/2/2 155/2/2
f 156/2/2 157/2/2 158/2/2
f 158/2/2 157/2/2 159/2/2
f 160/2/2 161/2/2 162/2/2
f 162/2/2 161/2/2 163/2/2
f 164/2/2 165/2/2 166/2/2
f 166/2/2 165/2/2 167/2/2
f 168/2/2 169/2/2 170/2/2
f 170/2/2 169/2/2 171/2/2
f 171/2/2 169/2/2 173/2/2
f 172/2/2 173/2/2 174/2/2
f 173/2/2 169/2/2 175/2/2
f 174/2/2 173/2/2 175/2/2
f 180/2/3 177/2/3 176/2/3
f 181/2/3 177/2/3 180/2/3
f 182/2/3 179/2/3 178/2/3
f 183/2/3 179/2/3 182/2/3
f 186/2/3 185/2/3 184/2/3
f 187/2/3 185/2/3 186/2/3
f 188/2/3 186/2/3 184/2/3
f 189/2/3 186/2/3 188/2/3
f 190/2/3 186/2/3 189/2/3
f 191/2/3 186/2/3 190/2/3
f 193/2/3 186/2/3 191/2/3
f 194/2/3 186/2/3 193/2/3
f 195/2/3 185/2/3 187/2/3
f 196/2/3 185/2/3 195/2/3
f 197/2/3 193/2/3 192/2/3
f 200/2/3 185/2/3 196/2/3
f 201/2/3 198/2/3 197/2/3
f 201/2/3 197/2/3 192/2/3
f 202/2/3 198/2/3 201/2/3
f 203/2/3 195/2/3 187/2/3
f 204/2/3 195/2/3 203/2/3
f 207/2/3 206/2/3 205/2/3
f 208/2/3 206/2/3 207/2/3
f 209/2/3 201/2/3 192/2/3
f 210/2/3 201/2/3 209/2/3
f 215/2/3 200/2/3 199/2/3
f 216/2/3 185/2/3 200/2/3
f 216/2/3 200/2/3 215/2/3
f 217/2/3 214/2/3 213/2/3
f 218/2/3 214/2/3 217/2/3
f 219/2/3 212/2/3 211/2/3
f 220/2/3 212/2/3 219/2/3
f 222/2/3 185/2/3 216/2/3
f 223/2/3 214/2/3 218/2/3
f 224/2/3 222/2/3 221/2/3
f 227/2/3 223/2/3 218/2/3
f 227/2/3 224/2/3 223/2/3
f 228/2/3 224/2/3 227/2/3
f 229/2/3 226/2/3 225/2/3
f 230/2/3 224/2/3 228/2/3
f 231/2/3 188/2/3 184/2/3
f 232/2/3 229/2/3 225/2/3
f 232/2/3 230/2/3 229/2/3
f 233/2/3 231/2/3 184/2/3
f 233/2/3 232/2/3 231/2/3
f 234/2/3 230/2/3 232/2/3
f 234/2/3 232/2/3 233/2/3
f 234/2/3 224/2/3 230/2/3
f 234/2/3 185/2/3 222/2/3
f 234/2/3 222/2/3 224/2/3
f 239/1/3 236/1/3 235/1/3
f 240/1/3 236/1/3 239/1/3
f 241/1/3 238/1/3 237/1/3
f 243/1/3 241/1/3 237/1/3
f 243/1/3 242/1/3 241/1/3
f 244/1/3 242/1/3 243/1/3
f 248/1/3 245/1/3 244/1/3
f 249/1/3 245/1/3 248/1/3
f 250/1/3 247/1/3 246/1/3
f 251/1/3 247/1/3 250/1/3
f 252/1/3 247/1/3 251/1/3
f 258/2/3 256/2/3 255/2/3
f 259/1/3 257/1/3 256/1/3
f 259/2/3 256/2/3 258/2/3
f 261/1/3 257/1/3 259/1/3
f 262/1/3 243/1/3 237/1/3
f 263/1/3 254/1/3 253/1/3
f 264/1/3 254/1/3 263/1/3
f 265/2/3 261/2/3 260/2/3
f 266/1/3 262/1/3 237/1/3
f 266/1/3 263/1/3 262/1/3
f 267/1/3 263/1/3 266/1/3
f 268/2/3 265/2/3 264/2/3
f 269/2/3 261/2/3 265/2/3
f 269/2/3 265/2/3 268/2/3
f 270/1/3 257/1/3 261/1/3
f 270/2/3 261/2/3 269/2/3
f 271/1/3 257/1/3 270/1/3
f 272/1/3 269/1/3 268/1/3
f 273/1/3 269/1/3 272/1/3
f 279/1/3 275/1/3 274/1/3
f 280/1/3 266/1/3 237/1/3
f 281/1/3 279/1/3 274/1/3
f 282/1/3 279/1/3 281/1/3
f 284/1/3 277/1/3 276/1/3
f 284/1/3 278/1/3 277/1/3
f 285/1/3 278/1/3 284/1/3
f 286/1/3 284/1/3 276/1/3
f 287/1/3 284/1/3 286/1/3
f 288/1/3 283/1/3 282/1/3
f 288/1/3 282/1/3 281/1/3
f 288/1/3 281/1/3 280/1/3
f 289/1/3 283/1/3 288/1/3
f 290/1/3 283/1/3 289/1/3
f 292/1/3 291/1/3 290/1/3
f 292/1/3 290/1/3 289/1/3
f 293/1/3 291/1/3 292/1/3
f 294/1/3 280/1/3 237/1/3
f 294/1/3 288/1/3 280/1/3
f 295/1/3 288/1/3 294/1/3
f 298/1/3 297/1/3 296/1/3
f 299/1/3 297/1/3 298/1/3
f 300/1/3 297/1/3 299/1/3
f 303/1/3 302/1/3 301/1/3
f 304/1/3 302/1/3 303/1/3
f 308/2/3 306/2/3 305/2/3
f 309/2/3 306/2/3 308/2/3
f 310/1/3 308/1/3 307/1/3
f 311/1/3 308/1/3 310/1/3
f 317/1/3 313/1/3 312/1/3
f 318/1/3 315/1/3 314/1/3
f 318/1/3 316/1/3 315/1/3
f 319/1/3 316/1/3 318/1/3
f 320/1/3 317/1/3 312/1/3
f 321/1/3 317/1/3 320/1/3
f 323/1/3 316/1/3 319/1/3
f 324/1/3 316/1/3 323/1/3
f 325/2/3 322/2/3 321/2/3
f 326/2/3 322/2/3 325/2/3
f 327/1/3 326/1/3 325/1/3
f 328/1/3 326/1/3 327/1/3
f 331/1/3 330/1/3 329/1/3
f 332/1/3 330/1/3 331/1/3
f 335/1/3 334/1/3 333/1/3
f 336/1/3 335/1/3 333/1/3
f 337/1/3 335/1/3 336/1/3
f 338/2/4 339/2/4 340/2/4
f 340/2/4 339/2/4 341/2/4
f 342/2/4 343/2/4 344/2/4
f 344/2/4 343/2/4 345/2/4
f 346/2/4 347/2/4 348/2/4
f 348/2/4 347/2/4 349/2/4
f 352/2/5 351/2/5 350/2/5
f 353/2/5 351/2/5 352/2/5
f 360/2/5 355/2/5 354/2/5
f 361/2/5 355/2/5 360/2/5
f 362/2/5 357/2/5 356/2/5
f 363/2/5 357/2/5 362/2/5
f 364/2/5 359/2/5 358/2/5
f 365/2/5 359/2/5 364/2/5
f 370/2/5 367/2/5 366/2/5
f 371/2/5 367/2/5 370/2/5
f 372/2/5 369/2/5 368/2/5
f 373/2/5 369/2/5 372/2/5
f 378/2/5 375/2/5 374/2/5
f 379/2/5 375/2/5 378/2/5
f 380/2/5 375/2/5 379/2/5
f 381/2/5 377/2/5 376/2/5
f 382/1/5 378/1/5 377/1/5
f 382/2/5 377/2/5 381/2/5
f 383/2/5 379/2/5 378/2/5
f 383/1/5 378/1/5 382/1/5
f 384/2/5 379/2/5 383/2/5
f 385/2/5 381/2/5 376/2/5
f 386/1/5 382/1/5 381/1/5
f 386/2/5 381/2/5 385/2/5
f 387/1/5 382/1/5 386/1/5
f 394/2/5 389/2/5 388/2/5
f 395/2/5 389/2/5 394/2/5
f 396/2/5 389/2/5 395/2/5
f 397/2/5 391/2/5 390/2/5
f 398/2/5 391/2/5 397/2/5
f 401/2/5 393/2/5 392/2/5
f 402/2/5 393/2/5 401/2/5
f 403/2/5 393/2/5 402/2/5
f 404/2/5 396/2/5 395/2/5
f 404/2/5 397/2/5 396/2/5
f 405/2/5 397/2/5 404/2/5
f 406/2/5 397/2/5 405/2/5
f 407/2/5 399/2/5 398/2/5
f 408/2/5 399/2/5 407/2/5
f 409/2/5 402/2/5 401/2/5
f 409/2/5 401/2/5 400/2/5
f 410/2/5 402/2/5 409/2/5
f 411/2/5 402/2/5 410/2/5
f 412/2/5 406/2/5 405/2/5
f 412/2/5 407/2/5 406/2/5
f 413/2/5 407/2/5 412/2/5
f 418/2/5 415/2/5 414/2/5
f 419/2/5 415/2/5 418/2/5
f 420/1/5 417/1/5 416/1/5
f 421/1/5 417/1/5 420/1/5
f 426/2/5 423/2/5 422/2/5
f 427/2/5 423/2/5 426/2/5
f 428/2/5 423/2/5 427/2/5
f 429/2/5 423/2/5 428/2/5
f 430/2/5 425/2/5 424/2/5
f 431/2/5 425/2/5 430/2/5
f 432/2/5 427/2/5 426/2/5
f 433/2/5 427/2/5 432/2/5
f 434/2/5 429/2/5 428/2/5
f 435/2/5 429/2/5 434/2/5
f 440/2/5 437/2/5 436/2/5
f 441/2/5 437/2/5 440/2/5
f 442/2/5 439/2/5 438/2/5
f 443/2/5 439/2/5 442/2/5
f 446/2/5 445/2/5 444/2/5
f 447/2/5 445/2/5 446/2/5
f 448/2/6 449/2/6 450/2/6
f 450/2/6 449/2/6 451/2/6
f 452/2/6 453/2/6 454/2/6
f 454/2/6 453/2/6 455/2/6
f 456/2/6 457/2/6 462/2/6
f 462/2/6 457/2/6 463/2/6
f 458/2/6 459/2/6 464/2/6
f 464/2/6 459/2/6 465/2/6
f 460/2/6 461/2/6 466/2/6
f 466/2/6 461/2/6 467/2/6
f 467/2/6 461/2/6 468/2/6
f 465/1/6 466/1/6 469/1/6
f 466/2/6 467/2/6 470/2/6
f 469/1/6 466/1/6 470/1/6
f 470/2/6 467/2/6 471/2/6
f 469/2/6 470/2/6 472/2/6
f 472/2/6 470/2/6 473/2/6
f 474/2/6 475/2/6 480/2/6
f 480/2/6 475/2/6 481/2/6
f 481/2/6 475/2/6 482/2/6
f 476/2/6 477/2/6 483/2/6
f 483/2/6 477/2/6 484/2/6
f 478/2/6 479/2/6 489/2/6
f 489/2/6 479/2/6 490/2/6
f 481/2/6 482/2/6 491/2/6
f 482/1/6 483/1/6 492/1/6
f 491/2/6 482/2/6 492/2/6
f 492/1/6 483/1/6 493/1/6
f 483/2/6 484/2/6 494/2/6
f 493/1/6 483/1/6 494/1/6
f 484/1/6 485/1/6 495/1/6
f 494/2/6 484/2/6 495/2/6
f 495/1/6 485/1/6 496/1/6
f 496/1/6 485/1/6 497/1/6
f 487/1/6 488/1/6 498/1/6
f 486/1/6 487/1/6 498/1/6
f 498/1/6 488/1/6 499/1/6
f 499/1/6 488/1/6 500/1/6
f 493/2/6 494/2/6 501/2/6
f 494/2/6 495/2/6 501/2/6
f 495/2/6 496/2/6 501/2/6
f 501/2/6 496/2/6 502/2/6
f 503/1/6 504/1/6 505/1/6
f 505/1/6 504/1/6 506/1/6
f 507/2/6 508/2/6 513/2/6
f 513/2/6 508/2/6 514/2/6
f 514/2/6 508/2/6 515/2/6
f 509/2/6 510/2/6 516/2/6
f 516/2/6 510/2/6 517/2/6
f 511/2/6 512/2/6 518/2/6
f 518/2/6 512/2/6 519/2/6
f 514/2/6 515/2/6 520/2/6
f 520/2/6 515/2/6 521/2/6
f 511/2/6 518/2/6 522/2/6
f 522/2/6 518/2/6 523/2/6
f 524/2/6 525/2/6 526/2/6
f 526/2/6 525/2/6 527/2/6
