# MagicaVoxel @ Ephtracy

# group
g straight_Hallway_V4

# material
mtllib straight_Hallway_V4.mtl
usemtl palette

# normals
vn -1 0 0
vn 1 0 0
vn 0 0 1
vn 0 0 -1
vn 0 -1 0
vn 0 1 0

# texcoords
vt 0.958984 0.5
vt 0.978516 0.5
vt 0.982422 0.5

# verts
v -20 0 20
v -20 0 -20
v -20 11 20
v -20 11 19
v -20 12 20
v -20 12 19
v -20 12 11
v -20 31 20
v -20 31 11
v -20 40 20
v -20 40 -20
v -7 24 9
v -7 24 8
v -7 25 9
v -7 25 8
v 3 22 9
v 3 22 8
v 3 23 9
v 3 23 8
v -8 24 9
v -8 24 8
v -8 25 9
v -8 25 8
v 1 22 9
v 1 22 8
v 1 23 9
v 1 23 8
v 20 0 20
v 20 0 -20
v 20 11 20
v 20 11 19
v 20 12 20
v 20 12 19
v 20 12 11
v 20 31 20
v 20 31 11
v 20 40 20
v 20 40 -20
v -20 0 20
v -20 11 20
v -20 12 20
v -20 31 20
v -20 40 20
v 20 0 20
v 20 11 20
v 20 12 20
v 20 31 20
v 20 40 20
v -20 12 11
v -20 31 11
v -19 12 11
v -18 12 11
v -17 12 11
v -16 12 11
v -15 12 11
v -14 12 11
v -13 12 11
v -12 12 11
v -11 12 11
v -10 12 11
v -9 12 11
v -8 12 11
v -7 12 11
v -6 12 11
v -5 12 11
v -4 12 11
v 20 12 11
v 20 31 11
v -8 24 8
v -8 25 8
v -7 24 8
v -7 25 8
v 1 22 8
v 1 23 8
v 3 22 8
v 3 23 8
v -8 24 9
v -8 25 9
v -7 24 9
v -7 25 9
v 1 22 9
v 1 23 9
v 3 22 9
v 3 23 9
v -20 0 -20
v -20 40 -20
v 20 0 -20
v 20 40 -20
v -20 0 20
v 20 0 20
v -20 0 -20
v 20 0 -20
v 1 23 9
v 3 23 9
v 1 23 8
v 3 23 8
v -8 25 9
v -7 25 9
v -8 25 8
v -7 25 8
v -20 31 20
v 20 31 20
v -20 31 11
v 20 31 11
v -20 12 20
v 20 12 20
v -20 12 19
v -19 12 19
v -18 12 19
v -17 12 19
v -16 12 19
v -15 12 19
v -14 12 19
v -13 12 19
v -12 12 19
v -11 12 19
v -10 12 19
v -9 12 19
v -8 12 19
v -7 12 19
v -6 12 19
v -5 12 19
v -4 12 19
v 20 12 19
v -3 12 18
v -2 12 18
v 2 12 18
v 3 12 18
v 8 12 18
v 9 12 18
v 14 12 18
v 15 12 18
v -3 12 17
v -2 12 17
v 0 12 17
v 1 12 17
v 2 12 17
v 3 12 17
v 8 12 17
v 9 12 17
v 10 12 17
v 13 12 17
v 14 12 17
v 15 12 17
v 16 12 17
v 17 12 17
v 18 12 17
v 19 12 17
v 0 12 16
v 1 12 16
v 5 12 16
v 6 12 16
v 9 12 16
v 10 12 16
v 13 12 16
v 14 12 16
v 16 12 16
v 17 12 16
v 18 12 16
v 19 12 16
v 2 12 15
v 3 12 15
v 5 12 15
v 6 12 15
v 13 12 15
v 14 12 15
v 16 12 15
v 17 12 15
v -4 12 14
v -3 12 14
v -1 12 14
v 0 12 14
v 2 12 14
v 3 12 14
v 5 12 14
v 6 12 14
v 8 12 14
v 10 12 14
v 11 12 14
v 12 12 14
v 13 12 14
v 14 12 14
v 16 12 14
v 17 12 14
v -4 12 13
v -3 12 13
v -1 12 13
v 0 12 13
v 5 12 13
v 6 12 13
v 8 12 13
v 10 12 13
v 11 12 13
v 12 12 13
v 13 12 13
v 18 12 13
v 19 12 13
v 12 12 12
v 13 12 12
v 18 12 12
v 19 12 12
v -20 12 11
v -19 12 11
v -18 12 11
v -17 12 11
v -16 12 11
v -15 12 11
v -14 12 11
v -13 12 11
v -12 12 11
v -11 12 11
v -10 12 11
v -9 12 11
v -8 12 11
v -7 12 11
v -6 12 11
v -5 12 11
v -4 12 11
v 20 12 11
v 1 22 9
v 3 22 9
v 1 22 8
v 3 22 8
v -8 24 9
v -7 24 9
v -8 24 8
v -7 24 8
v -20 40 20
v 20 40 20
v -20 40 -20
v 20 40 -20

# faces
f 3/3/1 2/3/1 1/3/1
f 4/3/1 2/3/1 3/3/1
f 5/2/1 4/2/1 3/2/1
f 6/3/1 2/3/1 4/3/1
f 6/2/1 4/2/1 5/2/1
f 7/3/1 2/3/1 6/3/1
f 9/3/1 2/3/1 7/3/1
f 10/3/1 9/3/1 8/3/1
f 11/3/1 2/3/1 9/3/1
f 11/3/1 9/3/1 10/3/1
f 14/1/1 13/1/1 12/1/1
f 15/1/1 13/1/1 14/1/1
f 18/3/1 17/3/1 16/3/1
f 19/3/1 17/3/1 18/3/1
f 20/1/2 21/1/2 22/1/2
f 22/1/2 21/1/2 23/1/2
f 24/3/2 25/3/2 26/3/2
f 26/3/2 25/3/2 27/3/2
f 28/3/2 29/3/2 30/3/2
f 30/3/2 29/3/2 31/3/2
f 30/2/2 31/2/2 32/2/2
f 31/3/2 29/3/2 33/3/2
f 32/2/2 31/2/2 33/2/2
f 33/3/2 29/3/2 34/3/2
f 34/3/2 29/3/2 36/3/2
f 35/3/2 36/3/2 37/3/2
f 36/3/2 29/3/2 38/3/2
f 37/3/2 36/3/2 38/3/2
f 44/3/3 40/3/3 39/3/3
f 45/2/3 41/2/3 40/2/3
f 45/3/3 40/3/3 44/3/3
f 46/2/3 41/2/3 45/2/3
f 47/3/3 43/3/3 42/3/3
f 48/3/3 43/3/3 47/3/3
f 51/3/3 50/3/3 49/3/3
f 52/3/3 50/3/3 51/3/3
f 53/3/3 50/3/3 52/3/3
f 54/3/3 50/3/3 53/3/3
f 55/3/3 50/3/3 54/3/3
f 56/3/3 50/3/3 55/3/3
f 57/3/3 50/3/3 56/3/3
f 58/3/3 50/3/3 57/3/3
f 59/3/3 50/3/3 58/3/3
f 60/3/3 50/3/3 59/3/3
f 61/3/3 50/3/3 60/3/3
f 62/3/3 50/3/3 61/3/3
f 63/3/3 50/3/3 62/3/3
f 64/3/3 50/3/3 63/3/3
f 65/3/3 50/3/3 64/3/3
f 66/3/3 50/3/3 65/3/3
f 67/3/3 50/3/3 66/3/3
f 68/3/3 50/3/3 67/3/3
f 71/1/3 70/1/3 69/1/3
f 72/1/3 70/1/3 71/1/3
f 75/3/3 74/3/3 73/3/3
f 76/3/3 74/3/3 75/3/3
f 77/3/4 78/3/4 79/3/4
f 79/3/4 78/3/4 80/3/4
f 81/3/4 82/3/4 83/3/4
f 83/3/4 82/3/4 84/3/4
f 85/3/4 86/3/4 87/3/4
f 87/3/4 86/3/4 88/3/4
f 91/3/5 90/3/5 89/3/5
f 92/3/5 90/3/5 91/3/5
f 95/3/5 94/3/5 93/3/5
f 96/3/5 94/3/5 95/3/5
f 99/3/5 98/3/5 97/3/5
f 100/3/5 98/3/5 99/3/5
f 103/3/5 102/3/5 101/3/5
f 104/3/5 102/3/5 103/3/5
f 105/2/6 106/2/6 107/2/6
f 107/2/6 106/2/6 108/2/6
f 108/2/6 106/2/6 109/2/6
f 109/2/6 106/2/6 110/2/6
f 110/2/6 106/2/6 111/2/6
f 111/2/6 106/2/6 112/2/6
f 112/2/6 106/2/6 113/2/6
f 113/2/6 106/2/6 114/2/6
f 114/2/6 106/2/6 115/2/6
f 115/2/6 106/2/6 116/2/6
f 116/2/6 106/2/6 117/2/6
f 117/2/6 106/2/6 118/2/6
f 118/2/6 106/2/6 119/2/6
f 119/2/6 106/2/6 120/2/6
f 120/2/6 106/2/6 121/2/6
f 121/2/6 106/2/6 122/2/6
f 122/2/6 106/2/6 123/2/6
f 123/2/6 106/2/6 124/2/6
f 123/3/6 124/3/6 125/3/6
f 125/3/6 124/3/6 126/3/6
f 126/3/6 124/3/6 127/3/6
f 127/3/6 124/3/6 128/3/6
f 128/3/6 124/3/6 129/3/6
f 129/3/6 124/3/6 130/3/6
f 130/3/6 124/3/6 131/3/6
f 131/3/6 124/3/6 132/3/6
f 123/3/6 125/3/6 133/3/6
f 125/2/6 126/2/6 133/2/6
f 126/3/6 127/3/6 134/3/6
f 133/2/6 126/2/6 134/2/6
f 134/3/6 127/3/6 135/3/6
f 135/3/6 127/3/6 136/3/6
f 127/2/6 128/2/6 137/2/6
f 136/3/6 127/3/6 137/3/6
f 128/3/6 129/3/6 138/3/6
f 137/2/6 128/2/6 138/2/6
f 129/2/6 130/2/6 139/2/6
f 138/3/6 129/3/6 139/3/6
f 130/3/6 131/3/6 140/3/6
f 139/2/6 130/2/6 140/2/6
f 140/3/6 131/3/6 141/3/6
f 141/3/6 131/3/6 142/3/6
f 131/2/6 132/2/6 143/2/6
f 142/3/6 131/3/6 143/3/6
f 132/3/6 124/3/6 144/3/6
f 143/2/6 132/2/6 144/2/6
f 144/3/6 124/3/6 145/3/6
f 145/3/6 124/3/6 146/3/6
f 146/3/6 124/3/6 147/3/6
f 147/3/6 124/3/6 148/3/6
f 135/2/6 136/2/6 149/2/6
f 133/3/6 134/3/6 149/3/6
f 134/3/6 135/3/6 149/3/6
f 136/3/6 137/3/6 150/3/6
f 149/2/6 136/2/6 150/2/6
f 137/3/6 138/3/6 150/3/6
f 138/3/6 139/3/6 150/3/6
f 139/3/6 140/3/6 150/3/6
f 150/3/6 140/3/6 151/3/6
f 151/3/6 140/3/6 152/3/6
f 140/2/6 141/2/6 153/2/6
f 152/3/6 140/3/6 153/3/6
f 141/3/6 142/3/6 154/3/6
f 153/2/6 141/2/6 154/2/6
f 142/2/6 143/2/6 155/2/6
f 154/3/6 142/3/6 155/3/6
f 144/3/6 145/3/6 156/3/6
f 155/2/6 143/2/6 156/2/6
f 143/3/6 144/3/6 156/3/6
f 145/2/6 146/2/6 157/2/6
f 156/3/6 145/3/6 157/3/6
f 146/3/6 147/3/6 158/3/6
f 157/2/6 146/2/6 158/2/6
f 147/2/6 148/2/6 159/2/6
f 158/3/6 147/3/6 159/3/6
f 148/3/6 124/3/6 160/3/6
f 159/2/6 148/2/6 160/2/6
f 150/3/6 151/3/6 161/3/6
f 149/3/6 150/3/6 161/3/6
f 161/3/6 151/3/6 162/3/6
f 151/2/6 152/2/6 163/2/6
f 162/3/6 151/3/6 163/3/6
f 153/3/6 154/3/6 164/3/6
f 163/2/6 152/2/6 164/2/6
f 152/3/6 153/3/6 164/3/6
f 158/3/6 159/3/6 164/3/6
f 159/3/6 160/3/6 164/3/6
f 155/3/6 156/3/6 164/3/6
f 154/3/6 155/3/6 164/3/6
f 156/3/6 157/3/6 164/3/6
f 157/3/6 158/3/6 164/3/6
f 164/3/6 160/3/6 165/3/6
f 165/3/6 160/3/6 166/3/6
f 166/3/6 160/3/6 167/3/6
f 167/3/6 160/3/6 168/3/6
f 122/2/6 123/2/6 169/2/6
f 149/3/6 161/3/6 169/3/6
f 123/3/6 133/3/6 169/3/6
f 133/3/6 149/3/6 169/3/6
f 169/3/6 161/3/6 170/3/6
f 170/3/6 161/3/6 171/3/6
f 171/3/6 161/3/6 172/3/6
f 161/2/6 162/2/6 173/2/6
f 172/3/6 161/3/6 173/3/6
f 162/3/6 163/3/6 174/3/6
f 173/2/6 162/2/6 174/2/6
f 163/3/6 164/3/6 174/3/6
f 164/3/6 165/3/6 174/3/6
f 174/3/6 165/3/6 175/3/6
f 175/3/6 165/3/6 176/3/6
f 176/3/6 165/3/6 177/3/6
f 177/3/6 165/3/6 178/3/6
f 178/3/6 165/3/6 179/3/6
f 179/3/6 165/3/6 180/3/6
f 165/2/6 166/2/6 181/2/6
f 180/3/6 165/3/6 181/3/6
f 166/3/6 167/3/6 182/3/6
f 181/2/6 166/2/6 182/2/6
f 167/2/6 168/2/6 183/2/6
f 182/3/6 167/3/6 183/3/6
f 168/3/6 160/3/6 184/3/6
f 183/2/6 168/2/6 184/2/6
f 169/2/6 170/2/6 185/2/6
f 122/2/6 169/2/6 185/2/6
f 170/3/6 171/3/6 186/3/6
f 185/2/6 170/2/6 186/2/6
f 171/2/6 172/2/6 187/2/6
f 186/3/6 171/3/6 187/3/6
f 172/3/6 173/3/6 188/3/6
f 187/2/6 172/2/6 188/2/6
f 173/3/6 174/3/6 188/3/6
f 174/3/6 175/3/6 188/3/6
f 175/2/6 176/2/6 189/2/6
f 188/3/6 175/3/6 189/3/6
f 176/3/6 177/3/6 190/3/6
f 189/2/6 176/2/6 190/2/6
f 177/2/6 178/2/6 191/2/6
f 190/3/6 177/3/6 191/3/6
f 178/3/6 179/3/6 192/3/6
f 191/2/6 178/2/6 192/2/6
f 179/2/6 180/2/6 193/2/6
f 192/3/6 179/3/6 193/3/6
f 182/3/6 183/3/6 194/3/6
f 193/2/6 180/2/6 194/2/6
f 181/3/6 182/3/6 194/3/6
f 180/3/6 181/3/6 194/3/6
f 183/3/6 184/3/6 194/3/6
f 194/3/6 184/3/6 195/3/6
f 184/3/6 160/3/6 196/3/6
f 195/3/6 184/3/6 196/3/6
f 160/3/6 124/3/6 197/3/6
f 196/3/6 160/3/6 197/3/6
f 192/3/6 193/3/6 198/3/6
f 186/3/6 187/3/6 198/3/6
f 188/3/6 189/3/6 198/3/6
f 193/3/6 194/3/6 198/3/6
f 190/3/6 191/3/6 198/3/6
f 189/3/6 190/3/6 198/3/6
f 194/2/6 195/2/6 198/2/6
f 187/3/6 188/3/6 198/3/6
f 185/3/6 186/3/6 198/3/6
f 191/3/6 192/3/6 198/3/6
f 195/3/6 196/3/6 199/3/6
f 198/2/6 195/2/6 199/2/6
f 196/2/6 197/2/6 200/2/6
f 199/3/6 196/3/6 200/3/6
f 197/3/6 124/3/6 201/3/6
f 200/2/6 197/2/6 201/2/6
f 107/3/6 108/3/6 202/3/6
f 108/2/6 109/2/6 203/2/6
f 202/3/6 108/3/6 203/3/6
f 109/3/6 110/3/6 204/3/6
f 203/2/6 109/2/6 204/2/6
f 110/2/6 111/2/6 205/2/6
f 204/3/6 110/3/6 205/3/6
f 111/3/6 112/3/6 206/3/6
f 205/2/6 111/2/6 206/2/6
f 112/2/6 113/2/6 207/2/6
f 206/3/6 112/3/6 207/3/6
f 113/3/6 114/3/6 208/3/6
f 207/2/6 113/2/6 208/2/6
f 114/2/6 115/2/6 209/2/6
f 208/3/6 114/3/6 209/3/6
f 115/3/6 116/3/6 210/3/6
f 209/2/6 115/2/6 210/2/6
f 116/2/6 117/2/6 211/2/6
f 210/3/6 116/3/6 211/3/6
f 117/3/6 118/3/6 212/3/6
f 211/2/6 117/2/6 212/2/6
f 118/2/6 119/2/6 213/2/6
f 212/3/6 118/3/6 213/3/6
f 119/3/6 120/3/6 214/3/6
f 213/2/6 119/2/6 214/2/6
f 120/2/6 121/2/6 215/2/6
f 214/3/6 120/3/6 215/3/6
f 121/3/6 122/3/6 216/3/6
f 215/2/6 121/2/6 216/2/6
f 122/2/6 185/2/6 217/2/6
f 216/3/6 122/3/6 217/3/6
f 199/3/6 200/3/6 218/3/6
f 217/2/6 185/2/6 218/2/6
f 198/3/6 199/3/6 218/3/6
f 200/3/6 201/3/6 218/3/6
f 185/3/6 198/3/6 218/3/6
f 201/3/6 124/3/6 219/3/6
f 218/3/6 201/3/6 219/3/6
f 220/1/6 221/1/6 222/1/6
f 222/1/6 221/1/6 223/1/6
f 224/3/6 225/3/6 226/3/6
f 226/3/6 225/3/6 227/3/6
f 228/3/6 229/3/6 230/3/6
f 230/3/6 229/3/6 231/3/6
