# MagicaVoxel @ Ephtracy

# group
g wires_elbow

# material
mtllib wires_elbow.mtl
usemtl palette

# normals
vn -1 0 0
vn 1 0 0
vn 0 0 1
vn 0 0 -1
vn 0 -1 0
vn 0 1 0

# texcoords
vt 0.892578 0.5
vt 0.923828 0.5
vt 0.943359 0.5
vt 0.958984 0.5
vt 0.974609 0.5
vt 0.978516 0.5
vt 0.994141 0.5

# verts
v -3 0 -0
v -3 0 -1
v -3 0 -2
v -3 0 -3
v -3 0 -4
v -3 4 -0
v -3 4 -1
v -3 5 5
v -3 5 1
v -3 5 -0
v -3 5 -1
v -3 5 -2
v -3 6 5
v -3 6 1
v -3 6 -0
v -3 6 -2
v -3 6 -3
v -3 7 5
v -3 7 -0
v -3 7 -1
v -3 7 -3
v -3 7 -4
v -3 8 5
v -3 8 -1
v -3 8 -2
v -3 9 5
v -3 9 -2
v -3 9 -4
v -2 0 1
v -2 0 -0
v -2 0 -4
v -2 0 -5
v -2 3 1
v -2 3 -0
v -2 4 5
v -2 4 2
v -2 4 1
v -2 4 -0
v -2 5 5
v -2 5 2
v -2 5 1
v -2 5 -0
v -2 7 -4
v -2 8 -4
v -2 8 -5
v -2 9 5
v -2 9 -2
v -2 9 -3
v -2 9 -4
v -2 10 5
v -2 10 -3
v -2 10 -5
v 1 0 -1
v 1 0 -3
v 1 6 5
v 1 6 -0
v 1 8 5
v 1 8 -0
v 1 9 -1
v 1 9 -3
v -1 0 -1
v -1 0 -3
v -1 6 5
v -1 6 -0
v -1 8 5
v -1 8 -0
v -1 9 -1
v -1 9 -3
v 2 0 1
v 2 0 -0
v 2 0 -4
v 2 0 -5
v 2 3 1
v 2 3 -0
v 2 4 5
v 2 4 2
v 2 4 1
v 2 4 -0
v 2 5 5
v 2 5 2
v 2 5 1
v 2 5 -0
v 2 7 -4
v 2 8 -4
v 2 8 -5
v 2 9 5
v 2 9 -2
v 2 9 -3
v 2 9 -4
v 2 10 5
v 2 10 -3
v 2 10 -5
v 3 0 -0
v 3 0 -1
v 3 0 -2
v 3 0 -3
v 3 0 -4
v 3 4 -0
v 3 4 -1
v 3 5 5
v 3 5 1
v 3 5 -0
v 3 5 -1
v 3 5 -2
v 3 6 5
v 3 6 1
v 3 6 -0
v 3 6 -2
v 3 6 -3
v 3 7 5
v 3 7 -0
v 3 7 -1
v 3 7 -3
v 3 7 -4
v 3 8 5
v 3 8 -1
v 3 8 -2
v 3 9 5
v 3 9 -2
v 3 9 -4
v -3 5 5
v -3 6 5
v -3 7 5
v -3 8 5
v -3 9 5
v -2 4 5
v -2 5 5
v -2 6 5
v -2 7 5
v -2 8 5
v -2 9 5
v -2 10 5
v -1 4 5
v -1 5 5
v -1 6 5
v -1 8 5
v -1 9 5
v -1 10 5
v 0 4 5
v 0 5 5
v 0 9 5
v 0 10 5
v 1 4 5
v 1 5 5
v 1 6 5
v 1 8 5
v 1 9 5
v 1 10 5
v 2 4 5
v 2 5 5
v 2 6 5
v 2 7 5
v 2 8 5
v 2 9 5
v 2 10 5
v 3 5 5
v 3 6 5
v 3 7 5
v 3 8 5
v 3 9 5
v -2 0 1
v -2 3 1
v -2 4 1
v -1 0 1
v -1 3 1
v 0 0 1
v 0 3 1
v 1 0 1
v 1 3 1
v 2 0 1
v 2 3 1
v 2 4 1
v -3 0 -0
v -3 4 -0
v -3 5 -0
v -2 0 -0
v -2 3 -0
v -2 4 -0
v -2 5 -0
v -1 6 -0
v -1 8 -0
v 1 6 -0
v 1 8 -0
v 2 0 -0
v 2 3 -0
v 2 4 -0
v 2 5 -0
v 3 0 -0
v 3 4 -0
v 3 5 -0
v -1 0 -3
v -1 9 -3
v 0 9 -3
v 1 0 -3
v 1 9 -3
v -1 0 -1
v -1 9 -1
v 0 9 -1
v 1 0 -1
v 1 9 -1
v -3 0 -4
v -3 7 -4
v -3 9 -4
v -2 0 -4
v -2 7 -4
v -2 8 -4
v -2 9 -4
v 2 0 -4
v 2 7 -4
v 2 8 -4
v 2 9 -4
v 3 0 -4
v 3 7 -4
v 3 9 -4
v -2 0 -5
v -2 8 -5
v -2 10 -5
v -1 0 -5
v -1 8 -5
v 0 0 -5
v 0 8 -5
v 1 0 -5
v 1 8 -5
v 2 0 -5
v 2 8 -5
v 2 10 -5
v -2 0 1
v -1 0 1
v 0 0 1
v 1 0 1
v 2 0 1
v -3 0 -0
v -2 0 -0
v -1 0 -0
v 0 0 -0
v 1 0 -0
v 2 0 -0
v 3 0 -0
v -3 0 -1
v -2 0 -1
v -1 0 -1
v 1 0 -1
v 2 0 -1
v 3 0 -1
v -3 0 -2
v -2 0 -2
v 2 0 -2
v 3 0 -2
v -3 0 -3
v -2 0 -3
v -1 0 -3
v 1 0 -3
v 2 0 -3
v 3 0 -3
v -3 0 -4
v -2 0 -4
v -1 0 -4
v 0 0 -4
v 1 0 -4
v 2 0 -4
v 3 0 -4
v -2 0 -5
v -1 0 -5
v 0 0 -5
v 1 0 -5
v 2 0 -5
v -2 4 5
v -1 4 5
v 0 4 5
v 1 4 5
v 2 4 5
v -2 4 2
v -1 4 2
v 0 4 2
v 1 4 2
v 2 4 2
v -2 4 1
v 2 4 1
v -3 5 5
v -2 5 5
v 2 5 5
v 3 5 5
v -2 5 2
v 2 5 2
v -3 5 1
v -2 5 1
v 2 5 1
v 3 5 1
v -3 5 -0
v -2 5 -0
v 2 5 -0
v 3 5 -0
v -1 8 5
v 1 8 5
v -1 8 -0
v 1 8 -0
v -1 9 -1
v 0 9 -1
v 1 9 -1
v -1 9 -3
v 0 9 -3
v 1 9 -3
v -1 6 5
v 1 6 5
v -1 6 -0
v 1 6 -0
v -3 9 5
v -2 9 5
v 2 9 5
v 3 9 5
v -3 9 -2
v -2 9 -2
v 2 9 -2
v 3 9 -2
v -2 9 -3
v 2 9 -3
v -3 9 -4
v -2 9 -4
v 2 9 -4
v 3 9 -4
v -2 10 5
v -1 10 5
v 0 10 5
v 1 10 5
v 2 10 5
v -2 10 -3
v -1 10 -3
v 0 10 -3
v 1 10 -3
v 2 10 -3
v -2 10 -5
v 2 10 -5

# faces
f 6/6/1 2/6/1 1/6/1
f 7/2/1 3/2/1 2/2/1
f 7/6/1 2/6/1 6/6/1
f 10/5/1 7/5/1 6/5/1
f 11/2/1 3/2/1 7/2/1
f 11/5/1 7/5/1 10/5/1
f 12/6/1 4/6/1 3/6/1
f 12/2/1 3/2/1 11/2/1
f 13/6/1 9/6/1 8/6/1
f 14/5/1 11/5/1 10/5/1
f 14/6/1 9/6/1 13/6/1
f 14/5/1 10/5/1 9/5/1
f 14/5/1 12/5/1 11/5/1
f 15/5/1 12/5/1 14/5/1
f 16/6/1 4/6/1 12/6/1
f 16/5/1 12/5/1 15/5/1
f 17/2/1 5/2/1 4/2/1
f 17/6/1 4/6/1 16/6/1
f 18/2/1 15/2/1 14/2/1
f 18/2/1 14/2/1 13/2/1
f 19/5/1 16/5/1 15/5/1
f 19/2/1 15/2/1 18/2/1
f 19/5/1 17/5/1 16/5/1
f 20/5/1 17/5/1 19/5/1
f 21/2/1 5/2/1 17/2/1
f 21/5/1 17/5/1 20/5/1
f 22/2/1 5/2/1 21/2/1
f 23/6/1 20/6/1 19/6/1
f 23/6/1 19/6/1 18/6/1
f 24/5/1 22/5/1 21/5/1
f 24/6/1 20/6/1 23/6/1
f 24/5/1 21/5/1 20/5/1
f 25/5/1 22/5/1 24/5/1
f 26/2/1 24/2/1 23/2/1
f 26/2/1 25/2/1 24/2/1
f 27/5/1 22/5/1 25/5/1
f 27/2/1 25/2/1 26/2/1
f 28/5/1 22/5/1 27/5/1
f 33/4/1 30/4/1 29/4/1
f 34/4/1 30/4/1 33/4/1
f 37/5/1 34/5/1 33/5/1
f 38/5/1 34/5/1 37/5/1
f 39/4/1 36/4/1 35/4/1
f 40/5/1 37/5/1 36/5/1
f 40/4/1 36/4/1 39/4/1
f 40/5/1 38/5/1 37/5/1
f 41/5/1 38/5/1 40/5/1
f 42/5/1 38/5/1 41/5/1
f 43/4/1 32/4/1 31/4/1
f 44/4/1 32/4/1 43/4/1
f 45/4/1 32/4/1 44/4/1
f 49/5/1 45/5/1 44/5/1
f 50/4/1 48/4/1 47/4/1
f 50/4/1 47/4/1 46/4/1
f 51/5/1 49/5/1 48/5/1
f 51/4/1 48/4/1 50/4/1
f 52/5/1 45/5/1 49/5/1
f 52/5/1 49/5/1 51/5/1
f 57/6/1 56/6/1 55/6/1
f 58/6/1 56/6/1 57/6/1
f 59/6/1 54/6/1 53/6/1
f 60/6/1 54/6/1 59/6/1
f 63/6/2 64/6/2 65/6/2
f 65/6/2 64/6/2 66/6/2
f 61/6/2 62/6/2 67/6/2
f 67/6/2 62/6/2 68/6/2
f 69/7/2 70/7/2 73/7/2
f 73/7/2 70/7/2 74/7/2
f 73/5/2 74/5/2 77/5/2
f 77/5/2 74/5/2 78/5/2
f 75/7/2 76/7/2 79/7/2
f 76/5/2 77/5/2 80/5/2
f 79/7/2 76/7/2 80/7/2
f 77/5/2 78/5/2 80/5/2
f 80/5/2 78/5/2 81/5/2
f 81/5/2 78/5/2 82/5/2
f 71/7/2 72/7/2 83/7/2
f 83/7/2 72/7/2 84/7/2
f 84/7/2 72/7/2 85/7/2
f 84/5/2 85/5/2 89/5/2
f 87/7/2 88/7/2 90/7/2
f 86/7/2 87/7/2 90/7/2
f 88/5/2 89/5/2 91/5/2
f 90/7/2 88/7/2 91/7/2
f 89/5/2 85/5/2 92/5/2
f 91/5/2 89/5/2 92/5/2
f 93/1/2 94/1/2 98/1/2
f 94/4/2 95/4/2 99/4/2
f 98/1/2 94/1/2 99/1/2
f 98/5/2 99/5/2 102/5/2
f 99/4/2 95/4/2 103/4/2
f 102/5/2 99/5/2 103/5/2
f 95/6/2 96/6/2 104/6/2
f 103/4/2 95/4/2 104/4/2
f 100/1/2 101/1/2 105/1/2
f 102/5/2 103/5/2 106/5/2
f 105/1/2 101/1/2 106/1/2
f 101/5/2 102/5/2 106/5/2
f 103/5/2 104/5/2 106/5/2
f 106/5/2 104/5/2 107/5/2
f 104/6/2 96/6/2 108/6/2
f 107/5/2 104/5/2 108/5/2
f 96/3/2 97/3/2 109/3/2
f 108/6/2 96/6/2 109/6/2
f 106/4/2 107/4/2 110/4/2
f 105/4/2 106/4/2 110/4/2
f 107/5/2 108/5/2 111/5/2
f 110/4/2 107/4/2 111/4/2
f 108/5/2 109/5/2 111/5/2
f 111/5/2 109/5/2 112/5/2
f 109/3/2 97/3/2 113/3/2
f 112/5/2 109/5/2 113/5/2
f 113/3/2 97/3/2 114/3/2
f 111/6/2 112/6/2 115/6/2
f 110/6/2 111/6/2 115/6/2
f 113/5/2 114/5/2 116/5/2
f 115/6/2 112/6/2 116/6/2
f 112/5/2 113/5/2 116/5/2
f 116/5/2 114/5/2 117/5/2
f 115/3/2 116/3/2 118/3/2
f 116/3/2 117/3/2 118/3/2
f 117/5/2 114/5/2 119/5/2
f 118/3/2 117/3/2 119/3/2
f 119/5/2 114/5/2 120/5/2
f 127/6/3 122/6/3 121/6/3
f 128/2/3 123/2/3 122/2/3
f 128/6/3 122/6/3 127/6/3
f 129/6/3 124/6/3 123/6/3
f 129/2/3 123/2/3 128/2/3
f 130/2/3 125/2/3 124/2/3
f 130/6/3 124/6/3 129/6/3
f 131/2/3 125/2/3 130/2/3
f 133/4/3 127/4/3 126/4/3
f 134/6/3 129/6/3 128/6/3
f 134/4/3 127/4/3 133/4/3
f 134/6/3 128/6/3 127/6/3
f 134/6/3 131/6/3 130/6/3
f 134/6/3 130/6/3 129/6/3
f 135/6/3 131/6/3 134/6/3
f 136/6/3 131/6/3 135/6/3
f 137/4/3 132/4/3 131/4/3
f 137/6/3 131/6/3 136/6/3
f 138/4/3 132/4/3 137/4/3
f 139/2/3 134/2/3 133/2/3
f 140/6/3 135/6/3 134/6/3
f 140/2/3 134/2/3 139/2/3
f 141/2/3 138/2/3 137/2/3
f 141/6/3 137/6/3 136/6/3
f 142/2/3 138/2/3 141/2/3
f 143/4/3 140/4/3 139/4/3
f 144/6/3 135/6/3 140/6/3
f 144/4/3 140/4/3 143/4/3
f 145/6/3 135/6/3 144/6/3
f 146/6/3 141/6/3 136/6/3
f 147/4/3 142/4/3 141/4/3
f 147/6/3 141/6/3 146/6/3
f 148/4/3 142/4/3 147/4/3
f 149/7/3 144/7/3 143/7/3
f 150/6/3 145/6/3 144/6/3
f 150/7/3 144/7/3 149/7/3
f 150/6/3 146/6/3 145/6/3
f 150/6/3 147/6/3 146/6/3
f 151/6/3 147/6/3 150/6/3
f 152/6/3 147/6/3 151/6/3
f 153/6/3 147/6/3 152/6/3
f 154/7/3 148/7/3 147/7/3
f 154/6/3 147/6/3 153/6/3
f 155/7/3 148/7/3 154/7/3
f 156/1/3 151/1/3 150/1/3
f 157/4/3 152/4/3 151/4/3
f 157/1/3 151/1/3 156/1/3
f 158/6/3 153/6/3 152/6/3
f 158/4/3 152/4/3 157/4/3
f 159/3/3 154/3/3 153/3/3
f 159/6/3 153/6/3 158/6/3
f 160/3/3 154/3/3 159/3/3
f 164/4/3 162/4/3 161/4/3
f 165/5/3 163/5/3 162/5/3
f 165/4/3 162/4/3 164/4/3
f 166/2/3 165/2/3 164/2/3
f 167/5/3 163/5/3 165/5/3
f 167/2/3 165/2/3 166/2/3
f 168/4/3 167/4/3 166/4/3
f 169/5/3 163/5/3 167/5/3
f 169/4/3 167/4/3 168/4/3
f 170/7/3 169/7/3 168/7/3
f 171/5/3 163/5/3 169/5/3
f 171/7/3 169/7/3 170/7/3
f 172/5/3 163/5/3 171/5/3
f 176/6/3 174/6/3 173/6/3
f 177/6/3 174/6/3 176/6/3
f 178/5/3 175/5/3 174/5/3
f 178/6/3 174/6/3 177/6/3
f 179/5/3 175/5/3 178/5/3
f 182/6/3 181/6/3 180/6/3
f 183/6/3 181/6/3 182/6/3
f 188/1/3 185/1/3 184/1/3
f 188/1/3 186/1/3 185/1/3
f 189/5/3 187/5/3 186/5/3
f 189/1/3 186/1/3 188/1/3
f 190/5/3 187/5/3 189/5/3
f 193/6/3 192/6/3 191/6/3
f 194/6/3 193/6/3 191/6/3
f 195/6/3 193/6/3 194/6/3
f 196/6/4 197/6/4 198/6/4
f 196/6/4 198/6/4 199/6/4
f 199/6/4 198/6/4 200/6/4
f 201/2/4 202/2/4 204/2/4
f 202/5/4 203/5/4 205/5/4
f 204/2/4 202/2/4 205/2/4
f 205/5/4 203/5/4 206/5/4
f 206/5/4 203/5/4 207/5/4
f 208/3/4 209/3/4 212/3/4
f 210/5/4 211/5/4 213/5/4
f 212/3/4 209/3/4 213/3/4
f 209/5/4 210/5/4 213/5/4
f 213/5/4 211/5/4 214/5/4
f 215/4/4 216/4/4 218/4/4
f 216/5/4 217/5/4 219/5/4
f 218/4/4 216/4/4 219/4/4
f 218/2/4 219/2/4 220/2/4
f 219/5/4 217/5/4 221/5/4
f 220/2/4 219/2/4 221/2/4
f 220/4/4 221/4/4 222/4/4
f 221/5/4 217/5/4 223/5/4
f 222/4/4 221/4/4 223/4/4
f 222/7/4 223/7/4 224/7/4
f 223/5/4 217/5/4 225/5/4
f 224/7/4 223/7/4 225/7/4
f 225/5/4 217/5/4 226/5/4
f 233/4/5 228/4/5 227/4/5
f 234/2/5 229/2/5 228/2/5
f 234/4/5 228/4/5 233/4/5
f 235/4/5 230/4/5 229/4/5
f 235/2/5 229/2/5 234/2/5
f 236/7/5 231/7/5 230/7/5
f 236/4/5 230/4/5 235/4/5
f 237/7/5 231/7/5 236/7/5
f 239/6/5 235/6/5 234/6/5
f 239/6/5 233/6/5 232/6/5
f 239/6/5 237/6/5 236/6/5
f 239/6/5 236/6/5 235/6/5
f 239/6/5 234/6/5 233/6/5
f 240/6/5 237/6/5 239/6/5
f 241/6/5 237/6/5 240/6/5
f 242/6/5 237/6/5 241/6/5
f 243/1/5 238/1/5 237/1/5
f 243/6/5 237/6/5 242/6/5
f 244/1/5 238/1/5 243/1/5
f 245/2/5 240/2/5 239/2/5
f 246/6/5 241/6/5 240/6/5
f 246/2/5 240/2/5 245/2/5
f 247/4/5 244/4/5 243/4/5
f 247/6/5 243/6/5 242/6/5
f 248/4/5 244/4/5 247/4/5
f 249/6/5 246/6/5 245/6/5
f 250/6/5 241/6/5 246/6/5
f 250/6/5 246/6/5 249/6/5
f 251/6/5 241/6/5 250/6/5
f 252/6/5 247/6/5 242/6/5
f 252/6/5 248/6/5 247/6/5
f 253/6/5 248/6/5 252/6/5
f 254/6/5 248/6/5 253/6/5
f 255/2/5 250/2/5 249/2/5
f 256/6/5 251/6/5 250/6/5
f 256/2/5 250/2/5 255/2/5
f 256/6/5 252/6/5 251/6/5
f 256/6/5 253/6/5 252/6/5
f 257/6/5 253/6/5 256/6/5
f 258/6/5 253/6/5 257/6/5
f 259/6/5 253/6/5 258/6/5
f 260/3/5 254/3/5 253/3/5
f 260/6/5 253/6/5 259/6/5
f 261/3/5 254/3/5 260/3/5
f 262/4/5 257/4/5 256/4/5
f 263/2/5 258/2/5 257/2/5
f 263/4/5 257/4/5 262/4/5
f 264/4/5 259/4/5 258/4/5
f 264/2/5 258/2/5 263/2/5
f 265/7/5 260/7/5 259/7/5
f 265/4/5 259/4/5 264/4/5
f 266/7/5 260/7/5 265/7/5
f 272/4/5 268/4/5 267/4/5
f 273/2/5 269/2/5 268/2/5
f 273/4/5 268/4/5 272/4/5
f 274/4/5 270/4/5 269/4/5
f 274/2/5 269/2/5 273/2/5
f 275/7/5 271/7/5 270/7/5
f 275/4/5 270/4/5 274/4/5
f 276/7/5 271/7/5 275/7/5
f 277/5/5 274/5/5 273/5/5
f 277/5/5 273/5/5 272/5/5
f 277/5/5 276/5/5 275/5/5
f 277/5/5 275/5/5 274/5/5
f 278/5/5 276/5/5 277/5/5
f 283/6/5 280/6/5 279/6/5
f 284/1/5 282/1/5 281/1/5
f 285/6/5 283/6/5 279/6/5
f 286/6/5 283/6/5 285/6/5
f 287/1/5 282/1/5 284/1/5
f 288/1/5 282/1/5 287/1/5
f 289/5/5 286/5/5 285/5/5
f 290/5/5 286/5/5 289/5/5
f 291/5/5 288/5/5 287/5/5
f 292/5/5 288/5/5 291/5/5
f 295/6/5 294/6/5 293/6/5
f 296/6/5 294/6/5 295/6/5
f 300/2/5 298/2/5 297/2/5
f 301/4/5 299/4/5 298/4/5
f 301/2/5 298/2/5 300/2/5
f 302/4/5 299/4/5 301/4/5
f 303/6/6 304/6/6 305/6/6
f 305/6/6 304/6/6 306/6/6
f 307/2/6 308/2/6 311/2/6
f 311/2/6 308/2/6 312/2/6
f 309/3/6 310/3/6 313/3/6
f 313/3/6 310/3/6 314/3/6
f 311/5/6 312/5/6 315/5/6
f 313/5/6 314/5/6 316/5/6
f 311/5/6 315/5/6 317/5/6
f 317/5/6 315/5/6 318/5/6
f 316/5/6 314/5/6 319/5/6
f 319/5/6 314/5/6 320/5/6
f 321/4/6 322/4/6 326/4/6
f 322/2/6 323/2/6 327/2/6
f 326/4/6 322/4/6 327/4/6
f 323/4/6 324/4/6 328/4/6
f 327/2/6 323/2/6 328/2/6
f 324/7/6 325/7/6 329/7/6
f 328/4/6 324/4/6 329/4/6
f 329/7/6 325/7/6 330/7/6
f 327/5/6 328/5/6 331/5/6
f 326/5/6 327/5/6 331/5/6
f 329/5/6 330/5/6 331/5/6
f 328/5/6 329/5/6 331/5/6
f 331/5/6 330/5/6 332/5/6
