# MagicaVoxel @ Ephtracy

# group
g wires

# material
mtllib wires.mtl
usemtl palette

# normals
vn -1 0 0
vn 1 0 0
vn 0 0 1
vn 0 0 -1
vn 0 -1 0
vn 0 1 0

# texcoords
vt 0.892578 0.5
vt 0.923828 0.5
vt 0.943359 0.5
vt 0.958984 0.5
vt 0.978516 0.5
vt 0.994141 0.5

# verts
v -3 0 2
v -3 0 1
v -3 0 -0
v -3 0 -1
v -3 0 -2
v -3 10 2
v -3 10 1
v -3 10 -0
v -3 10 -1
v -3 10 -2
v -2 0 3
v -2 0 2
v -2 0 -2
v -2 0 -3
v -2 10 3
v -2 10 2
v -2 10 -2
v -2 10 -3
v 1 0 1
v 1 0 -1
v 1 10 1
v 1 10 -1
v -1 0 1
v -1 0 -1
v -1 10 1
v -1 10 -1
v 2 0 3
v 2 0 2
v 2 0 -2
v 2 0 -3
v 2 10 3
v 2 10 2
v 2 10 -2
v 2 10 -3
v 3 0 2
v 3 0 1
v 3 0 -0
v 3 0 -1
v 3 0 -2
v 3 10 2
v 3 10 1
v 3 10 -0
v 3 10 -1
v 3 10 -2
v -2 0 3
v -2 10 3
v -1 0 3
v -1 10 3
v 0 0 3
v 0 10 3
v 1 0 3
v 1 10 3
v 2 0 3
v 2 10 3
v -3 0 2
v -3 10 2
v -2 0 2
v -2 10 2
v 2 0 2
v 2 10 2
v 3 0 2
v 3 10 2
v -1 0 -1
v -1 10 -1
v 1 0 -1
v 1 10 -1
v -1 0 1
v -1 10 1
v 1 0 1
v 1 10 1
v -3 0 -2
v -3 10 -2
v -2 0 -2
v -2 10 -2
v 2 0 -2
v 2 10 -2
v 3 0 -2
v 3 10 -2
v -2 0 -3
v -2 10 -3
v -1 0 -3
v -1 10 -3
v 0 0 -3
v 0 10 -3
v 1 0 -3
v 1 10 -3
v 2 0 -3
v 2 10 -3
v -2 0 3
v -1 0 3
v 0 0 3
v 1 0 3
v 2 0 3
v -3 0 2
v -2 0 2
v -1 0 2
v 0 0 2
v 1 0 2
v 2 0 2
v 3 0 2
v -3 0 1
v -2 0 1
v -1 0 1
v 1 0 1
v 2 0 1
v 3 0 1
v -3 0 -0
v -2 0 -0
v 2 0 -0
v 3 0 -0
v -3 0 -1
v -2 0 -1
v -1 0 -1
v 1 0 -1
v 2 0 -1
v 3 0 -1
v -3 0 -2
v -2 0 -2
v -1 0 -2
v 0 0 -2
v 1 0 -2
v 2 0 -2
v 3 0 -2
v -2 0 -3
v -1 0 -3
v 0 0 -3
v 1 0 -3
v 2 0 -3
v -2 10 3
v -1 10 3
v 0 10 3
v 1 10 3
v 2 10 3
v -3 10 2
v -2 10 2
v -1 10 2
v 0 10 2
v 1 10 2
v 2 10 2
v 3 10 2
v -3 10 1
v -2 10 1
v -1 10 1
v 1 10 1
v 2 10 1
v 3 10 1
v -3 10 -0
v -2 10 -0
v 2 10 -0
v 3 10 -0
v -3 10 -1
v -2 10 -1
v -1 10 -1
v 1 10 -1
v 2 10 -1
v 3 10 -1
v -3 10 -2
v -2 10 -2
v -1 10 -2
v 0 10 -2
v 1 10 -2
v 2 10 -2
v 3 10 -2
v -2 10 -3
v -1 10 -3
v 0 10 -3
v 1 10 -3
v 2 10 -3

# faces
f 6/5/1 2/5/1 1/5/1
f 7/2/1 3/2/1 2/2/1
f 7/5/1 2/5/1 6/5/1
f 8/5/1 4/5/1 3/5/1
f 8/2/1 3/2/1 7/2/1
f 9/2/1 5/2/1 4/2/1
f 9/5/1 4/5/1 8/5/1
f 10/2/1 5/2/1 9/2/1
f 15/4/1 12/4/1 11/4/1
f 16/4/1 12/4/1 15/4/1
f 17/4/1 14/4/1 13/4/1
f 18/4/1 14/4/1 17/4/1
f 21/5/1 20/5/1 19/5/1
f 22/5/1 20/5/1 21/5/1
f 23/5/2 24/5/2 25/5/2
f 25/5/2 24/5/2 26/5/2
f 27/6/2 28/6/2 31/6/2
f 31/6/2 28/6/2 32/6/2
f 29/6/2 30/6/2 33/6/2
f 33/6/2 30/6/2 34/6/2
f 35/1/2 36/1/2 40/1/2
f 36/4/2 37/4/2 41/4/2
f 40/1/2 36/1/2 41/1/2
f 37/5/2 38/5/2 42/5/2
f 41/4/2 37/4/2 42/4/2
f 38/3/2 39/3/2 43/3/2
f 42/5/2 38/5/2 43/5/2
f 43/3/2 39/3/2 44/3/2
f 47/4/3 46/4/3 45/4/3
f 48/4/3 46/4/3 47/4/3
f 49/2/3 48/2/3 47/2/3
f 50/2/3 48/2/3 49/2/3
f 51/4/3 50/4/3 49/4/3
f 52/4/3 50/4/3 51/4/3
f 53/6/3 52/6/3 51/6/3
f 54/6/3 52/6/3 53/6/3
f 57/5/3 56/5/3 55/5/3
f 58/5/3 56/5/3 57/5/3
f 61/1/3 60/1/3 59/1/3
f 62/1/3 60/1/3 61/1/3
f 65/5/3 64/5/3 63/5/3
f 66/5/3 64/5/3 65/5/3
f 67/5/4 68/5/4 69/5/4
f 69/5/4 68/5/4 70/5/4
f 71/2/4 72/2/4 73/2/4
f 73/2/4 72/2/4 74/2/4
f 75/3/4 76/3/4 77/3/4
f 77/3/4 76/3/4 78/3/4
f 79/4/4 80/4/4 81/4/4
f 81/4/4 80/4/4 82/4/4
f 81/2/4 82/2/4 83/2/4
f 83/2/4 82/2/4 84/2/4
f 83/4/4 84/4/4 85/4/4
f 85/4/4 84/4/4 86/4/4
f 85/6/4 86/6/4 87/6/4
f 87/6/4 86/6/4 88/6/4
f 95/4/5 90/4/5 89/4/5
f 96/2/5 91/2/5 90/2/5
f 96/4/5 90/4/5 95/4/5
f 97/4/5 92/4/5 91/4/5
f 97/2/5 91/2/5 96/2/5
f 98/6/5 93/6/5 92/6/5
f 98/4/5 92/4/5 97/4/5
f 99/6/5 93/6/5 98/6/5
f 101/5/5 97/5/5 96/5/5
f 101/5/5 95/5/5 94/5/5
f 101/5/5 99/5/5 98/5/5
f 101/5/5 98/5/5 97/5/5
f 101/5/5 96/5/5 95/5/5
f 102/5/5 99/5/5 101/5/5
f 103/5/5 99/5/5 102/5/5
f 104/5/5 99/5/5 103/5/5
f 105/1/5 100/1/5 99/1/5
f 105/5/5 99/5/5 104/5/5
f 106/1/5 100/1/5 105/1/5
f 107/2/5 102/2/5 101/2/5
f 108/5/5 103/5/5 102/5/5
f 108/2/5 102/2/5 107/2/5
f 109/4/5 106/4/5 105/4/5
f 109/5/5 105/5/5 104/5/5
f 110/4/5 106/4/5 109/4/5
f 111/5/5 108/5/5 107/5/5
f 112/5/5 103/5/5 108/5/5
f 112/5/5 108/5/5 111/5/5
f 113/5/5 103/5/5 112/5/5
f 114/5/5 109/5/5 104/5/5
f 114/5/5 110/5/5 109/5/5
f 115/5/5 110/5/5 114/5/5
f 116/5/5 110/5/5 115/5/5
f 117/2/5 112/2/5 111/2/5
f 118/5/5 113/5/5 112/5/5
f 118/2/5 112/2/5 117/2/5
f 118/5/5 114/5/5 113/5/5
f 118/5/5 115/5/5 114/5/5
f 119/5/5 115/5/5 118/5/5
f 120/5/5 115/5/5 119/5/5
f 121/5/5 115/5/5 120/5/5
f 122/3/5 116/3/5 115/3/5
f 122/5/5 115/5/5 121/5/5
f 123/3/5 116/3/5 122/3/5
f 124/4/5 119/4/5 118/4/5
f 125/2/5 120/2/5 119/2/5
f 125/4/5 119/4/5 124/4/5
f 126/4/5 121/4/5 120/4/5
f 126/2/5 120/2/5 125/2/5
f 127/6/5 122/6/5 121/6/5
f 127/4/5 121/4/5 126/4/5
f 128/6/5 122/6/5 127/6/5
f 129/4/6 130/4/6 135/4/6
f 130/2/6 131/2/6 136/2/6
f 135/4/6 130/4/6 136/4/6
f 131/4/6 132/4/6 137/4/6
f 136/2/6 131/2/6 137/2/6
f 132/6/6 133/6/6 138/6/6
f 137/4/6 132/4/6 138/4/6
f 138/6/6 133/6/6 139/6/6
f 136/5/6 137/5/6 141/5/6
f 134/5/6 135/5/6 141/5/6
f 138/5/6 139/5/6 141/5/6
f 137/5/6 138/5/6 141/5/6
f 135/5/6 136/5/6 141/5/6
f 141/5/6 139/5/6 142/5/6
f 142/5/6 139/5/6 143/5/6
f 143/5/6 139/5/6 144/5/6
f 139/1/6 140/1/6 145/1/6
f 144/5/6 139/5/6 145/5/6
f 145/1/6 140/1/6 146/1/6
f 141/2/6 142/2/6 147/2/6
f 142/5/6 143/5/6 148/5/6
f 147/2/6 142/2/6 148/2/6
f 145/4/6 146/4/6 149/4/6
f 144/5/6 145/5/6 149/5/6
f 149/4/6 146/4/6 150/4/6
f 147/5/6 148/5/6 151/5/6
f 148/5/6 143/5/6 152/5/6
f 151/5/6 148/5/6 152/5/6
f 152/5/6 143/5/6 153/5/6
f 144/5/6 149/5/6 154/5/6
f 149/5/6 150/5/6 154/5/6
f 154/5/6 150/5/6 155/5/6
f 155/5/6 150/5/6 156/5/6
f 151/2/6 152/2/6 157/2/6
f 152/5/6 153/5/6 158/5/6
f 157/2/6 152/2/6 158/2/6
f 153/5/6 154/5/6 158/5/6
f 154/5/6 155/5/6 158/5/6
f 158/5/6 155/5/6 159/5/6
f 159/5/6 155/5/6 160/5/6
f 160/5/6 155/5/6 161/5/6
f 155/3/6 156/3/6 162/3/6
f 161/5/6 155/5/6 162/5/6
f 162/3/6 156/3/6 163/3/6
f 158/4/6 159/4/6 164/4/6
f 159/2/6 160/2/6 165/2/6
f 164/4/6 159/4/6 165/4/6
f 160/4/6 161/4/6 166/4/6
f 165/2/6 160/2/6 166/2/6
f 161/6/6 162/6/6 167/6/6
f 166/4/6 161/4/6 167/4/6
f 167/6/6 162/6/6 168/6/6
