# MagicaVoxel @ Ephtracy

# group
g drawer_V1

# material
mtllib drawer_V1.mtl
usemtl palette

# normals
vn -1 0 0
vn 1 0 0
vn 0 0 1
vn 0 0 -1
vn 0 -1 0
vn 0 1 0

# texcoords
vt 0.537109 0.5

# verts
v -15 5 15
v -15 5 -16
v -15 33 15
v -15 33 -16
v -14 3 14
v -14 3 13
v -14 3 -14
v -14 3 -15
v -14 5 14
v -14 5 13
v -14 5 -14
v -14 5 -15
v -13 7 15
v -13 7 14
v -13 13 15
v -13 13 14
v -13 13 13
v -13 14 14
v -13 14 13
v -13 15 14
v -13 15 13
v -13 16 15
v -13 16 14
v -13 16 13
v -13 22 15
v -13 22 14
v -13 24 14
v -13 24 13
v -13 25 15
v -13 25 14
v -13 25 13
v -13 31 15
v -13 31 14
v -13 31 13
v -13 32 14
v -13 32 13
v -3 8 16
v -3 8 15
v -3 9 16
v -3 9 15
v -3 17 16
v -3 17 15
v -3 18 16
v -3 18 15
v -3 27 16
v -3 27 15
v -3 28 16
v -3 28 15
v 15 3 14
v 15 3 13
v 15 3 -14
v 15 3 -15
v 15 5 14
v 15 5 13
v 15 5 -14
v 15 5 -15
v 16 6 15
v 16 6 13
v 16 7 14
v 16 7 13
v 16 13 14
v 16 13 13
v 16 14 15
v 16 14 13
v 16 15 15
v 16 15 13
v 16 16 14
v 16 16 13
v 16 22 14
v 16 22 13
v 16 23 15
v 16 23 13
v 16 24 15
v 16 24 13
v 16 25 14
v 16 25 13
v 16 31 14
v 16 31 13
v 16 32 15
v 16 32 13
v -14 6 15
v -14 6 14
v -14 13 14
v -14 13 13
v -14 14 15
v -14 14 13
v -14 15 15
v -14 15 13
v -14 16 14
v -14 16 13
v -14 23 15
v -14 23 14
v -14 24 15
v -14 24 13
v -14 25 14
v -14 25 13
v -14 31 14
v -14 31 13
v -14 32 15
v -14 32 13
v -13 3 14
v -13 3 13
v -13 3 -14
v -13 3 -15
v -13 5 14
v -13 5 13
v -13 5 -14
v -13 5 -15
v 5 8 16
v 5 8 15
v 5 9 16
v 5 9 15
v 5 17 16
v 5 17 15
v 5 18 16
v 5 18 15
v 5 27 16
v 5 27 15
v 5 28 16
v 5 28 15
v 15 6 14
v 15 6 13
v 15 7 15
v 15 7 14
v 15 7 13
v 15 13 15
v 15 13 14
v 15 13 13
v 15 14 14
v 15 14 13
v 15 15 14
v 15 15 13
v 15 16 15
v 15 16 14
v 15 16 13
v 15 22 15
v 15 22 14
v 15 22 13
v 15 23 14
v 15 23 13
v 15 24 14
v 15 24 13
v 15 25 15
v 15 25 14
v 15 25 13
v 15 31 15
v 15 31 14
v 15 31 13
v 15 32 14
v 15 32 13
v 16 3 14
v 16 3 13
v 16 3 -14
v 16 3 -15
v 16 5 14
v 16 5 13
v 16 5 -14
v 16 5 -15
v 17 5 15
v 17 5 -16
v 17 33 15
v 17 33 -16
v -3 8 16
v -3 9 16
v -3 17 16
v -3 18 16
v -3 27 16
v -3 28 16
v 5 8 16
v 5 9 16
v 5 17 16
v 5 18 16
v 5 27 16
v 5 28 16
v -15 5 15
v -15 33 15
v -14 6 15
v -14 14 15
v -14 15 15
v -14 23 15
v -14 24 15
v -14 32 15
v -13 7 15
v -13 13 15
v -13 16 15
v -13 22 15
v -13 25 15
v -13 31 15
v -3 8 15
v -3 9 15
v -3 17 15
v -3 18 15
v -3 27 15
v -3 28 15
v 5 8 15
v 5 9 15
v 5 17 15
v 5 18 15
v 5 27 15
v 5 28 15
v 15 7 15
v 15 13 15
v 15 16 15
v 15 22 15
v 15 25 15
v 15 31 15
v 16 6 15
v 16 14 15
v 16 15 15
v 16 23 15
v 16 24 15
v 16 32 15
v 17 5 15
v 17 33 15
v -14 3 14
v -14 5 14
v -14 6 14
v -14 13 14
v -14 16 14
v -14 23 14
v -14 25 14
v -14 31 14
v -13 3 14
v -13 5 14
v -13 7 14
v -13 13 14
v -13 14 14
v -13 15 14
v -13 16 14
v -13 22 14
v -13 24 14
v -13 25 14
v -13 31 14
v -13 32 14
v 15 3 14
v 15 5 14
v 15 6 14
v 15 7 14
v 15 13 14
v 15 14 14
v 15 15 14
v 15 16 14
v 15 22 14
v 15 23 14
v 15 24 14
v 15 25 14
v 15 31 14
v 15 32 14
v 16 3 14
v 16 5 14
v 16 7 14
v 16 13 14
v 16 16 14
v 16 22 14
v 16 25 14
v 16 31 14
v -14 13 13
v -14 14 13
v -14 15 13
v -14 16 13
v -14 24 13
v -14 25 13
v -14 31 13
v -14 32 13
v -13 13 13
v -13 14 13
v -13 15 13
v -13 16 13
v -13 24 13
v -13 25 13
v -13 31 13
v -13 32 13
v 15 6 13
v 15 7 13
v 15 13 13
v 15 14 13
v 15 15 13
v 15 16 13
v 15 22 13
v 15 23 13
v 15 24 13
v 15 25 13
v 15 31 13
v 15 32 13
v 16 6 13
v 16 7 13
v 16 13 13
v 16 14 13
v 16 15 13
v 16 16 13
v 16 22 13
v 16 23 13
v 16 24 13
v 16 25 13
v 16 31 13
v 16 32 13
v -14 3 -14
v -14 5 -14
v -13 3 -14
v -13 5 -14
v 15 3 -14
v 15 5 -14
v 16 3 -14
v 16 5 -14
v -14 3 13
v -14 5 13
v -13 3 13
v -13 5 13
v 15 3 13
v 15 5 13
v 16 3 13
v 16 5 13
v -14 3 -15
v -14 5 -15
v -13 3 -15
v -13 5 -15
v 15 3 -15
v 15 5 -15
v 16 3 -15
v 16 5 -15
v -15 5 -16
v -15 33 -16
v 17 5 -16
v 17 33 -16
v -14 3 14
v -13 3 14
v 15 3 14
v 16 3 14
v -14 3 13
v -13 3 13
v 15 3 13
v 16 3 13
v -14 3 -14
v -13 3 -14
v 15 3 -14
v 16 3 -14
v -14 3 -15
v -13 3 -15
v 15 3 -15
v 16 3 -15
v -15 5 15
v 17 5 15
v -14 5 14
v -13 5 14
v 15 5 14
v 16 5 14
v -14 5 13
v -13 5 13
v 15 5 13
v 16 5 13
v -14 5 -14
v -13 5 -14
v 15 5 -14
v 16 5 -14
v -14 5 -15
v -13 5 -15
v 15 5 -15
v 16 5 -15
v -15 5 -16
v 17 5 -16
v -13 7 15
v 15 7 15
v -13 7 14
v 15 7 14
v 16 7 14
v 15 7 13
v 16 7 13
v -3 8 16
v 5 8 16
v -3 8 15
v 5 8 15
v -14 14 15
v 16 14 15
v -13 14 14
v 15 14 14
v -14 14 13
v -13 14 13
v 15 14 13
v 16 14 13
v -13 16 15
v 15 16 15
v -14 16 14
v -13 16 14
v 15 16 14
v 16 16 14
v -14 16 13
v -13 16 13
v 15 16 13
v 16 16 13
v -3 17 16
v 5 17 16
v -3 17 15
v 5 17 15
v -14 23 15
v 16 23 15
v -14 23 14
v 15 23 14
v 15 23 13
v 16 23 13
v -13 25 15
v 15 25 15
v -14 25 14
v -13 25 14
v 15 25 14
v 16 25 14
v -14 25 13
v -13 25 13
v 15 25 13
v 16 25 13
v -3 27 16
v 5 27 16
v -3 27 15
v 5 27 15
v -14 32 15
v 16 32 15
v -13 32 14
v 15 32 14
v -14 32 13
v -13 32 13
v 15 32 13
v 16 32 13
v -14 6 15
v 16 6 15
v -14 6 14
v 15 6 14
v 15 6 13
v 16 6 13
v -3 9 16
v 5 9 16
v -3 9 15
v 5 9 15
v -13 13 15
v 15 13 15
v -14 13 14
v -13 13 14
v 15 13 14
v 16 13 14
v -14 13 13
v -13 13 13
v 15 13 13
v 16 13 13
v -14 15 15
v 16 15 15
v -13 15 14
v 15 15 14
v -14 15 13
v -13 15 13
v 15 15 13
v 16 15 13
v -3 18 16
v 5 18 16
v -3 18 15
v 5 18 15
v -13 22 15
v 15 22 15
v -13 22 14
v 15 22 14
v 16 22 14
v 15 22 13
v 16 22 13
v -14 24 15
v 16 24 15
v -13 24 14
v 15 24 14
v -14 24 13
v -13 24 13
v 15 24 13
v 16 24 13
v -3 28 16
v 5 28 16
v -3 28 15
v 5 28 15
v -13 31 15
v 15 31 15
v -14 31 14
v -13 31 14
v 15 31 14
v 16 31 14
v -14 31 13
v -13 31 13
v 15 31 13
v 16 31 13
v -15 33 15
v 17 33 15
v -15 33 -16
v 17 33 -16

# faces
f 3/1/1 2/1/1 1/1/1
f 4/1/1 2/1/1 3/1/1
f 9/1/1 6/1/1 5/1/1
f 10/1/1 6/1/1 9/1/1
f 11/1/1 8/1/1 7/1/1
f 12/1/1 8/1/1 11/1/1
f 15/1/1 14/1/1 13/1/1
f 16/1/1 14/1/1 15/1/1
f 18/1/1 17/1/1 16/1/1
f 19/1/1 17/1/1 18/1/1
f 23/1/1 21/1/1 20/1/1
f 24/1/1 21/1/1 23/1/1
f 25/1/1 23/1/1 22/1/1
f 26/1/1 23/1/1 25/1/1
f 30/1/1 28/1/1 27/1/1
f 31/1/1 28/1/1 30/1/1
f 32/1/1 30/1/1 29/1/1
f 33/1/1 30/1/1 32/1/1
f 35/1/1 34/1/1 33/1/1
f 36/1/1 34/1/1 35/1/1
f 39/1/1 38/1/1 37/1/1
f 40/1/1 38/1/1 39/1/1
f 43/1/1 42/1/1 41/1/1
f 44/1/1 42/1/1 43/1/1
f 47/1/1 46/1/1 45/1/1
f 48/1/1 46/1/1 47/1/1
f 53/1/1 50/1/1 49/1/1
f 54/1/1 50/1/1 53/1/1
f 55/1/1 52/1/1 51/1/1
f 56/1/1 52/1/1 55/1/1
f 59/1/1 58/1/1 57/1/1
f 60/1/1 58/1/1 59/1/1
f 61/1/1 59/1/1 57/1/1
f 63/1/1 61/1/1 57/1/1
f 63/1/1 62/1/1 61/1/1
f 64/1/1 62/1/1 63/1/1
f 67/1/1 66/1/1 65/1/1
f 68/1/1 66/1/1 67/1/1
f 69/1/1 67/1/1 65/1/1
f 71/1/1 69/1/1 65/1/1
f 71/1/1 70/1/1 69/1/1
f 72/1/1 70/1/1 71/1/1
f 75/1/1 74/1/1 73/1/1
f 76/1/1 74/1/1 75/1/1
f 77/1/1 75/1/1 73/1/1
f 79/1/1 77/1/1 73/1/1
f 79/1/1 78/1/1 77/1/1
f 80/1/1 78/1/1 79/1/1
f 81/1/2 82/1/2 83/1/2
f 81/1/2 83/1/2 85/1/2
f 83/1/2 84/1/2 85/1/2
f 85/1/2 84/1/2 86/1/2
f 87/1/2 88/1/2 89/1/2
f 89/1/2 88/1/2 90/1/2
f 87/1/2 89/1/2 91/1/2
f 91/1/2 89/1/2 92/1/2
f 93/1/2 94/1/2 95/1/2
f 95/1/2 94/1/2 96/1/2
f 93/1/2 95/1/2 97/1/2
f 93/1/2 97/1/2 99/1/2
f 97/1/2 98/1/2 99/1/2
f 99/1/2 98/1/2 100/1/2
f 101/1/2 102/1/2 105/1/2
f 105/1/2 102/1/2 106/1/2
f 103/1/2 104/1/2 107/1/2
f 107/1/2 104/1/2 108/1/2
f 109/1/2 110/1/2 111/1/2
f 111/1/2 110/1/2 112/1/2
f 113/1/2 114/1/2 115/1/2
f 115/1/2 114/1/2 116/1/2
f 117/1/2 118/1/2 119/1/2
f 119/1/2 118/1/2 120/1/2
f 121/1/2 122/1/2 124/1/2
f 124/1/2 122/1/2 125/1/2
f 123/1/2 124/1/2 126/1/2
f 126/1/2 124/1/2 127/1/2
f 127/1/2 128/1/2 129/1/2
f 129/1/2 128/1/2 130/1/2
f 131/1/2 132/1/2 134/1/2
f 134/1/2 132/1/2 135/1/2
f 133/1/2 134/1/2 136/1/2
f 136/1/2 134/1/2 137/1/2
f 137/1/2 138/1/2 139/1/2
f 139/1/2 138/1/2 140/1/2
f 141/1/2 142/1/2 144/1/2
f 144/1/2 142/1/2 145/1/2
f 143/1/2 144/1/2 146/1/2
f 146/1/2 144/1/2 147/1/2
f 147/1/2 148/1/2 149/1/2
f 149/1/2 148/1/2 150/1/2
f 151/1/2 152/1/2 155/1/2
f 155/1/2 152/1/2 156/1/2
f 153/1/2 154/1/2 157/1/2
f 157/1/2 154/1/2 158/1/2
f 159/1/2 160/1/2 161/1/2
f 161/1/2 160/1/2 162/1/2
f 169/1/3 164/1/3 163/1/3
f 170/1/3 164/1/3 169/1/3
f 171/1/3 166/1/3 165/1/3
f 172/1/3 166/1/3 171/1/3
f 173/1/3 168/1/3 167/1/3
f 174/1/3 168/1/3 173/1/3
f 177/1/3 176/1/3 175/1/3
f 178/1/3 176/1/3 177/1/3
f 179/1/3 176/1/3 178/1/3
f 180/1/3 176/1/3 179/1/3
f 181/1/3 176/1/3 180/1/3
f 182/1/3 176/1/3 181/1/3
f 189/1/3 184/1/3 183/1/3
f 190/1/3 184/1/3 189/1/3
f 191/1/3 186/1/3 185/1/3
f 192/1/3 186/1/3 191/1/3
f 193/1/3 188/1/3 187/1/3
f 194/1/3 188/1/3 193/1/3
f 195/1/3 189/1/3 183/1/3
f 196/1/3 184/1/3 190/1/3
f 197/1/3 191/1/3 185/1/3
f 198/1/3 186/1/3 192/1/3
f 199/1/3 193/1/3 187/1/3
f 200/1/3 188/1/3 194/1/3
f 201/1/3 195/1/3 183/1/3
f 201/1/3 196/1/3 195/1/3
f 202/1/3 184/1/3 196/1/3
f 202/1/3 196/1/3 201/1/3
f 203/1/3 197/1/3 185/1/3
f 203/1/3 198/1/3 197/1/3
f 204/1/3 186/1/3 198/1/3
f 204/1/3 198/1/3 203/1/3
f 205/1/3 200/1/3 199/1/3
f 205/1/3 199/1/3 187/1/3
f 206/1/3 188/1/3 200/1/3
f 206/1/3 200/1/3 205/1/3
f 207/1/3 177/1/3 175/1/3
f 208/1/3 179/1/3 178/1/3
f 209/1/3 179/1/3 208/1/3
f 210/1/3 181/1/3 180/1/3
f 211/1/3 181/1/3 210/1/3
f 212/1/3 176/1/3 182/1/3
f 213/1/3 211/1/3 210/1/3
f 213/1/3 212/1/3 211/1/3
f 213/1/3 210/1/3 209/1/3
f 213/1/3 207/1/3 175/1/3
f 213/1/3 209/1/3 208/1/3
f 213/1/3 208/1/3 207/1/3
f 214/1/3 176/1/3 212/1/3
f 214/1/3 212/1/3 213/1/3
f 223/1/3 216/1/3 215/1/3
f 224/1/3 216/1/3 223/1/3
f 225/1/3 218/1/3 217/1/3
f 226/1/3 218/1/3 225/1/3
f 229/1/3 220/1/3 219/1/3
f 230/1/3 220/1/3 229/1/3
f 232/1/3 222/1/3 221/1/3
f 233/1/3 222/1/3 232/1/3
f 237/1/3 225/1/3 217/1/3
f 238/1/3 225/1/3 237/1/3
f 239/1/3 227/1/3 226/1/3
f 240/1/3 227/1/3 239/1/3
f 241/1/3 229/1/3 228/1/3
f 242/1/3 229/1/3 241/1/3
f 243/1/3 220/1/3 230/1/3
f 244/1/3 220/1/3 243/1/3
f 245/1/3 232/1/3 231/1/3
f 246/1/3 232/1/3 245/1/3
f 247/1/3 234/1/3 233/1/3
f 248/1/3 234/1/3 247/1/3
f 249/1/3 236/1/3 235/1/3
f 250/1/3 236/1/3 249/1/3
f 251/1/3 239/1/3 238/1/3
f 252/1/3 239/1/3 251/1/3
f 253/1/3 243/1/3 242/1/3
f 254/1/3 243/1/3 253/1/3
f 255/1/3 247/1/3 246/1/3
f 256/1/3 247/1/3 255/1/3
f 265/1/3 258/1/3 257/1/3
f 266/1/3 258/1/3 265/1/3
f 267/1/3 260/1/3 259/1/3
f 268/1/3 260/1/3 267/1/3
f 269/1/3 262/1/3 261/1/3
f 270/1/3 262/1/3 269/1/3
f 271/1/3 264/1/3 263/1/3
f 272/1/3 264/1/3 271/1/3
f 285/1/3 274/1/3 273/1/3
f 286/1/3 274/1/3 285/1/3
f 287/1/3 276/1/3 275/1/3
f 288/1/3 276/1/3 287/1/3
f 289/1/3 278/1/3 277/1/3
f 290/1/3 278/1/3 289/1/3
f 291/1/3 280/1/3 279/1/3
f 292/1/3 280/1/3 291/1/3
f 293/1/3 282/1/3 281/1/3
f 294/1/3 282/1/3 293/1/3
f 295/1/3 284/1/3 283/1/3
f 296/1/3 284/1/3 295/1/3
f 299/1/3 298/1/3 297/1/3
f 300/1/3 298/1/3 299/1/3
f 303/1/3 302/1/3 301/1/3
f 304/1/3 302/1/3 303/1/3
f 305/1/4 306/1/4 307/1/4
f 307/1/4 306/1/4 308/1/4
f 309/1/4 310/1/4 311/1/4
f 311/1/4 310/1/4 312/1/4
f 313/1/4 314/1/4 315/1/4
f 315/1/4 314/1/4 316/1/4
f 317/1/4 318/1/4 319/1/4
f 319/1/4 318/1/4 320/1/4
f 321/1/4 322/1/4 323/1/4
f 323/1/4 322/1/4 324/1/4
f 329/1/5 326/1/5 325/1/5
f 330/1/5 326/1/5 329/1/5
f 331/1/5 328/1/5 327/1/5
f 332/1/5 328/1/5 331/1/5
f 337/1/5 334/1/5 333/1/5
f 338/1/5 334/1/5 337/1/5
f 339/1/5 336/1/5 335/1/5
f 340/1/5 336/1/5 339/1/5
f 343/1/5 342/1/5 341/1/5
f 344/1/5 342/1/5 343/1/5
f 345/1/5 342/1/5 344/1/5
f 346/1/5 342/1/5 345/1/5
f 347/1/5 343/1/5 341/1/5
f 348/1/5 345/1/5 344/1/5
f 349/1/5 345/1/5 348/1/5
f 350/1/5 342/1/5 346/1/5
f 351/1/5 349/1/5 348/1/5
f 351/1/5 350/1/5 349/1/5
f 351/1/5 347/1/5 341/1/5
f 351/1/5 348/1/5 347/1/5
f 352/1/5 350/1/5 351/1/5
f 353/1/5 350/1/5 352/1/5
f 354/1/5 342/1/5 350/1/5
f 354/1/5 350/1/5 353/1/5
f 355/1/5 351/1/5 341/1/5
f 356/1/5 353/1/5 352/1/5
f 357/1/5 353/1/5 356/1/5
f 358/1/5 342/1/5 354/1/5
f 359/1/5 355/1/5 341/1/5
f 359/1/5 358/1/5 357/1/5
f 359/1/5 357/1/5 356/1/5
f 359/1/5 356/1/5 355/1/5
f 360/1/5 342/1/5 358/1/5
f 360/1/5 358/1/5 359/1/5
f 363/1/5 362/1/5 361/1/5
f 364/1/5 362/1/5 363/1/5
f 366/1/5 365/1/5 364/1/5
f 367/1/5 365/1/5 366/1/5
f 370/1/5 369/1/5 368/1/5
f 371/1/5 369/1/5 370/1/5
f 374/1/5 373/1/5 372/1/5
f 375/1/5 373/1/5 374/1/5
f 376/1/5 374/1/5 372/1/5
f 377/1/5 374/1/5 376/1/5
f 378/1/5 373/1/5 375/1/5
f 379/1/5 373/1/5 378/1/5
f 383/1/5 381/1/5 380/1/5
f 384/1/5 381/1/5 383/1/5
f 386/1/5 383/1/5 382/1/5
f 387/1/5 383/1/5 386/1/5
f 388/1/5 385/1/5 384/1/5
f 389/1/5 385/1/5 388/1/5
f 392/1/5 391/1/5 390/1/5
f 393/1/5 391/1/5 392/1/5
f 396/1/5 395/1/5 394/1/5
f 397/1/5 395/1/5 396/1/5
f 398/1/5 395/1/5 397/1/5
f 399/1/5 395/1/5 398/1/5
f 403/1/5 401/1/5 400/1/5
f 404/1/5 401/1/5 403/1/5
f 406/1/5 403/1/5 402/1/5
f 407/1/5 403/1/5 406/1/5
f 408/1/5 405/1/5 404/1/5
f 409/1/5 405/1/5 408/1/5
f 412/1/5 411/1/5 410/1/5
f 413/1/5 411/1/5 412/1/5
f 416/1/5 415/1/5 414/1/5
f 417/1/5 415/1/5 416/1/5
f 418/1/5 416/1/5 414/1/5
f 419/1/5 416/1/5 418/1/5
f 420/1/5 415/1/5 417/1/5
f 421/1/5 415/1/5 420/1/5
f 422/1/6 423/1/6 424/1/6
f 424/1/6 423/1/6 425/1/6
f 425/1/6 423/1/6 426/1/6
f 426/1/6 423/1/6 427/1/6
f 428/1/6 429/1/6 430/1/6
f 430/1/6 429/1/6 431/1/6
f 432/1/6 433/1/6 435/1/6
f 435/1/6 433/1/6 436/1/6
f 434/1/6 435/1/6 438/1/6
f 438/1/6 435/1/6 439/1/6
f 436/1/6 437/1/6 440/1/6
f 440/1/6 437/1/6 441/1/6
f 442/1/6 443/1/6 444/1/6
f 444/1/6 443/1/6 445/1/6
f 442/1/6 444/1/6 446/1/6
f 446/1/6 444/1/6 447/1/6
f 445/1/6 443/1/6 448/1/6
f 448/1/6 443/1/6 449/1/6
f 450/1/6 451/1/6 452/1/6
f 452/1/6 451/1/6 453/1/6
f 454/1/6 455/1/6 456/1/6
f 456/1/6 455/1/6 457/1/6
f 457/1/6 458/1/6 459/1/6
f 459/1/6 458/1/6 460/1/6
f 461/1/6 462/1/6 463/1/6
f 463/1/6 462/1/6 464/1/6
f 461/1/6 463/1/6 465/1/6
f 465/1/6 463/1/6 466/1/6
f 464/1/6 462/1/6 467/1/6
f 467/1/6 462/1/6 468/1/6
f 469/1/6 470/1/6 471/1/6
f 471/1/6 470/1/6 472/1/6
f 473/1/6 474/1/6 476/1/6
f 476/1/6 474/1/6 477/1/6
f 475/1/6 476/1/6 479/1/6
f 479/1/6 476/1/6 480/1/6
f 477/1/6 478/1/6 481/1/6
f 481/1/6 478/1/6 482/1/6
f 483/1/6 484/1/6 485/1/6
f 485/1/6 484/1/6 486/1/6
