# MagicaVoxel @ Ephtracy

# group
g generator

# material
mtllib generator.mtl
usemtl palette

# normals
vn -1 0 0
vn 1 0 0
vn 0 0 1
vn 0 0 -1
vn 0 -1 0
vn 0 1 0

# texcoords
vt 0.560547 0.5
vt 0.857422 0.5
vt 0.966797 0.5
vt 0.990234 0.5
vt 0.994141 0.5

# verts
v -10 0 5
v -10 0 -3
v -10 9 5
v -10 9 -3
v -9 0 7
v -9 0 6
v -9 1 -4
v -9 1 -5
v -9 10 6
v -9 10 5
v -9 10 -3
v -9 10 -4
v -9 11 7
v -9 11 6
v -9 11 5
v -9 11 -3
v -9 11 -4
v -9 11 -5
v -9 12 6
v -9 12 -4
v -8 0 -4
v -8 0 -5
v -8 1 -4
v -8 1 -5
v -7 0 8
v -7 0 6
v -7 1 8
v -7 1 6
v -6 0 9
v -6 0 8
v -6 1 9
v -6 1 8
v 0 0 8
v 0 0 7
v 0 1 8
v 0 1 7
v 2 0 7
v 2 0 6
v 2 1 7
v 2 1 -4
v 2 1 -5
v 2 10 6
v 2 10 5
v 2 10 -4
v 2 11 7
v 2 11 6
v 2 11 5
v 2 11 -3
v 2 11 -4
v 2 11 -5
v 2 12 6
v 2 12 -4
v 3 0 9
v 3 0 8
v 3 1 9
v 3 1 8
v 4 0 10
v 4 0 9
v 4 1 10
v 4 1 9
v 7 0 9
v 7 0 5
v 7 1 9
v 7 1 5
v 8 0 5
v 8 0 1
v 8 1 5
v 8 1 1
v -8 0 7
v -8 0 6
v -8 1 -4
v -8 1 -5
v -8 10 6
v -8 10 5
v -8 10 -4
v -8 11 7
v -8 11 6
v -8 11 5
v -8 11 -3
v -8 11 -4
v -8 11 -5
v -8 12 6
v -8 12 -4
v -6 0 7
v -6 0 6
v -6 1 7
v -6 1 6
v -5 0 8
v -5 0 7
v -5 1 8
v -5 1 7
v 1 0 9
v 1 0 8
v 1 0 4
v 1 0 -2
v 1 1 9
v 1 1 8
v 1 2 3
v 1 2 2
v 1 2 1
v 1 2 -1
v 1 3 4
v 1 3 3
v 1 3 2
v 1 3 1
v 1 3 -1
v 1 3 -2
v 2 0 -4
v 2 0 -5
v 2 1 -4
v 2 1 -5
v 2 3 4
v 2 3 3
v 2 5 2
v 2 5 1
v 2 5 -1
v 2 5 -2
v 2 6 1
v 2 6 -1
v 2 7 4
v 2 7 3
v 2 7 2
v 2 7 -2
v 3 0 8
v 3 0 7
v 3 0 6
v 3 0 5
v 3 0 4
v 3 0 -2
v 3 0 -3
v 3 1 8
v 3 1 7
v 3 1 -4
v 3 1 -5
v 3 2 3
v 3 2 2
v 3 3 5
v 3 3 4
v 3 3 2
v 3 3 -2
v 3 3 -3
v 3 5 3
v 3 5 2
v 3 7 4
v 3 7 3
v 3 7 2
v 3 7 -2
v 3 8 4
v 3 8 -2
v 3 10 6
v 3 10 5
v 3 10 -3
v 3 10 -4
v 3 11 7
v 3 11 6
v 3 11 5
v 3 11 -3
v 3 11 -4
v 3 11 -5
v 3 12 6
v 3 12 -4
v 4 0 9
v 4 0 8
v 4 1 9
v 4 1 8
v 4 2 1
v 4 2 -1
v 4 3 5
v 4 3 4
v 4 3 2
v 4 3 1
v 4 3 -1
v 4 3 -2
v 4 3 -3
v 4 5 3
v 4 5 2
v 4 5 1
v 4 5 -1
v 4 5 -2
v 4 6 1
v 4 6 -1
v 4 7 3
v 4 7 2
v 4 8 4
v 4 8 -2
v 4 9 5
v 4 9 -3
v 7 0 10
v 7 0 9
v 7 1 10
v 7 1 9
v 8 0 9
v 8 0 5
v 8 1 9
v 8 1 5
v 9 0 5
v 9 0 2
v 9 1 5
v 9 1 2
v 10 0 2
v 10 0 1
v 10 1 2
v 10 1 1
v 4 0 10
v 4 1 10
v 7 0 10
v 7 1 10
v -6 0 9
v -6 1 9
v 1 0 9
v 1 1 9
v 3 0 9
v 3 1 9
v 4 0 9
v 4 1 9
v 7 0 9
v 7 1 9
v 8 0 9
v 8 1 9
v -7 0 8
v -7 1 8
v -6 0 8
v -6 1 8
v 1 0 8
v 1 1 8
v 3 0 8
v 3 1 8
v -9 0 7
v -9 11 7
v -8 0 7
v -8 11 7
v 2 1 7
v 2 11 7
v 3 1 7
v 3 11 7
v -9 11 6
v -9 12 6
v -8 11 6
v -8 12 6
v 2 11 6
v 2 12 6
v 3 11 6
v 3 12 6
v -10 0 5
v -10 9 5
v 3 0 5
v 3 3 5
v 4 3 5
v 4 9 5
v 8 0 5
v 8 1 5
v 9 0 5
v 9 1 5
v 1 2 3
v 1 3 3
v 2 3 3
v 2 7 3
v 3 2 3
v 3 5 3
v 3 7 3
v 4 5 3
v 4 7 3
v 3 3 2
v 3 5 2
v 4 3 2
v 4 5 2
v 9 0 2
v 9 1 2
v 10 0 2
v 10 1 2
v 1 2 1
v 1 3 1
v 2 5 1
v 2 6 1
v 3 2 1
v 3 3 1
v 3 5 1
v 3 6 1
v 4 2 1
v 4 3 1
v 4 5 1
v 4 6 1
v 1 0 -2
v 1 3 -2
v 2 5 -2
v 2 7 -2
v 3 0 -2
v 3 3 -2
v 3 5 -2
v 3 7 -2
v 3 8 -2
v 4 5 -2
v 4 8 -2
v -9 10 -3
v -9 11 -3
v -8 11 -3
v 2 11 -3
v 3 10 -3
v 3 11 -3
v -9 1 -4
v -9 10 -4
v -8 0 -4
v -8 1 -4
v -8 10 -4
v 2 0 -4
v 2 1 -4
v 2 10 -4
v 3 1 -4
v 3 10 -4
v 4 0 9
v 4 1 9
v 7 0 9
v 7 1 9
v -5 0 8
v -5 1 8
v 0 0 8
v 0 1 8
v 3 0 8
v 3 1 8
v 4 0 8
v 4 1 8
v -6 0 7
v -6 1 7
v -5 0 7
v -5 1 7
v 0 0 7
v 0 1 7
v 2 0 7
v 2 1 7
v -9 0 6
v -9 10 6
v -8 0 6
v -8 10 6
v -7 0 6
v -7 1 6
v -6 0 6
v -6 1 6
v 2 0 6
v 2 10 6
v 3 0 6
v 3 10 6
v -9 10 5
v -9 11 5
v -8 10 5
v -8 11 5
v 2 10 5
v 2 11 5
v 3 10 5
v 3 11 5
v 7 0 5
v 7 1 5
v 8 0 5
v 8 1 5
v 1 0 4
v 1 3 4
v 2 3 4
v 2 7 4
v 3 0 4
v 3 3 4
v 3 7 4
v 3 8 4
v 4 3 4
v 4 8 4
v 1 2 2
v 1 3 2
v 2 5 2
v 2 7 2
v 3 2 2
v 3 3 2
v 3 5 2
v 3 7 2
v 4 5 2
v 4 7 2
v 8 0 1
v 8 1 1
v 10 0 1
v 10 1 1
v 1 2 -1
v 1 3 -1
v 2 5 -1
v 2 6 -1
v 3 2 -1
v 3 3 -1
v 3 5 -1
v 3 6 -1
v 4 2 -1
v 4 3 -1
v 4 5 -1
v 4 6 -1
v -10 0 -3
v -10 9 -3
v -8 2 -3
v -8 4 -3
v -8 7 -3
v -8 8 -3
v -7 5 -3
v -7 6 -3
v -6 5 -3
v -6 6 -3
v -4 5 -3
v -4 6 -3
v -3 5 -3
v -3 6 -3
v -1 5 -3
v -1 6 -3
v 0 5 -3
v 0 6 -3
v 1 2 -3
v 1 4 -3
v 1 7 -3
v 1 8 -3
v 3 0 -3
v 3 3 -3
v 4 3 -3
v 4 9 -3
v -9 11 -4
v -9 12 -4
v -8 10 -4
v -8 11 -4
v -8 12 -4
v 2 10 -4
v 2 11 -4
v 2 12 -4
v 3 11 -4
v 3 12 -4
v -9 1 -5
v -9 11 -5
v -8 0 -5
v -8 1 -5
v -8 11 -5
v 2 0 -5
v 2 1 -5
v 2 11 -5
v 3 1 -5
v 3 11 -5
v 4 0 10
v 7 0 10
v -6 0 9
v 1 0 9
v 3 0 9
v 4 0 9
v 7 0 9
v 8 0 9
v -7 0 8
v -6 0 8
v -5 0 8
v 0 0 8
v 1 0 8
v 3 0 8
v 4 0 8
v -9 0 7
v -8 0 7
v -6 0 7
v -5 0 7
v 0 0 7
v 2 0 7
v 3 0 7
v -9 0 6
v -8 0 6
v -7 0 6
v -6 0 6
v 2 0 6
v 3 0 6
v -10 0 5
v 3 0 5
v 7 0 5
v 8 0 5
v 9 0 5
v 0 0 4
v 1 0 4
v 3 0 4
v 9 0 2
v 10 0 2
v 8 0 1
v 10 0 1
v 0 0 -2
v 1 0 -2
v 3 0 -2
v -10 0 -3
v 3 0 -3
v -8 0 -4
v 2 0 -4
v -8 0 -5
v 2 0 -5
v -9 1 -4
v -8 1 -4
v 2 1 -4
v 3 1 -4
v -9 1 -5
v -8 1 -5
v 2 1 -5
v 3 1 -5
v 1 2 3
v 3 2 3
v 1 2 2
v 3 2 2
v 1 2 1
v 3 2 1
v 4 2 1
v 1 2 -1
v 3 2 -1
v 4 2 -1
v 3 3 5
v 4 3 5
v 1 3 4
v 2 3 4
v 3 3 4
v 4 3 4
v 1 3 3
v 2 3 3
v 1 3 2
v 3 3 2
v 4 3 2
v 1 3 1
v 3 3 1
v 4 3 1
v 1 3 -1
v 3 3 -1
v 4 3 -1
v 1 3 -2
v 3 3 -2
v 4 3 -2
v 3 3 -3
v 4 3 -3
v 3 5 3
v 4 5 3
v 3 5 2
v 4 5 2
v 2 7 4
v 3 7 4
v 2 7 3
v 3 7 3
v 2 7 2
v 3 7 2
v 2 7 -2
v 3 7 -2
v 3 8 4
v 4 8 4
v 3 8 -2
v 4 8 -2
v -9 10 6
v -8 10 6
v 2 10 6
v 3 10 6
v -9 10 5
v -8 10 5
v 2 10 5
v 3 10 5
v -9 10 -3
v 3 10 -3
v -9 10 -4
v -8 10 -4
v 2 10 -4
v 3 10 -4
v -9 11 5
v -8 11 5
v 2 11 5
v 3 11 5
v -9 11 -3
v -8 11 -3
v 2 11 -3
v 3 11 -3
v 4 1 10
v 7 1 10
v -6 1 9
v 1 1 9
v 3 1 9
v 4 1 9
v 7 1 9
v 8 1 9
v -7 1 8
v -6 1 8
v -5 1 8
v 0 1 8
v 1 1 8
v 3 1 8
v 4 1 8
v -6 1 7
v -5 1 7
v 0 1 7
v 2 1 7
v 3 1 7
v -7 1 6
v -6 1 6
v 7 1 5
v 8 1 5
v 9 1 5
v 9 1 2
v 10 1 2
v 8 1 1
v 10 1 1
v -8 1 -4
v 2 1 -4
v -8 1 -5
v 2 1 -5
v 2 5 2
v 3 5 2
v 4 5 2
v 2 5 1
v 3 5 1
v 4 5 1
v 2 5 -1
v 3 5 -1
v 4 5 -1
v 2 5 -2
v 3 5 -2
v 4 5 -2
v 2 6 1
v 3 6 1
v 4 6 1
v 2 6 -1
v 3 6 -1
v 4 6 -1
v 3 7 3
v 4 7 3
v 3 7 2
v 4 7 2
v -10 9 5
v 4 9 5
v -9 9 4
v -8 9 4
v 2 9 4
v 3 9 4
v -9 9 -2
v -8 9 -2
v 2 9 -2
v 3 9 -2
v -10 9 -3
v 4 9 -3
v -9 11 7
v -8 11 7
v 2 11 7
v 3 11 7
v -9 11 6
v -8 11 6
v 2 11 6
v 3 11 6
v -8 11 -3
v 2 11 -3
v -9 11 -4
v -8 11 -4
v 2 11 -4
v 3 11 -4
v -9 11 -5
v -8 11 -5
v 2 11 -5
v 3 11 -5
v -9 12 6
v -8 12 6
v 2 12 6
v 3 12 6
v -9 12 -4
v -8 12 -4
v 2 12 -4
v 3 12 -4

# faces
f 3/2/1 2/2/1 1/2/1
f 4/2/1 2/2/1 3/2/1
f 9/4/1 6/4/1 5/4/1
f 12/4/1 8/4/1 7/4/1
f 13/4/1 10/4/1 9/4/1
f 13/4/1 9/4/1 5/4/1
f 14/4/1 10/4/1 13/4/1
f 15/4/1 10/4/1 14/4/1
f 16/4/1 12/4/1 11/4/1
f 17/4/1 8/4/1 12/4/1
f 17/4/1 12/4/1 16/4/1
f 18/4/1 8/4/1 17/4/1
f 19/4/1 15/4/1 14/4/1
f 19/4/1 16/4/1 15/4/1
f 19/4/1 17/4/1 16/4/1
f 20/4/1 17/4/1 19/4/1
f 23/4/1 22/4/1 21/4/1
f 24/4/1 22/4/1 23/4/1
f 27/5/1 26/5/1 25/5/1
f 28/5/1 26/5/1 27/5/1
f 31/5/1 30/5/1 29/5/1
f 32/5/1 30/5/1 31/5/1
f 35/5/1 34/5/1 33/5/1
f 36/5/1 34/5/1 35/5/1
f 39/4/1 38/4/1 37/4/1
f 42/4/1 38/4/1 39/4/1
f 44/4/1 41/4/1 40/4/1
f 45/4/1 43/4/1 42/4/1
f 45/4/1 42/4/1 39/4/1
f 46/4/1 43/4/1 45/4/1
f 47/4/1 43/4/1 46/4/1
f 49/4/1 41/4/1 44/4/1
f 50/4/1 41/4/1 49/4/1
f 51/4/1 48/4/1 47/4/1
f 51/4/1 49/4/1 48/4/1
f 51/4/1 47/4/1 46/4/1
f 52/4/1 49/4/1 51/4/1
f 55/5/1 54/5/1 53/5/1
f 56/5/1 54/5/1 55/5/1
f 59/5/1 58/5/1 57/5/1
f 60/5/1 58/5/1 59/5/1
f 63/5/1 62/5/1 61/5/1
f 64/5/1 62/5/1 63/5/1
f 67/5/1 66/5/1 65/5/1
f 68/5/1 66/5/1 67/5/1
f 69/4/2 70/4/2 73/4/2
f 71/4/2 72/4/2 75/4/2
f 73/4/2 74/4/2 76/4/2
f 69/4/2 73/4/2 76/4/2
f 76/4/2 74/4/2 77/4/2
f 77/4/2 74/4/2 78/4/2
f 75/4/2 72/4/2 80/4/2
f 80/4/2 72/4/2 81/4/2
f 78/4/2 79/4/2 82/4/2
f 79/4/2 80/4/2 82/4/2
f 77/4/2 78/4/2 82/4/2
f 82/4/2 80/4/2 83/4/2
f 84/5/2 85/5/2 86/5/2
f 86/5/2 85/5/2 87/5/2
f 88/5/2 89/5/2 90/5/2
f 90/5/2 89/5/2 91/5/2
f 92/5/2 93/5/2 96/5/2
f 96/5/2 93/5/2 97/5/2
f 94/1/2 95/1/2 98/1/2
f 98/1/2 95/1/2 99/1/2
f 99/1/2 95/1/2 100/1/2
f 100/1/2 95/1/2 101/1/2
f 94/1/2 98/1/2 102/1/2
f 102/1/2 98/1/2 103/1/2
f 99/1/2 100/1/2 104/1/2
f 104/1/2 100/1/2 105/1/2
f 101/1/2 95/1/2 106/1/2
f 106/1/2 95/1/2 107/1/2
f 108/4/2 109/4/2 110/4/2
f 110/4/2 109/4/2 111/4/2
f 114/1/2 115/1/2 118/1/2
f 116/1/2 117/1/2 119/1/2
f 112/1/2 113/1/2 120/1/2
f 120/1/2 113/1/2 121/1/2
f 118/1/2 119/1/2 122/1/2
f 114/1/2 118/1/2 122/1/2
f 119/1/2 117/1/2 123/1/2
f 122/1/2 119/1/2 123/1/2
f 124/5/2 125/5/2 131/5/2
f 125/4/2 126/4/2 132/4/2
f 131/5/2 125/5/2 132/5/2
f 127/2/2 128/2/2 137/2/2
f 137/2/2 128/2/2 138/2/2
f 135/1/2 136/1/2 139/1/2
f 129/2/2 130/2/2 140/2/2
f 140/2/2 130/2/2 141/2/2
f 135/1/2 139/1/2 142/1/2
f 142/1/2 139/1/2 143/1/2
f 145/1/2 146/1/2 148/1/2
f 146/1/2 147/1/2 148/1/2
f 144/1/2 145/1/2 148/1/2
f 148/1/2 147/1/2 149/1/2
f 132/4/2 126/4/2 150/4/2
f 133/4/2 134/4/2 153/4/2
f 132/4/2 150/4/2 154/4/2
f 150/4/2 151/4/2 154/4/2
f 154/4/2 151/4/2 155/4/2
f 155/4/2 151/4/2 156/4/2
f 152/4/2 153/4/2 157/4/2
f 153/4/2 134/4/2 158/4/2
f 157/4/2 153/4/2 158/4/2
f 158/4/2 134/4/2 159/4/2
f 155/4/2 156/4/2 160/4/2
f 156/4/2 157/4/2 160/4/2
f 157/4/2 158/4/2 160/4/2
f 160/4/2 158/4/2 161/4/2
f 162/5/2 163/5/2 164/5/2
f 164/5/2 163/5/2 165/5/2
f 166/4/2 167/4/2 171/4/2
f 171/4/2 167/4/2 172/4/2
f 170/4/2 171/4/2 176/4/2
f 171/4/2 172/4/2 176/4/2
f 172/4/2 173/4/2 176/4/2
f 176/4/2 173/4/2 177/4/2
f 177/4/2 173/4/2 178/4/2
f 173/2/2 174/2/2 179/2/2
f 178/4/2 173/4/2 179/4/2
f 177/4/2 178/4/2 180/4/2
f 180/4/2 178/4/2 181/4/2
f 175/4/2 176/4/2 182/4/2
f 182/4/2 176/4/2 183/4/2
f 168/2/2 169/2/2 184/2/2
f 179/2/2 174/2/2 185/2/2
f 168/2/2 184/2/2 186/2/2
f 184/2/2 185/2/2 186/2/2
f 185/2/2 174/2/2 187/2/2
f 186/2/2 185/2/2 187/2/2
f 188/5/2 189/5/2 190/5/2
f 190/5/2 189/5/2 191/5/2
f 192/5/2 193/5/2 194/5/2
f 194/5/2 193/5/2 195/5/2
f 196/5/2 197/5/2 198/5/2
f 198/5/2 197/5/2 199/5/2
f 200/5/2 201/5/2 202/5/2
f 202/5/2 201/5/2 203/5/2
f 206/5/3 205/5/3 204/5/3
f 207/5/3 205/5/3 206/5/3
f 210/5/3 209/5/3 208/5/3
f 211/5/3 209/5/3 210/5/3
f 214/5/3 213/5/3 212/5/3
f 215/5/3 213/5/3 214/5/3
f 218/5/3 217/5/3 216/5/3
f 219/5/3 217/5/3 218/5/3
f 222/5/3 221/5/3 220/5/3
f 223/5/3 221/5/3 222/5/3
f 226/5/3 225/5/3 224/5/3
f 227/5/3 225/5/3 226/5/3
f 230/4/3 229/4/3 228/4/3
f 231/4/3 229/4/3 230/4/3
f 234/4/3 233/4/3 232/4/3
f 235/4/3 233/4/3 234/4/3
f 238/4/3 237/4/3 236/4/3
f 239/4/3 237/4/3 238/4/3
f 242/4/3 241/4/3 240/4/3
f 243/4/3 241/4/3 242/4/3
f 246/2/3 245/2/3 244/2/3
f 247/2/3 245/2/3 246/2/3
f 248/2/3 245/2/3 247/2/3
f 249/2/3 245/2/3 248/2/3
f 252/5/3 251/5/3 250/5/3
f 253/5/3 251/5/3 252/5/3
f 256/1/3 255/1/3 254/1/3
f 258/1/3 256/1/3 254/1/3
f 258/1/3 257/1/3 256/1/3
f 259/1/3 257/1/3 258/1/3
f 260/1/3 257/1/3 259/1/3
f 261/4/3 260/4/3 259/4/3
f 262/4/3 260/4/3 261/4/3
f 265/4/3 264/4/3 263/4/3
f 266/4/3 264/4/3 265/4/3
f 269/5/3 268/5/3 267/5/3
f 270/5/3 268/5/3 269/5/3
f 275/1/3 272/1/3 271/1/3
f 276/1/3 272/1/3 275/1/3
f 277/1/3 274/1/3 273/1/3
f 278/1/3 274/1/3 277/1/3
f 279/4/3 276/4/3 275/4/3
f 280/4/3 276/4/3 279/4/3
f 281/4/3 278/4/3 277/4/3
f 282/4/3 278/4/3 281/4/3
f 287/2/3 284/2/3 283/2/3
f 288/2/3 284/2/3 287/2/3
f 289/2/3 286/2/3 285/2/3
f 290/2/3 286/2/3 289/2/3
f 292/2/3 291/2/3 290/2/3
f 292/2/3 290/2/3 289/2/3
f 293/2/3 291/2/3 292/2/3
f 296/4/3 295/4/3 294/4/3
f 297/4/3 296/4/3 294/4/3
f 298/4/3 297/4/3 294/4/3
f 299/4/3 297/4/3 298/4/3
f 303/4/3 301/4/3 300/4/3
f 304/4/3 301/4/3 303/4/3
f 305/4/3 303/4/3 302/4/3
f 306/4/3 303/4/3 305/4/3
f 308/4/3 307/4/3 306/4/3
f 309/4/3 307/4/3 308/4/3
f 310/5/4 311/5/4 312/5/4
f 312/5/4 311/5/4 313/5/4
f 314/5/4 315/5/4 316/5/4
f 316/5/4 315/5/4 317/5/4
f 318/5/4 319/5/4 320/5/4
f 320/5/4 319/5/4 321/5/4
f 322/5/4 323/5/4 324/5/4
f 324/5/4 323/5/4 325/5/4
f 326/5/4 327/5/4 328/5/4
f 328/5/4 327/5/4 329/5/4
f 330/4/4 331/4/4 332/4/4
f 332/4/4 331/4/4 333/4/4
f 334/5/4 335/5/4 336/5/4
f 336/5/4 335/5/4 337/5/4
f 338/4/4 339/4/4 340/4/4
f 340/4/4 339/4/4 341/4/4
f 342/4/4 343/4/4 344/4/4
f 344/4/4 343/4/4 345/4/4
f 346/4/4 347/4/4 348/4/4
f 348/4/4 347/4/4 349/4/4
f 350/5/4 351/5/4 352/5/4
f 352/5/4 351/5/4 353/5/4
f 354/2/4 355/2/4 356/2/4
f 354/2/4 356/2/4 358/2/4
f 356/2/4 357/2/4 358/2/4
f 358/2/4 357/2/4 359/2/4
f 359/2/4 357/2/4 360/2/4
f 360/2/4 361/2/4 362/2/4
f 359/2/4 360/2/4 362/2/4
f 362/2/4 361/2/4 363/2/4
f 364/1/4 365/1/4 368/1/4
f 368/1/4 365/1/4 369/1/4
f 366/1/4 367/1/4 370/1/4
f 370/1/4 367/1/4 371/1/4
f 370/4/4 371/4/4 372/4/4
f 372/4/4 371/4/4 373/4/4
f 374/5/4 375/5/4 376/5/4
f 376/5/4 375/5/4 377/5/4
f 378/1/4 379/1/4 382/1/4
f 382/1/4 379/1/4 383/1/4
f 380/1/4 381/1/4 384/1/4
f 384/1/4 381/1/4 385/1/4
f 382/4/4 383/4/4 386/4/4
f 386/4/4 383/4/4 387/4/4
f 384/4/4 385/4/4 388/4/4
f 388/4/4 385/4/4 389/4/4
f 390/2/4 391/2/4 392/2/4
f 392/2/4 391/2/4 393/2/4
f 393/2/4 391/2/4 394/2/4
f 394/2/4 391/2/4 395/2/4
f 393/3/4 394/3/4 396/3/4
f 396/3/4 394/3/4 397/3/4
f 393/3/4 396/3/4 398/3/4
f 396/4/4 397/4/4 398/4/4
f 397/3/4 394/3/4 399/3/4
f 398/4/4 397/4/4 399/4/4
f 393/3/4 398/3/4 400/3/4
f 398/3/4 399/3/4 400/3/4
f 399/3/4 394/3/4 401/3/4
f 400/3/4 399/3/4 401/3/4
f 393/3/4 400/3/4 402/3/4
f 400/4/4 401/4/4 402/4/4
f 401/3/4 394/3/4 403/3/4
f 402/4/4 401/4/4 403/4/4
f 393/3/4 402/3/4 404/3/4
f 402/3/4 403/3/4 404/3/4
f 403/3/4 394/3/4 405/3/4
f 404/3/4 403/3/4 405/3/4
f 393/3/4 404/3/4 406/3/4
f 404/4/4 405/4/4 406/4/4
f 405/3/4 394/3/4 407/3/4
f 406/4/4 405/4/4 407/4/4
f 390/2/4 392/2/4 408/2/4
f 392/1/4 393/1/4 408/1/4
f 406/3/4 407/3/4 409/3/4
f 408/1/4 393/1/4 409/1/4
f 393/3/4 406/3/4 409/3/4
f 407/3/4 394/3/4 410/3/4
f 409/3/4 407/3/4 410/3/4
f 394/1/4 395/1/4 410/1/4
f 395/2/4 391/2/4 411/2/4
f 410/1/4 395/1/4 411/1/4
f 408/2/4 409/2/4 412/2/4
f 390/2/4 408/2/4 412/2/4
f 410/2/4 411/2/4 412/2/4
f 409/2/4 410/2/4 412/2/4
f 412/2/4 411/2/4 413/2/4
f 413/2/4 411/2/4 414/2/4
f 411/2/4 391/2/4 415/2/4
f 414/2/4 411/2/4 415/2/4
f 416/4/4 417/4/4 419/4/4
f 419/4/4 417/4/4 420/4/4
f 418/4/4 419/4/4 421/4/4
f 421/4/4 419/4/4 422/4/4
f 422/4/4 423/4/4 424/4/4
f 424/4/4 423/4/4 425/4/4
f 426/4/4 427/4/4 429/4/4
f 429/4/4 427/4/4 430/4/4
f 428/4/4 429/4/4 431/4/4
f 431/4/4 429/4/4 432/4/4
f 432/4/4 433/4/4 434/4/4
f 434/4/4 433/4/4 435/4/4
f 441/5/5 437/5/5 436/5/5
f 442/5/5 437/5/5 441/5/5
f 445/5/5 439/5/5 438/5/5
f 446/5/5 439/5/5 445/5/5
f 447/5/5 439/5/5 446/5/5
f 448/5/5 439/5/5 447/5/5
f 449/5/5 441/5/5 440/5/5
f 450/5/5 441/5/5 449/5/5
f 453/5/5 445/5/5 444/5/5
f 453/5/5 446/5/5 445/5/5
f 454/5/5 446/5/5 453/5/5
f 455/5/5 448/5/5 447/5/5
f 455/5/5 449/5/5 448/5/5
f 456/5/5 449/5/5 455/5/5
f 457/5/5 449/5/5 456/5/5
f 458/4/5 452/4/5 451/4/5
f 459/4/5 452/4/5 458/4/5
f 460/5/5 453/5/5 444/5/5
f 461/5/5 453/5/5 460/5/5
f 462/4/5 457/4/5 456/4/5
f 463/4/5 457/4/5 462/4/5
f 466/5/5 443/5/5 442/5/5
f 467/5/5 443/5/5 466/5/5
f 469/2/5 465/2/5 464/2/5
f 470/2/5 465/2/5 469/2/5
f 471/2/5 465/2/5 470/2/5
f 472/5/5 468/5/5 467/5/5
f 474/5/5 472/5/5 467/5/5
f 474/5/5 473/5/5 472/5/5
f 475/5/5 473/5/5 474/5/5
f 476/1/5 470/1/5 469/1/5
f 476/2/5 469/2/5 464/2/5
f 477/1/5 470/1/5 476/1/5
f 479/2/5 476/2/5 464/2/5
f 479/2/5 478/2/5 477/2/5
f 479/2/5 477/2/5 476/2/5
f 480/2/5 478/2/5 479/2/5
f 483/4/5 482/4/5 481/4/5
f 484/4/5 482/4/5 483/4/5
f 489/4/5 486/4/5 485/4/5
f 490/4/5 486/4/5 489/4/5
f 491/4/5 488/4/5 487/4/5
f 492/4/5 488/4/5 491/4/5
f 495/1/5 494/1/5 493/1/5
f 496/1/5 494/1/5 495/1/5
f 500/1/5 498/1/5 497/1/5
f 501/4/5 499/4/5 498/4/5
f 501/1/5 498/1/5 500/1/5
f 502/4/5 499/4/5 501/4/5
f 507/2/5 504/2/5 503/2/5
f 508/2/5 504/2/5 507/2/5
f 509/1/5 506/1/5 505/1/5
f 510/1/5 506/1/5 509/1/5
f 514/1/5 512/1/5 511/1/5
f 515/4/5 513/4/5 512/4/5
f 515/1/5 512/1/5 514/1/5
f 516/4/5 513/4/5 515/4/5
f 520/1/5 518/1/5 517/1/5
f 521/4/5 519/4/5 518/4/5
f 521/1/5 518/1/5 520/1/5
f 522/4/5 519/4/5 521/4/5
f 523/2/5 522/2/5 521/2/5
f 524/2/5 522/2/5 523/2/5
f 527/4/5 526/4/5 525/4/5
f 528/4/5 526/4/5 527/4/5
f 531/1/5 530/1/5 529/1/5
f 532/1/5 530/1/5 531/1/5
f 535/1/5 534/1/5 533/1/5
f 536/1/5 534/1/5 535/1/5
f 539/2/5 538/2/5 537/2/5
f 540/2/5 538/2/5 539/2/5
f 545/4/5 542/4/5 541/4/5
f 546/4/5 542/4/5 545/4/5
f 547/4/5 544/4/5 543/4/5
f 548/4/5 544/4/5 547/4/5
f 551/4/5 550/4/5 549/4/5
f 552/4/5 550/4/5 551/4/5
f 553/4/5 550/4/5 552/4/5
f 554/4/5 550/4/5 553/4/5
f 559/4/5 556/4/5 555/4/5
f 560/4/5 556/4/5 559/4/5
f 561/4/5 558/4/5 557/4/5
f 562/4/5 558/4/5 561/4/5
f 563/5/6 564/5/6 568/5/6
f 568/5/6 564/5/6 569/5/6
f 565/5/6 566/5/6 572/5/6
f 572/5/6 566/5/6 573/5/6
f 573/5/6 566/5/6 574/5/6
f 574/5/6 566/5/6 575/5/6
f 567/5/6 568/5/6 576/5/6
f 576/5/6 568/5/6 577/5/6
f 571/5/6 572/5/6 578/5/6
f 572/5/6 573/5/6 578/5/6
f 578/5/6 573/5/6 579/5/6
f 574/5/6 575/5/6 580/5/6
f 575/5/6 576/5/6 580/5/6
f 580/5/6 576/5/6 581/5/6
f 581/5/6 576/5/6 582/5/6
f 571/5/6 578/5/6 583/5/6
f 583/5/6 578/5/6 584/5/6
f 569/5/6 570/5/6 585/5/6
f 585/5/6 570/5/6 586/5/6
f 586/5/6 587/5/6 588/5/6
f 586/5/6 588/5/6 590/5/6
f 588/5/6 589/5/6 590/5/6
f 590/5/6 589/5/6 591/5/6
f 592/4/6 593/4/6 594/4/6
f 594/4/6 593/4/6 595/4/6
f 596/1/6 597/1/6 599/1/6
f 597/4/6 598/4/6 600/4/6
f 599/1/6 597/1/6 600/1/6
f 600/4/6 598/4/6 601/4/6
f 602/1/6 603/1/6 605/1/6
f 603/4/6 604/4/6 606/4/6
f 605/1/6 603/1/6 606/1/6
f 606/4/6 604/4/6 607/4/6
f 608/1/6 609/1/6 611/1/6
f 609/4/6 610/4/6 612/4/6
f 611/1/6 609/1/6 612/1/6
f 612/4/6 610/4/6 613/4/6
f 614/4/6 615/4/6 616/4/6
f 616/4/6 615/4/6 617/4/6
f 618/2/6 619/2/6 620/2/6
f 620/2/6 619/2/6 621/2/6
f 621/2/6 619/2/6 622/2/6
f 622/2/6 619/2/6 623/2/6
f 618/2/6 620/2/6 624/2/6
f 620/1/6 621/1/6 624/1/6
f 621/2/6 622/2/6 625/2/6
f 624/1/6 621/1/6 625/1/6
f 622/1/6 623/1/6 626/1/6
f 625/2/6 622/2/6 626/2/6
f 623/2/6 619/2/6 627/2/6
f 626/1/6 623/1/6 627/1/6
f 625/2/6 626/2/6 628/2/6
f 624/2/6 625/2/6 628/2/6
f 626/2/6 627/2/6 628/2/6
f 618/2/6 624/2/6 628/2/6
f 627/2/6 619/2/6 629/2/6
f 628/2/6 627/2/6 629/2/6
f 630/4/6 631/4/6 634/4/6
f 634/4/6 631/4/6 635/4/6
f 632/4/6 633/4/6 636/4/6
f 636/4/6 633/4/6 637/4/6
f 638/4/6 639/4/6 641/4/6
f 641/4/6 639/4/6 642/4/6
f 640/4/6 641/4/6 644/4/6
f 644/4/6 641/4/6 645/4/6
f 642/4/6 643/4/6 646/4/6
f 646/4/6 643/4/6 647/4/6
f 648/4/6 649/4/6 652/4/6
f 652/4/6 649/4/6 653/4/6
f 650/4/6 651/4/6 654/4/6
f 654/4/6 651/4/6 655/4/6
