# MagicaVoxel @ Ephtracy

# group
g straight_Hallway_V3

# material
mtllib straight_Hallway_V3.mtl
usemtl palette

# normals
vn -1 0 0
vn 1 0 0
vn 0 0 1
vn 0 0 -1
vn 0 -1 0
vn 0 1 0

# texcoords
vt 0.958984 0.5
vt 0.978516 0.5
vt 0.982422 0.5

# verts
v -20 0 20
v -20 0 -20
v -20 11 20
v -20 11 19
v -20 12 20
v -20 12 19
v -20 12 10
v -20 31 20
v -20 31 10
v -20 40 20
v -20 40 -20
v -10 20 10
v -10 20 9
v -10 21 10
v -10 21 9
v -8 21 10
v -8 21 9
v -8 22 10
v -8 22 9
v -8 25 10
v -8 25 9
v -8 26 10
v -8 26 9
v -7 24 9
v -7 24 8
v -7 25 9
v -7 25 8
v -6 23 10
v -6 23 9
v -6 24 10
v -6 24 9
v -5 22 8
v -5 22 7
v -5 23 9
v -5 23 8
v -5 23 7
v -5 24 9
v -5 24 8
v -4 22 9
v -4 22 8
v -4 23 9
v -4 23 8
v -2 20 10
v -2 20 9
v -2 21 10
v -2 21 9
v -2 21 8
v -2 21 7
v -2 22 8
v -2 22 7
v -1 22 10
v -1 22 9
v -1 23 9
v -1 23 8
v -1 24 10
v -1 24 8
v 1 21 9
v 1 21 8
v 1 22 9
v 1 22 8
v 1 24 9
v 1 24 8
v 1 25 9
v 1 25 8
v 4 22 9
v 4 22 8
v 4 23 9
v 4 23 8
v 4 25 10
v 4 25 9
v 4 26 10
v 4 26 9
v 6 24 10
v 6 24 9
v 6 25 10
v 6 25 9
v 7 21 10
v 7 21 9
v 7 22 10
v 7 22 9
v 10 22 10
v 10 22 9
v 10 24 10
v 10 24 9
v 11 19 10
v 11 19 9
v 11 21 10
v 11 21 9
v -16 22 10
v -16 22 9
v -16 23 10
v -16 23 9
v -15 19 10
v -15 19 9
v -15 20 10
v -15 20 9
v -15 22 9
v -15 22 8
v -15 23 9
v -15 23 8
v -12 20 10
v -12 20 9
v -12 21 10
v -12 21 9
v -10 21 10
v -10 21 9
v -10 22 10
v -10 22 9
v -9 22 8
v -9 22 7
v -9 23 8
v -9 23 7
v -9 24 10
v -9 24 9
v -9 26 10
v -9 26 9
v -8 24 9
v -8 24 8
v -8 25 9
v -8 25 8
v -7 21 10
v -7 21 9
v -7 22 10
v -7 22 9
v -7 23 10
v -7 23 9
v -7 24 10
v -7 24 9
v -6 23 9
v -6 23 8
v -6 24 9
v -6 24 8
v -5 23 10
v -5 23 9
v -5 24 10
v -5 24 9
v -4 20 10
v -4 20 9
v -4 21 10
v -4 21 9
v -4 21 8
v -4 21 7
v -4 22 9
v -4 22 7
v -2 23 9
v -2 23 8
v -2 24 9
v -2 24 8
v -2 25 9
v -2 25 8
v 1 22 9
v 1 22 8
v 1 23 9
v 1 23 8
v 1 25 10
v 1 25 9
v 1 26 10
v 1 26 9
v 3 22 10
v 3 22 9
v 3 23 10
v 3 23 9
v 4 20 10
v 4 20 9
v 4 21 10
v 4 21 9
v 7 23 10
v 7 23 9
v 7 24 10
v 7 24 9
v 20 0 20
v 20 0 -20
v 20 11 20
v 20 11 10
v 20 12 20
v 20 12 10
v 20 31 20
v 20 31 10
v 20 40 20
v 20 40 -20
v -20 0 20
v -20 11 20
v -20 12 20
v -20 31 20
v -20 40 20
v 20 0 20
v 20 11 20
v 20 12 20
v 20 31 20
v 20 40 20
v -20 12 10
v -20 31 10
v -19 12 10
v -18 12 10
v -17 12 10
v -16 12 10
v -16 22 10
v -16 23 10
v -15 12 10
v -15 19 10
v -15 20 10
v -14 12 10
v -13 12 10
v -12 12 10
v -12 20 10
v -12 21 10
v -11 12 10
v -10 12 10
v -10 20 10
v -10 21 10
v -10 22 10
v -9 12 10
v -9 24 10
v -9 26 10
v -8 12 10
v -8 21 10
v -8 22 10
v -8 25 10
v -8 26 10
v -7 12 10
v -7 21 10
v -7 22 10
v -7 23 10
v -7 24 10
v -6 12 10
v -6 23 10
v -6 24 10
v -5 12 10
v -5 23 10
v -5 24 10
v -4 12 10
v -4 20 10
v -4 21 10
v -3 12 10
v -2 12 10
v -2 20 10
v -2 21 10
v -1 12 10
v -1 22 10
v -1 24 10
v 0 12 10
v 1 12 10
v 1 25 10
v 1 26 10
v 2 12 10
v 3 12 10
v 3 22 10
v 3 23 10
v 4 12 10
v 4 20 10
v 4 21 10
v 4 25 10
v 4 26 10
v 5 12 10
v 6 12 10
v 6 24 10
v 6 25 10
v 7 12 10
v 7 21 10
v 7 22 10
v 7 23 10
v 7 24 10
v 8 12 10
v 9 12 10
v 10 12 10
v 10 22 10
v 10 24 10
v 11 12 10
v 11 19 10
v 11 21 10
v 12 12 10
v 13 12 10
v 14 12 10
v 15 12 10
v 16 12 10
v 17 12 10
v 18 12 10
v 19 12 10
v 20 12 10
v 20 31 10
v -16 22 9
v -16 23 9
v -15 19 9
v -15 20 9
v -15 22 9
v -15 23 9
v -12 20 9
v -12 21 9
v -10 20 9
v -10 21 9
v -10 22 9
v -9 24 9
v -9 26 9
v -8 21 9
v -8 22 9
v -8 24 9
v -8 25 9
v -8 26 9
v -7 21 9
v -7 22 9
v -7 23 9
v -7 24 9
v -7 25 9
v -6 23 9
v -6 24 9
v -5 23 9
v -5 24 9
v -4 20 9
v -4 21 9
v -4 22 9
v -4 23 9
v -2 20 9
v -2 21 9
v -2 22 9
v -2 23 9
v -2 24 9
v -2 25 9
v -1 22 9
v -1 23 9
v 1 21 9
v 1 22 9
v 1 24 9
v 1 25 9
v 1 26 9
v 3 22 9
v 4 20 9
v 4 21 9
v 4 22 9
v 4 23 9
v 4 25 9
v 4 26 9
v 6 24 9
v 6 25 9
v 7 21 9
v 7 22 9
v 7 23 9
v 7 24 9
v 10 22 9
v 10 24 9
v 11 19 9
v 11 21 9
v -15 22 8
v -15 23 8
v -10 22 8
v -9 22 8
v -9 23 8
v -8 24 8
v -8 25 8
v -7 24 8
v -7 25 8
v -6 23 8
v -6 24 8
v -5 22 8
v -5 23 8
v -5 24 8
v -4 22 8
v -4 23 8
v -2 21 8
v -2 22 8
v -2 23 8
v -2 24 8
v -2 25 8
v -1 22 8
v -1 23 8
v -1 24 8
v 1 21 8
v 1 22 8
v 1 23 8
v 1 24 8
v 1 25 8
v 3 22 8
v 3 23 8
v 4 22 8
v 4 23 8
v -9 22 7
v -9 23 7
v -5 22 7
v -5 23 7
v -4 21 7
v -4 22 7
v -3 22 7
v -2 21 7
v -2 22 7
v -6 23 9
v -6 24 9
v -5 23 9
v -5 24 9
v 1 22 9
v 1 23 9
v 3 22 9
v 3 23 9
v -20 0 -20
v -20 40 -20
v 20 0 -20
v 20 40 -20
v -20 0 20
v 20 0 20
v -20 0 -20
v 20 0 -20
v -15 20 10
v -12 20 10
v -10 20 10
v -4 20 10
v -2 20 10
v 4 20 10
v -15 20 9
v -12 20 9
v -10 20 9
v -4 20 9
v -2 20 9
v 4 20 9
v -12 21 10
v -10 21 10
v 7 21 10
v 11 21 10
v -12 21 9
v -10 21 9
v 7 21 9
v 11 21 9
v -1 22 10
v 3 22 10
v -4 22 9
v -2 22 9
v -1 22 9
v 1 22 9
v 3 22 9
v -3 22 8
v -2 22 8
v -1 22 8
v 1 22 8
v -4 22 7
v -3 22 7
v -2 22 7
v -16 23 10
v -7 23 10
v -6 23 10
v -5 23 10
v 3 23 10
v 7 23 10
v -16 23 9
v -15 23 9
v -7 23 9
v -6 23 9
v -5 23 9
v -4 23 9
v 1 23 9
v 3 23 9
v 4 23 9
v 7 23 9
v -15 23 8
v -9 23 8
v -6 23 8
v -5 23 8
v -4 23 8
v 1 23 8
v 3 23 8
v 4 23 8
v -9 23 7
v -5 23 7
v 7 24 10
v 10 24 10
v -6 24 9
v -5 24 9
v 7 24 9
v 10 24 9
v -6 24 8
v -5 24 8
v -8 25 10
v 1 25 10
v 4 25 10
v 6 25 10
v -8 25 9
v -7 25 9
v -2 25 9
v 1 25 9
v 4 25 9
v 6 25 9
v -8 25 8
v -7 25 8
v -2 25 8
v 1 25 8
v -9 26 10
v -8 26 10
v 1 26 10
v 4 26 10
v -9 26 9
v -8 26 9
v 1 26 9
v 4 26 9
v -20 31 20
v 20 31 20
v -20 31 10
v 20 31 10
v -20 12 20
v 20 12 20
v -20 12 19
v -19 12 19
v -18 12 19
v -17 12 19
v -16 12 19
v -15 12 19
v -14 12 19
v -13 12 19
v -12 12 19
v -11 12 19
v -10 12 19
v -9 12 19
v -8 12 19
v -7 12 19
v -6 12 19
v -5 12 19
v -4 12 19
v -3 12 19
v -2 12 19
v -1 12 19
v 0 12 19
v 1 12 19
v 2 12 19
v 3 12 19
v 4 12 19
v 5 12 19
v 6 12 19
v 7 12 19
v 8 12 19
v 9 12 19
v 10 12 19
v 11 12 19
v 12 12 19
v 13 12 19
v 14 12 19
v 15 12 19
v 16 12 19
v 17 12 19
v 18 12 19
v 19 12 19
v -20 12 10
v -19 12 10
v -18 12 10
v -17 12 10
v -16 12 10
v -15 12 10
v -14 12 10
v -13 12 10
v -12 12 10
v -11 12 10
v -10 12 10
v -9 12 10
v -8 12 10
v -7 12 10
v -6 12 10
v -5 12 10
v -4 12 10
v -3 12 10
v -2 12 10
v -1 12 10
v 0 12 10
v 1 12 10
v 2 12 10
v 3 12 10
v 4 12 10
v 5 12 10
v 6 12 10
v 7 12 10
v 8 12 10
v 9 12 10
v 10 12 10
v 11 12 10
v 12 12 10
v 13 12 10
v 14 12 10
v 15 12 10
v 16 12 10
v 17 12 10
v 18 12 10
v 19 12 10
v 20 12 10
v -15 19 10
v 11 19 10
v -15 19 9
v 11 19 9
v -10 21 10
v -8 21 10
v -7 21 10
v -4 21 10
v -2 21 10
v 4 21 10
v -10 21 9
v -8 21 9
v -7 21 9
v -4 21 9
v -2 21 9
v 1 21 9
v 4 21 9
v -4 21 8
v -2 21 8
v 1 21 8
v -4 21 7
v -2 21 7
v -16 22 10
v -10 22 10
v -8 22 10
v -7 22 10
v 7 22 10
v 10 22 10
v -16 22 9
v -15 22 9
v -10 22 9
v -8 22 9
v -7 22 9
v -4 22 9
v 1 22 9
v 3 22 9
v 4 22 9
v 7 22 9
v 10 22 9
v -15 22 8
v -10 22 8
v -9 22 8
v -8 22 8
v -7 22 8
v -5 22 8
v -4 22 8
v 1 22 8
v 3 22 8
v 4 22 8
v -9 22 7
v -5 22 7
v -2 23 9
v -1 23 9
v -2 23 8
v -1 23 8
v -9 24 10
v -7 24 10
v -6 24 10
v -5 24 10
v -1 24 10
v 6 24 10
v -9 24 9
v -8 24 9
v -7 24 9
v -6 24 9
v -5 24 9
v 1 24 9
v 6 24 9
v -8 24 8
v -7 24 8
v -1 24 8
v 1 24 8
v -20 40 20
v 20 40 20
v -20 40 -20
v 20 40 -20

# faces
f 3/3/1 2/3/1 1/3/1
f 4/3/1 2/3/1 3/3/1
f 5/2/1 4/2/1 3/2/1
f 6/3/1 2/3/1 4/3/1
f 6/2/1 4/2/1 5/2/1
f 7/3/1 2/3/1 6/3/1
f 9/3/1 2/3/1 7/3/1
f 10/3/1 9/3/1 8/3/1
f 11/3/1 2/3/1 9/3/1
f 11/3/1 9/3/1 10/3/1
f 14/3/1 13/3/1 12/3/1
f 15/3/1 13/3/1 14/3/1
f 18/3/1 17/3/1 16/3/1
f 19/3/1 17/3/1 18/3/1
f 22/3/1 21/3/1 20/3/1
f 23/3/1 21/3/1 22/3/1
f 26/1/1 25/1/1 24/1/1
f 27/1/1 25/1/1 26/1/1
f 30/3/1 29/3/1 28/3/1
f 31/3/1 29/3/1 30/3/1
f 35/1/1 33/1/1 32/1/1
f 36/1/1 33/1/1 35/1/1
f 37/3/1 35/3/1 34/3/1
f 38/3/1 35/3/1 37/3/1
f 41/3/1 40/3/1 39/3/1
f 42/3/1 40/3/1 41/3/1
f 45/3/1 44/3/1 43/3/1
f 46/3/1 44/3/1 45/3/1
f 49/1/1 48/1/1 47/1/1
f 50/1/1 48/1/1 49/1/1
f 53/3/1 52/3/1 51/3/1
f 55/3/1 53/3/1 51/3/1
f 55/3/1 54/3/1 53/3/1
f 56/3/1 54/3/1 55/3/1
f 59/1/1 58/1/1 57/1/1
f 60/1/1 58/1/1 59/1/1
f 63/1/1 62/1/1 61/1/1
f 64/1/1 62/1/1 63/1/1
f 67/1/1 66/1/1 65/1/1
f 68/1/1 66/1/1 67/1/1
f 71/3/1 70/3/1 69/3/1
f 72/3/1 70/3/1 71/3/1
f 75/3/1 74/3/1 73/3/1
f 76/3/1 74/3/1 75/3/1
f 79/3/1 78/3/1 77/3/1
f 80/3/1 78/3/1 79/3/1
f 83/3/1 82/3/1 81/3/1
f 84/3/1 82/3/1 83/3/1
f 87/3/1 86/3/1 85/3/1
f 88/3/1 86/3/1 87/3/1
f 89/3/2 90/3/2 91/3/2
f 91/3/2 90/3/2 92/3/2
f 93/3/2 94/3/2 95/3/2
f 95/3/2 94/3/2 96/3/2
f 97/1/2 98/1/2 99/1/2
f 99/1/2 98/1/2 100/1/2
f 101/3/2 102/3/2 103/3/2
f 103/3/2 102/3/2 104/3/2
f 105/3/2 106/3/2 107/3/2
f 107/3/2 106/3/2 108/3/2
f 109/1/2 110/1/2 111/1/2
f 111/1/2 110/1/2 112/1/2
f 113/3/2 114/3/2 115/3/2
f 115/3/2 114/3/2 116/3/2
f 117/1/2 118/1/2 119/1/2
f 119/1/2 118/1/2 120/1/2
f 121/3/2 122/3/2 123/3/2
f 123/3/2 122/3/2 124/3/2
f 125/3/2 126/3/2 127/3/2
f 127/3/2 126/3/2 128/3/2
f 129/3/2 130/3/2 131/3/2
f 131/3/2 130/3/2 132/3/2
f 133/3/2 134/3/2 135/3/2
f 135/3/2 134/3/2 136/3/2
f 137/3/2 138/3/2 139/3/2
f 139/3/2 138/3/2 140/3/2
f 141/1/2 142/1/2 143/1/2
f 140/1/2 141/1/2 143/1/2
f 143/1/2 142/1/2 144/1/2
f 145/3/2 146/3/2 147/3/2
f 147/3/2 146/3/2 148/3/2
f 147/1/2 148/1/2 149/1/2
f 149/1/2 148/1/2 150/1/2
f 151/3/2 152/3/2 153/3/2
f 153/3/2 152/3/2 154/3/2
f 155/3/2 156/3/2 157/3/2
f 157/3/2 156/3/2 158/3/2
f 159/3/2 160/3/2 161/3/2
f 161/3/2 160/3/2 162/3/2
f 163/3/2 164/3/2 165/3/2
f 165/3/2 164/3/2 166/3/2
f 167/3/2 168/3/2 169/3/2
f 169/3/2 168/3/2 170/3/2
f 171/3/2 172/3/2 173/3/2
f 173/3/2 172/3/2 174/3/2
f 173/2/2 174/2/2 175/2/2
f 174/3/2 172/3/2 176/3/2
f 175/2/2 174/2/2 176/2/2
f 176/3/2 172/3/2 178/3/2
f 177/3/2 178/3/2 179/3/2
f 178/3/2 172/3/2 180/3/2
f 179/3/2 178/3/2 180/3/2
f 186/3/3 182/3/3 181/3/3
f 187/2/3 183/2/3 182/2/3
f 187/3/3 182/3/3 186/3/3
f 188/2/3 183/2/3 187/2/3
f 189/3/3 185/3/3 184/3/3
f 190/3/3 185/3/3 189/3/3
f 193/3/3 192/3/3 191/3/3
f 194/3/3 192/3/3 193/3/3
f 195/3/3 192/3/3 194/3/3
f 196/3/3 192/3/3 195/3/3
f 197/3/3 192/3/3 196/3/3
f 198/3/3 192/3/3 197/3/3
f 199/3/3 197/3/3 196/3/3
f 200/3/3 197/3/3 199/3/3
f 201/3/3 197/3/3 200/3/3
f 202/3/3 200/3/3 199/3/3
f 203/3/3 200/3/3 202/3/3
f 204/3/3 200/3/3 203/3/3
f 205/3/3 197/3/3 201/3/3
f 206/3/3 197/3/3 205/3/3
f 207/3/3 200/3/3 204/3/3
f 208/3/3 200/3/3 207/3/3
f 210/3/3 197/3/3 206/3/3
f 211/3/3 197/3/3 210/3/3
f 212/3/3 200/3/3 208/3/3
f 213/3/3 192/3/3 198/3/3
f 214/3/3 192/3/3 213/3/3
f 215/3/3 200/3/3 212/3/3
f 216/3/3 210/3/3 209/3/3
f 219/3/3 192/3/3 214/3/3
f 220/3/3 200/3/3 215/3/3
f 221/3/3 217/3/3 216/3/3
f 221/3/3 216/3/3 209/3/3
f 222/3/3 217/3/3 221/3/3
f 223/3/3 213/3/3 198/3/3
f 224/3/3 213/3/3 223/3/3
f 225/3/3 200/3/3 220/3/3
f 228/3/3 200/3/3 225/3/3
f 229/3/3 227/3/3 226/3/3
f 230/3/3 227/3/3 229/3/3
f 231/3/3 200/3/3 228/3/3
f 232/3/3 221/3/3 209/3/3
f 233/3/3 221/3/3 232/3/3
f 234/3/3 200/3/3 231/3/3
f 235/3/3 200/3/3 234/3/3
f 238/3/3 200/3/3 235/3/3
f 241/3/3 200/3/3 238/3/3
f 242/3/3 200/3/3 241/3/3
f 243/3/3 219/3/3 218/3/3
f 244/3/3 192/3/3 219/3/3
f 244/3/3 219/3/3 243/3/3
f 245/3/3 200/3/3 242/3/3
f 246/3/3 200/3/3 245/3/3
f 247/3/3 240/3/3 239/3/3
f 248/3/3 240/3/3 247/3/3
f 249/3/3 200/3/3 246/3/3
f 250/3/3 237/3/3 236/3/3
f 251/3/3 237/3/3 250/3/3
f 253/3/3 192/3/3 244/3/3
f 254/3/3 200/3/3 249/3/3
f 255/3/3 200/3/3 254/3/3
f 256/3/3 240/3/3 248/3/3
f 257/3/3 253/3/3 252/3/3
f 258/3/3 200/3/3 255/3/3
f 261/3/3 256/3/3 248/3/3
f 261/3/3 257/3/3 256/3/3
f 262/3/3 257/3/3 261/3/3
f 263/3/3 200/3/3 258/3/3
f 264/3/3 200/3/3 263/3/3
f 265/3/3 200/3/3 264/3/3
f 266/3/3 260/3/3 259/3/3
f 267/3/3 257/3/3 262/3/3
f 268/3/3 200/3/3 265/3/3
f 269/3/3 200/3/3 268/3/3
f 270/3/3 267/3/3 266/3/3
f 270/3/3 266/3/3 259/3/3
f 271/3/3 269/3/3 268/3/3
f 271/3/3 270/3/3 269/3/3
f 272/3/3 270/3/3 271/3/3
f 273/3/3 270/3/3 272/3/3
f 274/3/3 270/3/3 273/3/3
f 275/3/3 270/3/3 274/3/3
f 276/3/3 270/3/3 275/3/3
f 277/3/3 270/3/3 276/3/3
f 278/3/3 270/3/3 277/3/3
f 279/3/3 270/3/3 278/3/3
f 280/3/3 267/3/3 270/3/3
f 280/3/3 270/3/3 279/3/3
f 280/3/3 192/3/3 253/3/3
f 280/3/3 253/3/3 257/3/3
f 280/3/3 257/3/3 267/3/3
f 285/1/3 282/1/3 281/1/3
f 286/1/3 282/1/3 285/1/3
f 287/1/3 284/1/3 283/1/3
f 289/1/3 287/1/3 283/1/3
f 289/1/3 288/1/3 287/1/3
f 290/1/3 288/1/3 289/1/3
f 294/1/3 291/1/3 290/1/3
f 295/1/3 291/1/3 294/1/3
f 296/1/3 293/1/3 292/1/3
f 297/1/3 293/1/3 296/1/3
f 298/1/3 293/1/3 297/1/3
f 304/3/3 302/3/3 301/3/3
f 305/1/3 303/1/3 302/1/3
f 305/3/3 302/3/3 304/3/3
f 307/1/3 303/1/3 305/1/3
f 308/1/3 289/1/3 283/1/3
f 309/1/3 300/1/3 299/1/3
f 310/1/3 300/1/3 309/1/3
f 311/3/3 307/3/3 306/3/3
f 312/1/3 308/1/3 283/1/3
f 312/1/3 309/1/3 308/1/3
f 313/1/3 309/1/3 312/1/3
f 314/3/3 311/3/3 310/3/3
f 315/3/3 307/3/3 311/3/3
f 315/3/3 311/3/3 314/3/3
f 316/1/3 303/1/3 307/1/3
f 316/3/3 307/3/3 315/3/3
f 317/1/3 303/1/3 316/1/3
f 318/1/3 315/1/3 314/1/3
f 319/1/3 315/1/3 318/1/3
f 325/1/3 321/1/3 320/1/3
f 326/1/3 312/1/3 283/1/3
f 327/1/3 325/1/3 320/1/3
f 328/1/3 325/1/3 327/1/3
f 330/1/3 323/1/3 322/1/3
f 330/1/3 324/1/3 323/1/3
f 331/1/3 324/1/3 330/1/3
f 332/1/3 330/1/3 322/1/3
f 333/1/3 330/1/3 332/1/3
f 334/1/3 329/1/3 328/1/3
f 334/1/3 328/1/3 327/1/3
f 334/1/3 327/1/3 326/1/3
f 335/1/3 329/1/3 334/1/3
f 336/1/3 329/1/3 335/1/3
f 338/1/3 337/1/3 336/1/3
f 338/1/3 336/1/3 335/1/3
f 339/1/3 337/1/3 338/1/3
f 340/1/3 326/1/3 283/1/3
f 340/1/3 334/1/3 326/1/3
f 341/1/3 334/1/3 340/1/3
f 344/1/3 343/1/3 342/1/3
f 345/1/3 343/1/3 344/1/3
f 346/1/3 343/1/3 345/1/3
f 349/1/3 348/1/3 347/1/3
f 350/1/3 348/1/3 349/1/3
f 354/3/3 352/3/3 351/3/3
f 355/3/3 352/3/3 354/3/3
f 356/1/3 354/1/3 353/1/3
f 357/1/3 354/1/3 356/1/3
f 363/1/3 359/1/3 358/1/3
f 364/1/3 361/1/3 360/1/3
f 364/1/3 362/1/3 361/1/3
f 365/1/3 362/1/3 364/1/3
f 366/1/3 363/1/3 358/1/3
f 367/1/3 363/1/3 366/1/3
f 369/1/3 362/1/3 365/1/3
f 370/1/3 362/1/3 369/1/3
f 371/3/3 368/3/3 367/3/3
f 372/3/3 368/3/3 371/3/3
f 373/1/3 372/1/3 371/1/3
f 374/1/3 372/1/3 373/1/3
f 377/1/3 376/1/3 375/1/3
f 378/1/3 376/1/3 377/1/3
f 381/1/3 380/1/3 379/1/3
f 382/1/3 381/1/3 379/1/3
f 383/1/3 381/1/3 382/1/3
f 384/3/4 385/3/4 386/3/4
f 386/3/4 385/3/4 387/3/4
f 388/3/4 389/3/4 390/3/4
f 390/3/4 389/3/4 391/3/4
f 392/3/4 393/3/4 394/3/4
f 394/3/4 393/3/4 395/3/4
f 398/3/5 397/3/5 396/3/5
f 399/3/5 397/3/5 398/3/5
f 406/3/5 401/3/5 400/3/5
f 407/3/5 401/3/5 406/3/5
f 408/3/5 403/3/5 402/3/5
f 409/3/5 403/3/5 408/3/5
f 410/3/5 405/3/5 404/3/5
f 411/3/5 405/3/5 410/3/5
f 416/3/5 413/3/5 412/3/5
f 417/3/5 413/3/5 416/3/5
f 418/3/5 415/3/5 414/3/5
f 419/3/5 415/3/5 418/3/5
f 424/3/5 421/3/5 420/3/5
f 425/3/5 421/3/5 424/3/5
f 426/3/5 421/3/5 425/3/5
f 427/3/5 423/3/5 422/3/5
f 428/1/5 424/1/5 423/1/5
f 428/3/5 423/3/5 427/3/5
f 429/3/5 425/3/5 424/3/5
f 429/1/5 424/1/5 428/1/5
f 430/3/5 425/3/5 429/3/5
f 431/3/5 427/3/5 422/3/5
f 432/1/5 428/1/5 427/1/5
f 432/3/5 427/3/5 431/3/5
f 433/1/5 428/1/5 432/1/5
f 440/3/5 435/3/5 434/3/5
f 441/3/5 435/3/5 440/3/5
f 442/3/5 435/3/5 441/3/5
f 443/3/5 437/3/5 436/3/5
f 444/3/5 437/3/5 443/3/5
f 447/3/5 439/3/5 438/3/5
f 448/3/5 439/3/5 447/3/5
f 449/3/5 439/3/5 448/3/5
f 450/3/5 442/3/5 441/3/5
f 450/3/5 443/3/5 442/3/5
f 451/3/5 443/3/5 450/3/5
f 452/3/5 443/3/5 451/3/5
f 453/3/5 445/3/5 444/3/5
f 454/3/5 445/3/5 453/3/5
f 455/3/5 448/3/5 447/3/5
f 455/3/5 447/3/5 446/3/5
f 456/3/5 448/3/5 455/3/5
f 457/3/5 448/3/5 456/3/5
f 458/3/5 452/3/5 451/3/5
f 458/3/5 453/3/5 452/3/5
f 459/3/5 453/3/5 458/3/5
f 464/3/5 461/3/5 460/3/5
f 465/3/5 461/3/5 464/3/5
f 466/1/5 463/1/5 462/1/5
f 467/1/5 463/1/5 466/1/5
f 472/3/5 469/3/5 468/3/5
f 473/3/5 469/3/5 472/3/5
f 474/3/5 469/3/5 473/3/5
f 475/3/5 469/3/5 474/3/5
f 476/3/5 471/3/5 470/3/5
f 477/3/5 471/3/5 476/3/5
f 478/3/5 473/3/5 472/3/5
f 479/3/5 473/3/5 478/3/5
f 480/3/5 475/3/5 474/3/5
f 481/3/5 475/3/5 480/3/5
f 486/3/5 483/3/5 482/3/5
f 487/3/5 483/3/5 486/3/5
f 488/3/5 485/3/5 484/3/5
f 489/3/5 485/3/5 488/3/5
f 492/3/5 491/3/5 490/3/5
f 493/3/5 491/3/5 492/3/5
f 494/2/6 495/2/6 496/2/6
f 496/2/6 495/2/6 497/2/6
f 497/2/6 495/2/6 498/2/6
f 498/2/6 495/2/6 499/2/6
f 499/2/6 495/2/6 500/2/6
f 500/2/6 495/2/6 501/2/6
f 501/2/6 495/2/6 502/2/6
f 502/2/6 495/2/6 503/2/6
f 503/2/6 495/2/6 504/2/6
f 504/2/6 495/2/6 505/2/6
f 505/2/6 495/2/6 506/2/6
f 506/2/6 495/2/6 507/2/6
f 507/2/6 495/2/6 508/2/6
f 508/2/6 495/2/6 509/2/6
f 509/2/6 495/2/6 510/2/6
f 510/2/6 495/2/6 511/2/6
f 511/2/6 495/2/6 512/2/6
f 512/2/6 495/2/6 513/2/6
f 513/2/6 495/2/6 514/2/6
f 514/2/6 495/2/6 515/2/6
f 515/2/6 495/2/6 516/2/6
f 516/2/6 495/2/6 517/2/6
f 517/2/6 495/2/6 518/2/6
f 518/2/6 495/2/6 519/2/6
f 519/2/6 495/2/6 520/2/6
f 520/2/6 495/2/6 521/2/6
f 521/2/6 495/2/6 522/2/6
f 522/2/6 495/2/6 523/2/6
f 523/2/6 495/2/6 524/2/6
f 524/2/6 495/2/6 525/2/6
f 525/2/6 495/2/6 526/2/6
f 526/2/6 495/2/6 527/2/6
f 527/2/6 495/2/6 528/2/6
f 528/2/6 495/2/6 529/2/6
f 529/2/6 495/2/6 530/2/6
f 530/2/6 495/2/6 531/2/6
f 531/2/6 495/2/6 532/2/6
f 532/2/6 495/2/6 533/2/6
f 533/2/6 495/2/6 534/2/6
f 534/2/6 495/2/6 535/2/6
f 496/3/6 497/3/6 536/3/6
f 497/2/6 498/2/6 537/2/6
f 536/3/6 497/3/6 537/3/6
f 498/3/6 499/3/6 538/3/6
f 537/2/6 498/2/6 538/2/6
f 499/2/6 500/2/6 539/2/6
f 538/3/6 499/3/6 539/3/6
f 500/3/6 501/3/6 540/3/6
f 539/2/6 500/2/6 540/2/6
f 501/2/6 502/2/6 541/2/6
f 540/3/6 501/3/6 541/3/6
f 502/3/6 503/3/6 542/3/6
f 541/2/6 502/2/6 542/2/6
f 503/2/6 504/2/6 543/2/6
f 542/3/6 503/3/6 543/3/6
f 504/3/6 505/3/6 544/3/6
f 543/2/6 504/2/6 544/2/6
f 505/2/6 506/2/6 545/2/6
f 544/3/6 505/3/6 545/3/6
f 506/3/6 507/3/6 546/3/6
f 545/2/6 506/2/6 546/2/6
f 507/2/6 508/2/6 547/2/6
f 546/3/6 507/3/6 547/3/6
f 508/3/6 509/3/6 548/3/6
f 547/2/6 508/2/6 548/2/6
f 509/2/6 510/2/6 549/2/6
f 548/3/6 509/3/6 549/3/6
f 510/3/6 511/3/6 550/3/6
f 549/2/6 510/2/6 550/2/6
f 511/2/6 512/2/6 551/2/6
f 550/3/6 511/3/6 551/3/6
f 512/3/6 513/3/6 552/3/6
f 551/2/6 512/2/6 552/2/6
f 513/2/6 514/2/6 553/2/6
f 552/3/6 513/3/6 553/3/6
f 514/3/6 515/3/6 554/3/6
f 553/2/6 514/2/6 554/2/6
f 515/2/6 516/2/6 555/2/6
f 554/3/6 515/3/6 555/3/6
f 516/3/6 517/3/6 556/3/6
f 555/2/6 516/2/6 556/2/6
f 517/2/6 518/2/6 557/2/6
f 556/3/6 517/3/6 557/3/6
f 518/3/6 519/3/6 558/3/6
f 557/2/6 518/2/6 558/2/6
f 519/2/6 520/2/6 559/2/6
f 558/3/6 519/3/6 559/3/6
f 520/3/6 521/3/6 560/3/6
f 559/2/6 520/2/6 560/2/6
f 521/2/6 522/2/6 561/2/6
f 560/3/6 521/3/6 561/3/6
f 522/3/6 523/3/6 562/3/6
f 561/2/6 522/2/6 562/2/6
f 523/2/6 524/2/6 563/2/6
f 562/3/6 523/3/6 563/3/6
f 524/3/6 525/3/6 564/3/6
f 563/2/6 524/2/6 564/2/6
f 525/2/6 526/2/6 565/2/6
f 564/3/6 525/3/6 565/3/6
f 526/3/6 527/3/6 566/3/6
f 565/2/6 526/2/6 566/2/6
f 527/2/6 528/2/6 567/2/6
f 566/3/6 527/3/6 567/3/6
f 528/3/6 529/3/6 568/3/6
f 567/2/6 528/2/6 568/2/6
f 529/2/6 530/2/6 569/2/6
f 568/3/6 529/3/6 569/3/6
f 530/3/6 531/3/6 570/3/6
f 569/2/6 530/2/6 570/2/6
f 531/2/6 532/2/6 571/2/6
f 570/3/6 531/3/6 571/3/6
f 532/3/6 533/3/6 572/3/6
f 571/2/6 532/2/6 572/2/6
f 533/2/6 534/2/6 573/2/6
f 572/3/6 533/3/6 573/3/6
f 534/3/6 535/3/6 574/3/6
f 573/2/6 534/2/6 574/2/6
f 535/2/6 495/2/6 575/2/6
f 574/3/6 535/3/6 575/3/6
f 575/2/6 495/2/6 576/2/6
f 577/3/6 578/3/6 579/3/6
f 579/3/6 578/3/6 580/3/6
f 581/3/6 582/3/6 587/3/6
f 587/3/6 582/3/6 588/3/6
f 583/3/6 584/3/6 589/3/6
f 589/3/6 584/3/6 590/3/6
f 585/3/6 586/3/6 591/3/6
f 591/3/6 586/3/6 592/3/6
f 592/3/6 586/3/6 593/3/6
f 590/1/6 591/1/6 594/1/6
f 591/3/6 592/3/6 595/3/6
f 594/1/6 591/1/6 595/1/6
f 595/3/6 592/3/6 596/3/6
f 594/3/6 595/3/6 597/3/6
f 597/3/6 595/3/6 598/3/6
f 599/3/6 600/3/6 605/3/6
f 605/3/6 600/3/6 606/3/6
f 606/3/6 600/3/6 607/3/6
f 601/3/6 602/3/6 608/3/6
f 608/3/6 602/3/6 609/3/6
f 603/3/6 604/3/6 614/3/6
f 614/3/6 604/3/6 615/3/6
f 606/3/6 607/3/6 616/3/6
f 607/1/6 608/1/6 617/1/6
f 616/3/6 607/3/6 617/3/6
f 617/1/6 608/1/6 618/1/6
f 608/3/6 609/3/6 619/3/6
f 618/1/6 608/1/6 619/1/6
f 609/1/6 610/1/6 620/1/6
f 619/3/6 609/3/6 620/3/6
f 620/1/6 610/1/6 621/1/6
f 621/1/6 610/1/6 622/1/6
f 612/1/6 613/1/6 623/1/6
f 611/1/6 612/1/6 623/1/6
f 623/1/6 613/1/6 624/1/6
f 624/1/6 613/1/6 625/1/6
f 618/3/6 619/3/6 626/3/6
f 619/3/6 620/3/6 626/3/6
f 620/3/6 621/3/6 626/3/6
f 626/3/6 621/3/6 627/3/6
f 628/1/6 629/1/6 630/1/6
f 630/1/6 629/1/6 631/1/6
f 632/3/6 633/3/6 638/3/6
f 638/3/6 633/3/6 639/3/6
f 639/3/6 633/3/6 640/3/6
f 634/3/6 635/3/6 641/3/6
f 641/3/6 635/3/6 642/3/6
f 636/3/6 637/3/6 643/3/6
f 643/3/6 637/3/6 644/3/6
f 639/3/6 640/3/6 645/3/6
f 645/3/6 640/3/6 646/3/6
f 636/3/6 643/3/6 647/3/6
f 647/3/6 643/3/6 648/3/6
f 649/3/6 650/3/6 651/3/6
f 651/3/6 650/3/6 652/3/6
