# MagicaVoxel @ Ephtracy

# group
g corner_piece

# material
mtllib corner_piece.mtl
usemtl palette

# normals
vn -1 0 0
vn 1 0 0
vn 0 0 1
vn 0 0 -1
vn 0 -1 0
vn 0 1 0

# texcoords
vt 0.666016 0.5
vt 0.697266 0.5
vt 0.767578 0.5

# verts
v -10 0 1
v -10 0 -10
v -10 20 1
v -10 20 -10
v 4 0 10
v 4 0 9
v 4 0 8
v 4 0 7
v 4 0 1
v 4 1 7
v 4 1 1
v 4 2 7
v 4 2 1
v 4 3 7
v 4 3 1
v 4 4 7
v 4 4 1
v 4 5 7
v 4 5 1
v 4 6 10
v 4 6 9
v 4 6 8
v 4 6 1
v 10 0 10
v 10 0 9
v 10 0 -10
v 10 5 8
v 10 5 7
v 10 6 10
v 10 6 9
v 10 6 8
v 10 6 7
v 10 6 1
v 10 20 1
v 10 20 -10
v 4 0 10
v 4 6 10
v 10 0 10
v 10 6 10
v -10 0 1
v -10 20 1
v 4 0 1
v 4 1 1
v 4 2 1
v 4 3 1
v 4 4 1
v 4 5 1
v 4 6 1
v 5 6 1
v 6 6 1
v 7 6 1
v 8 6 1
v 9 6 1
v 10 6 1
v 10 20 1
v -10 0 -10
v -10 20 -10
v 10 0 -10
v 10 20 -10
v 4 0 10
v 10 0 10
v 4 0 9
v 10 0 9
v 4 0 8
v 5 0 8
v 4 0 7
v 5 0 7
v -10 0 1
v 4 0 1
v -10 0 -10
v 10 0 -10
v 4 6 10
v 10 6 10
v 4 6 9
v 10 6 9
v 4 6 8
v 10 6 8
v 5 6 7
v 6 6 7
v 7 6 7
v 8 6 7
v 9 6 7
v 10 6 7
v 4 6 1
v 5 6 1
v 6 6 1
v 7 6 1
v 8 6 1
v 9 6 1
v 10 6 1
v -10 20 1
v 10 20 1
v -10 20 -10
v 10 20 -10

# faces
f 3/2/1 2/2/1 1/2/1
f 4/2/1 2/2/1 3/2/1
f 10/1/1 8/1/1 7/1/1
f 10/2/1 9/2/1 8/2/1
f 11/2/1 9/2/1 10/2/1
f 12/1/1 10/1/1 7/1/1
f 12/1/1 11/1/1 10/1/1
f 13/1/1 11/1/1 12/1/1
f 14/1/1 12/1/1 7/1/1
f 14/2/1 13/2/1 12/2/1
f 15/2/1 13/2/1 14/2/1
f 16/1/1 14/1/1 7/1/1
f 16/1/1 15/1/1 14/1/1
f 17/1/1 15/1/1 16/1/1
f 18/1/1 16/1/1 7/1/1
f 18/2/1 17/2/1 16/2/1
f 19/2/1 17/2/1 18/2/1
f 20/3/1 6/3/1 5/3/1
f 21/2/1 7/2/1 6/2/1
f 21/3/1 6/3/1 20/3/1
f 22/1/1 18/1/1 7/1/1
f 22/2/1 7/2/1 21/2/1
f 22/1/1 19/1/1 18/1/1
f 23/1/1 19/1/1 22/1/1
f 25/2/2 26/2/2 27/2/2
f 27/2/2 26/2/2 28/2/2
f 24/3/2 25/3/2 29/3/2
f 25/2/2 27/2/2 30/2/2
f 29/3/2 25/3/2 30/3/2
f 27/1/2 28/1/2 31/1/2
f 30/2/2 27/2/2 31/2/2
f 28/2/2 26/2/2 32/2/2
f 31/1/2 28/1/2 32/1/2
f 32/2/2 26/2/2 33/2/2
f 33/2/2 26/2/2 34/2/2
f 34/2/2 26/2/2 35/2/2
f 38/3/3 37/3/3 36/3/3
f 39/3/3 37/3/3 38/3/3
f 42/2/3 41/2/3 40/2/3
f 43/2/3 41/2/3 42/2/3
f 44/2/3 41/2/3 43/2/3
f 45/2/3 41/2/3 44/2/3
f 46/2/3 41/2/3 45/2/3
f 47/2/3 41/2/3 46/2/3
f 48/2/3 41/2/3 47/2/3
f 49/2/3 41/2/3 48/2/3
f 50/2/3 41/2/3 49/2/3
f 51/2/3 41/2/3 50/2/3
f 52/2/3 41/2/3 51/2/3
f 53/2/3 41/2/3 52/2/3
f 54/2/3 41/2/3 53/2/3
f 55/2/3 41/2/3 54/2/3
f 56/2/4 57/2/4 58/2/4
f 58/2/4 57/2/4 59/2/4
f 62/3/5 61/3/5 60/3/5
f 63/3/5 61/3/5 62/3/5
f 64/2/5 63/2/5 62/2/5
f 65/2/5 63/2/5 64/2/5
f 66/1/5 65/1/5 64/1/5
f 67/2/5 63/2/5 65/2/5
f 67/1/5 65/1/5 66/1/5
f 69/2/5 67/2/5 66/2/5
f 70/2/5 69/2/5 68/2/5
f 71/2/5 63/2/5 67/2/5
f 71/2/5 69/2/5 70/2/5
f 71/2/5 67/2/5 69/2/5
f 72/3/6 73/3/6 74/3/6
f 74/3/6 73/3/6 75/3/6
f 74/2/6 75/2/6 76/2/6
f 76/2/6 75/2/6 77/2/6
f 76/1/6 77/1/6 78/1/6
f 78/1/6 77/1/6 79/1/6
f 79/1/6 77/1/6 80/1/6
f 80/1/6 77/1/6 81/1/6
f 81/1/6 77/1/6 82/1/6
f 82/1/6 77/1/6 83/1/6
f 76/1/6 78/1/6 84/1/6
f 78/2/6 79/2/6 85/2/6
f 84/1/6 78/1/6 85/1/6
f 79/1/6 80/1/6 86/1/6
f 85/2/6 79/2/6 86/2/6
f 80/2/6 81/2/6 87/2/6
f 86/1/6 80/1/6 87/1/6
f 81/1/6 82/1/6 88/1/6
f 87/2/6 81/2/6 88/2/6
f 82/2/6 83/2/6 89/2/6
f 88/1/6 82/1/6 89/1/6
f 89/2/6 83/2/6 90/2/6
f 91/2/6 92/2/6 93/2/6
f 93/2/6 92/2/6 94/2/6
