# MagicaVoxel @ Ephtracy

# group
g edge_piece

# material
mtllib edge_piece.mtl
usemtl palette

# normals
vn -1 0 0
vn 1 0 0
vn 0 0 1
vn 0 0 -1
vn 0 -1 0
vn 0 1 0

# texcoords
vt 0.666016 0.5
vt 0.697266 0.5
vt 0.767578 0.5

# verts
v -10 0 10
v -10 0 9
v -10 0 1
v -10 0 -10
v -10 5 9
v -10 5 8
v -10 6 10
v -10 6 9
v -10 6 8
v -10 6 1
v -10 20 1
v -10 20 -10
v 10 0 10
v 10 0 9
v 10 0 -10
v 10 5 8
v 10 5 7
v 10 6 10
v 10 6 9
v 10 6 8
v 10 6 7
v 10 6 1
v 10 20 1
v 10 20 -10
v -10 0 10
v -10 6 10
v 10 0 10
v 10 6 10
v -10 6 1
v -10 20 1
v -9 6 1
v -8 6 1
v -7 6 1
v -6 6 1
v -5 6 1
v -4 6 1
v -3 6 1
v -2 6 1
v -1 6 1
v 0 6 1
v 1 6 1
v 2 6 1
v 3 6 1
v 4 6 1
v 5 6 1
v 6 6 1
v 7 6 1
v 8 6 1
v 9 6 1
v 10 6 1
v 10 20 1
v -10 0 -10
v -10 20 -10
v 10 0 -10
v 10 20 -10
v -10 0 10
v 10 0 10
v -10 0 9
v 4 0 9
v 10 0 9
v 4 0 8
v 5 0 8
v 4 0 7
v 5 0 7
v -10 0 1
v 4 0 1
v -10 0 -10
v 10 0 -10
v -10 6 10
v 10 6 10
v -10 6 9
v 10 6 9
v -10 6 8
v 10 6 8
v -9 6 7
v -8 6 7
v -7 6 7
v -6 6 7
v -5 6 7
v -4 6 7
v -3 6 7
v -2 6 7
v -1 6 7
v 0 6 7
v 1 6 7
v 2 6 7
v 3 6 7
v 4 6 7
v 5 6 7
v 6 6 7
v 7 6 7
v 8 6 7
v 9 6 7
v 10 6 7
v -10 6 1
v -9 6 1
v -8 6 1
v -7 6 1
v -6 6 1
v -5 6 1
v -4 6 1
v -3 6 1
v -2 6 1
v -1 6 1
v 0 6 1
v 1 6 1
v 2 6 1
v 3 6 1
v 4 6 1
v 5 6 1
v 6 6 1
v 7 6 1
v 8 6 1
v 9 6 1
v 10 6 1
v -10 20 1
v 10 20 1
v -10 20 -10
v 10 20 -10

# faces
f 5/3/1 2/3/1 1/3/1
f 5/1/1 3/1/1 2/1/1
f 6/1/1 3/1/1 5/1/1
f 7/3/1 5/3/1 1/3/1
f 8/2/1 6/2/1 5/2/1
f 8/3/1 5/3/1 7/3/1
f 9/1/1 3/1/1 6/1/1
f 9/2/1 6/2/1 8/2/1
f 10/2/1 4/2/1 3/2/1
f 10/1/1 3/1/1 9/1/1
f 11/2/1 4/2/1 10/2/1
f 12/2/1 4/2/1 11/2/1
f 14/2/2 15/2/2 16/2/2
f 16/2/2 15/2/2 17/2/2
f 13/3/2 14/3/2 18/3/2
f 14/2/2 16/2/2 19/2/2
f 18/3/2 14/3/2 19/3/2
f 16/1/2 17/1/2 20/1/2
f 19/2/2 16/2/2 20/2/2
f 17/2/2 15/2/2 21/2/2
f 20/1/2 17/1/2 21/1/2
f 21/2/2 15/2/2 22/2/2
f 22/2/2 15/2/2 23/2/2
f 23/2/2 15/2/2 24/2/2
f 27/3/3 26/3/3 25/3/3
f 28/3/3 26/3/3 27/3/3
f 31/2/3 30/2/3 29/2/3
f 32/2/3 30/2/3 31/2/3
f 33/2/3 30/2/3 32/2/3
f 34/2/3 30/2/3 33/2/3
f 35/2/3 30/2/3 34/2/3
f 36/2/3 30/2/3 35/2/3
f 37/2/3 30/2/3 36/2/3
f 38/2/3 30/2/3 37/2/3
f 39/2/3 30/2/3 38/2/3
f 40/2/3 30/2/3 39/2/3
f 41/2/3 30/2/3 40/2/3
f 42/2/3 30/2/3 41/2/3
f 43/2/3 30/2/3 42/2/3
f 44/2/3 30/2/3 43/2/3
f 45/2/3 30/2/3 44/2/3
f 46/2/3 30/2/3 45/2/3
f 47/2/3 30/2/3 46/2/3
f 48/2/3 30/2/3 47/2/3
f 49/2/3 30/2/3 48/2/3
f 50/2/3 30/2/3 49/2/3
f 51/2/3 30/2/3 50/2/3
f 52/2/4 53/2/4 54/2/4
f 54/2/4 53/2/4 55/2/4
f 58/3/5 57/3/5 56/3/5
f 59/3/5 57/3/5 58/3/5
f 60/3/5 57/3/5 59/3/5
f 61/1/5 59/1/5 58/1/5
f 61/2/5 60/2/5 59/2/5
f 62/2/5 60/2/5 61/2/5
f 63/1/5 61/1/5 58/1/5
f 63/1/5 62/1/5 61/1/5
f 64/2/5 60/2/5 62/2/5
f 64/1/5 62/1/5 63/1/5
f 65/1/5 63/1/5 58/1/5
f 66/2/5 64/2/5 63/2/5
f 66/1/5 63/1/5 65/1/5
f 67/2/5 66/2/5 65/2/5
f 68/2/5 60/2/5 64/2/5
f 68/2/5 66/2/5 67/2/5
f 68/2/5 64/2/5 66/2/5
f 69/3/6 70/3/6 71/3/6
f 71/3/6 70/3/6 72/3/6
f 71/2/6 72/2/6 73/2/6
f 73/2/6 72/2/6 74/2/6
f 73/1/6 74/1/6 75/1/6
f 75/1/6 74/1/6 76/1/6
f 76/1/6 74/1/6 77/1/6
f 77/1/6 74/1/6 78/1/6
f 78/1/6 74/1/6 79/1/6
f 79/1/6 74/1/6 80/1/6
f 80/1/6 74/1/6 81/1/6
f 81/1/6 74/1/6 82/1/6
f 82/1/6 74/1/6 83/1/6
f 83/1/6 74/1/6 84/1/6
f 84/1/6 74/1/6 85/1/6
f 85/1/6 74/1/6 86/1/6
f 86/1/6 74/1/6 87/1/6
f 87/1/6 74/1/6 88/1/6
f 88/1/6 74/1/6 89/1/6
f 89/1/6 74/1/6 90/1/6
f 90/1/6 74/1/6 91/1/6
f 91/1/6 74/1/6 92/1/6
f 92/1/6 74/1/6 93/1/6
f 93/1/6 74/1/6 94/1/6
f 73/1/6 75/1/6 95/1/6
f 75/2/6 76/2/6 96/2/6
f 95/1/6 75/1/6 96/1/6
f 76/1/6 77/1/6 97/1/6
f 96/2/6 76/2/6 97/2/6
f 77/2/6 78/2/6 98/2/6
f 97/1/6 77/1/6 98/1/6
f 78/1/6 79/1/6 99/1/6
f 98/2/6 78/2/6 99/2/6
f 79/2/6 80/2/6 100/2/6
f 99/1/6 79/1/6 100/1/6
f 80/1/6 81/1/6 101/1/6
f 100/2/6 80/2/6 101/2/6
f 81/2/6 82/2/6 102/2/6
f 101/1/6 81/1/6 102/1/6
f 82/1/6 83/1/6 103/1/6
f 102/2/6 82/2/6 103/2/6
f 83/2/6 84/2/6 104/2/6
f 103/1/6 83/1/6 104/1/6
f 84/1/6 85/1/6 105/1/6
f 104/2/6 84/2/6 105/2/6
f 85/2/6 86/2/6 106/2/6
f 105/1/6 85/1/6 106/1/6
f 86/1/6 87/1/6 107/1/6
f 106/2/6 86/2/6 107/2/6
f 87/2/6 88/2/6 108/2/6
f 107/1/6 87/1/6 108/1/6
f 88/1/6 89/1/6 109/1/6
f 108/2/6 88/2/6 109/2/6
f 89/2/6 90/2/6 110/2/6
f 109/1/6 89/1/6 110/1/6
f 90/1/6 91/1/6 111/1/6
f 110/2/6 90/2/6 111/2/6
f 91/2/6 92/2/6 112/2/6
f 111/1/6 91/1/6 112/1/6
f 92/1/6 93/1/6 113/1/6
f 112/2/6 92/2/6 113/2/6
f 93/2/6 94/2/6 114/2/6
f 113/1/6 93/1/6 114/1/6
f 114/2/6 94/2/6 115/2/6
f 116/2/6 117/2/6 118/2/6
f 118/2/6 117/2/6 119/2/6
