# MagicaVoxel @ Ephtracy

# group
g straight

# material
mtllib straight.mtl
usemtl palette

# normals
vn -1 0 0
vn 1 0 0
vn 0 0 1
vn 0 0 -1
vn 0 -1 0
vn 0 1 0

# texcoords
vt 0.666016 0.5
vt 0.697266 0.5
vt 0.767578 0.5

# verts
v -10 0 10
v -10 0 9
v -10 0 -10
v -10 5 8
v -10 5 7
v -10 6 10
v -10 6 9
v -10 6 8
v -10 6 7
v -10 6 1
v -10 14 10
v -10 14 9
v -10 14 8
v -10 14 7
v -10 14 1
v -10 15 8
v -10 15 7
v -10 20 10
v -10 20 9
v -10 20 -10
v 10 0 10
v 10 0 9
v 10 0 -10
v 10 5 8
v 10 5 7
v 10 6 10
v 10 6 9
v 10 6 8
v 10 6 7
v 10 6 1
v 10 14 10
v 10 14 9
v 10 14 8
v 10 14 7
v 10 14 1
v 10 15 8
v 10 15 7
v 10 20 10
v 10 20 9
v 10 20 -10
v -10 0 10
v -10 6 10
v -10 14 10
v -10 20 10
v 10 0 10
v 10 6 10
v 10 14 10
v 10 20 10
v -10 6 1
v -10 14 1
v -9 6 1
v -9 14 1
v -8 6 1
v -8 14 1
v -7 6 1
v -7 14 1
v -6 6 1
v -6 14 1
v -5 6 1
v -5 14 1
v -4 6 1
v -4 14 1
v -3 6 1
v -3 14 1
v -2 6 1
v -2 14 1
v -1 6 1
v -1 14 1
v 1 6 1
v 1 14 1
v 2 6 1
v 2 14 1
v 3 6 1
v 3 14 1
v 4 6 1
v 4 14 1
v 5 6 1
v 5 14 1
v 6 6 1
v 6 14 1
v 7 6 1
v 7 14 1
v 8 6 1
v 8 14 1
v 9 6 1
v 9 14 1
v 10 6 1
v 10 14 1
v -10 0 -10
v -10 20 -10
v 10 0 -10
v 10 20 -10
v -10 0 10
v 10 0 10
v -10 0 9
v 10 0 9
v -5 0 8
v -4 0 8
v 4 0 8
v 5 0 8
v -5 0 7
v -4 0 7
v 4 0 7
v 5 0 7
v -10 0 -10
v 10 0 -10
v -10 14 10
v 10 14 10
v -10 14 9
v 10 14 9
v -10 14 8
v 10 14 8
v -10 14 7
v -9 14 7
v -8 14 7
v -7 14 7
v -6 14 7
v -5 14 7
v -4 14 7
v -3 14 7
v -2 14 7
v -1 14 7
v 1 14 7
v 2 14 7
v 3 14 7
v 4 14 7
v 5 14 7
v 6 14 7
v 7 14 7
v 8 14 7
v 9 14 7
v 10 14 7
v -10 14 1
v -9 14 1
v -8 14 1
v -7 14 1
v -6 14 1
v -5 14 1
v -4 14 1
v -3 14 1
v -2 14 1
v -1 14 1
v 1 14 1
v 2 14 1
v 3 14 1
v 4 14 1
v 5 14 1
v 6 14 1
v 7 14 1
v 8 14 1
v 9 14 1
v 10 14 1
v -10 6 10
v 10 6 10
v -10 6 9
v 10 6 9
v -10 6 8
v 10 6 8
v -10 6 7
v -9 6 7
v -8 6 7
v -7 6 7
v -6 6 7
v -5 6 7
v -4 6 7
v -3 6 7
v -2 6 7
v -1 6 7
v 1 6 7
v 2 6 7
v 3 6 7
v 4 6 7
v 5 6 7
v 6 6 7
v 7 6 7
v 8 6 7
v 9 6 7
v 10 6 7
v -10 6 1
v -9 6 1
v -8 6 1
v -7 6 1
v -6 6 1
v -5 6 1
v -4 6 1
v -3 6 1
v -2 6 1
v -1 6 1
v 1 6 1
v 2 6 1
v 3 6 1
v 4 6 1
v 5 6 1
v 6 6 1
v 7 6 1
v 8 6 1
v 9 6 1
v 10 6 1
v -10 20 10
v 10 20 10
v -10 20 9
v 10 20 9
v -5 20 8
v -4 20 8
v 4 20 8
v 5 20 8
v -5 20 7
v -4 20 7
v 4 20 7
v 5 20 7
v -10 20 -10
v 10 20 -10

# faces
f 4/2/1 3/2/1 2/2/1
f 5/2/1 3/2/1 4/2/1
f 6/3/1 2/3/1 1/3/1
f 7/2/1 4/2/1 2/2/1
f 7/3/1 2/3/1 6/3/1
f 8/1/1 5/1/1 4/1/1
f 8/2/1 4/2/1 7/2/1
f 9/2/1 3/2/1 5/2/1
f 9/1/1 5/1/1 8/1/1
f 10/2/1 3/2/1 9/2/1
f 15/2/1 3/2/1 10/2/1
f 16/1/1 14/1/1 13/1/1
f 16/2/1 13/2/1 12/2/1
f 17/2/1 15/2/1 14/2/1
f 17/1/1 14/1/1 16/1/1
f 18/3/1 12/3/1 11/3/1
f 19/2/1 16/2/1 12/2/1
f 19/3/1 12/3/1 18/3/1
f 19/2/1 17/2/1 16/2/1
f 20/2/1 15/2/1 17/2/1
f 20/2/1 17/2/1 19/2/1
f 20/2/1 3/2/1 15/2/1
f 22/2/2 23/2/2 24/2/2
f 24/2/2 23/2/2 25/2/2
f 21/3/2 22/3/2 26/3/2
f 22/2/2 24/2/2 27/2/2
f 26/3/2 22/3/2 27/3/2
f 24/1/2 25/1/2 28/1/2
f 27/2/2 24/2/2 28/2/2
f 25/2/2 23/2/2 29/2/2
f 28/1/2 25/1/2 29/1/2
f 29/2/2 23/2/2 30/2/2
f 30/2/2 23/2/2 35/2/2
f 33/1/2 34/1/2 36/1/2
f 32/2/2 33/2/2 36/2/2
f 34/2/2 35/2/2 37/2/2
f 36/1/2 34/1/2 37/1/2
f 31/3/2 32/3/2 38/3/2
f 32/2/2 36/2/2 39/2/2
f 38/3/2 32/3/2 39/3/2
f 36/2/2 37/2/2 39/2/2
f 37/2/2 35/2/2 40/2/2
f 39/2/2 37/2/2 40/2/2
f 35/2/2 23/2/2 40/2/2
f 45/3/3 42/3/3 41/3/3
f 46/3/3 42/3/3 45/3/3
f 47/3/3 44/3/3 43/3/3
f 48/3/3 44/3/3 47/3/3
f 51/2/3 50/2/3 49/2/3
f 52/2/3 50/2/3 51/2/3
f 53/2/3 52/2/3 51/2/3
f 54/2/3 52/2/3 53/2/3
f 55/2/3 54/2/3 53/2/3
f 56/2/3 54/2/3 55/2/3
f 57/2/3 56/2/3 55/2/3
f 58/2/3 56/2/3 57/2/3
f 59/2/3 58/2/3 57/2/3
f 60/2/3 58/2/3 59/2/3
f 61/2/3 60/2/3 59/2/3
f 62/2/3 60/2/3 61/2/3
f 63/2/3 62/2/3 61/2/3
f 64/2/3 62/2/3 63/2/3
f 65/2/3 64/2/3 63/2/3
f 66/2/3 64/2/3 65/2/3
f 67/2/3 66/2/3 65/2/3
f 68/2/3 66/2/3 67/2/3
f 69/2/3 68/2/3 67/2/3
f 70/2/3 68/2/3 69/2/3
f 71/2/3 70/2/3 69/2/3
f 72/2/3 70/2/3 71/2/3
f 73/2/3 72/2/3 71/2/3
f 74/2/3 72/2/3 73/2/3
f 75/2/3 74/2/3 73/2/3
f 76/2/3 74/2/3 75/2/3
f 77/2/3 76/2/3 75/2/3
f 78/2/3 76/2/3 77/2/3
f 79/2/3 78/2/3 77/2/3
f 80/2/3 78/2/3 79/2/3
f 81/2/3 80/2/3 79/2/3
f 82/2/3 80/2/3 81/2/3
f 83/2/3 82/2/3 81/2/3
f 84/2/3 82/2/3 83/2/3
f 85/2/3 84/2/3 83/2/3
f 86/2/3 84/2/3 85/2/3
f 87/2/3 86/2/3 85/2/3
f 88/2/3 86/2/3 87/2/3
f 89/2/4 90/2/4 91/2/4
f 91/2/4 90/2/4 92/2/4
f 95/3/5 94/3/5 93/3/5
f 96/3/5 94/3/5 95/3/5
f 97/2/5 96/2/5 95/2/5
f 98/2/5 96/2/5 97/2/5
f 99/2/5 96/2/5 98/2/5
f 100/2/5 96/2/5 99/2/5
f 101/2/5 97/2/5 95/2/5
f 101/1/5 98/1/5 97/1/5
f 102/2/5 99/2/5 98/2/5
f 102/1/5 98/1/5 101/1/5
f 103/1/5 100/1/5 99/1/5
f 103/2/5 99/2/5 102/2/5
f 104/2/5 96/2/5 100/2/5
f 104/1/5 100/1/5 103/1/5
f 105/2/5 103/2/5 102/2/5
f 105/2/5 102/2/5 101/2/5
f 105/2/5 104/2/5 103/2/5
f 105/2/5 101/2/5 95/2/5
f 106/2/5 96/2/5 104/2/5
f 106/2/5 104/2/5 105/2/5
f 109/3/5 108/3/5 107/3/5
f 110/3/5 108/3/5 109/3/5
f 111/2/5 110/2/5 109/2/5
f 112/2/5 110/2/5 111/2/5
f 113/1/5 112/1/5 111/1/5
f 114/1/5 112/1/5 113/1/5
f 115/1/5 112/1/5 114/1/5
f 116/1/5 112/1/5 115/1/5
f 117/1/5 112/1/5 116/1/5
f 118/1/5 112/1/5 117/1/5
f 119/1/5 112/1/5 118/1/5
f 120/1/5 112/1/5 119/1/5
f 121/1/5 112/1/5 120/1/5
f 122/1/5 112/1/5 121/1/5
f 123/1/5 112/1/5 122/1/5
f 124/1/5 112/1/5 123/1/5
f 125/1/5 112/1/5 124/1/5
f 126/1/5 112/1/5 125/1/5
f 127/1/5 112/1/5 126/1/5
f 128/1/5 112/1/5 127/1/5
f 129/1/5 112/1/5 128/1/5
f 130/1/5 112/1/5 129/1/5
f 131/1/5 112/1/5 130/1/5
f 132/1/5 112/1/5 131/1/5
f 133/2/5 114/2/5 113/2/5
f 134/1/5 115/1/5 114/1/5
f 134/2/5 114/2/5 133/2/5
f 135/2/5 116/2/5 115/2/5
f 135/1/5 115/1/5 134/1/5
f 136/1/5 117/1/5 116/1/5
f 136/2/5 116/2/5 135/2/5
f 137/2/5 118/2/5 117/2/5
f 137/1/5 117/1/5 136/1/5
f 138/1/5 119/1/5 118/1/5
f 138/2/5 118/2/5 137/2/5
f 139/2/5 120/2/5 119/2/5
f 139/1/5 119/1/5 138/1/5
f 140/1/5 121/1/5 120/1/5
f 140/2/5 120/2/5 139/2/5
f 141/2/5 122/2/5 121/2/5
f 141/1/5 121/1/5 140/1/5
f 142/1/5 123/1/5 122/1/5
f 142/2/5 122/2/5 141/2/5
f 143/2/5 124/2/5 123/2/5
f 143/1/5 123/1/5 142/1/5
f 144/1/5 125/1/5 124/1/5
f 144/2/5 124/2/5 143/2/5
f 145/2/5 126/2/5 125/2/5
f 145/1/5 125/1/5 144/1/5
f 146/1/5 127/1/5 126/1/5
f 146/2/5 126/2/5 145/2/5
f 147/2/5 128/2/5 127/2/5
f 147/1/5 127/1/5 146/1/5
f 148/1/5 129/1/5 128/1/5
f 148/2/5 128/2/5 147/2/5
f 149/2/5 130/2/5 129/2/5
f 149/1/5 129/1/5 148/1/5
f 150/1/5 131/1/5 130/1/5
f 150/2/5 130/2/5 149/2/5
f 151/2/5 132/2/5 131/2/5
f 151/1/5 131/1/5 150/1/5
f 152/2/5 132/2/5 151/2/5
f 153/3/6 154/3/6 155/3/6
f 155/3/6 154/3/6 156/3/6
f 155/2/6 156/2/6 157/2/6
f 157/2/6 156/2/6 158/2/6
f 157/1/6 158/1/6 159/1/6
f 159/1/6 158/1/6 160/1/6
f 160/1/6 158/1/6 161/1/6
f 161/1/6 158/1/6 162/1/6
f 162/1/6 158/1/6 163/1/6
f 163/1/6 158/1/6 164/1/6
f 164/1/6 158/1/6 165/1/6
f 165/1/6 158/1/6 166/1/6
f 166/1/6 158/1/6 167/1/6
f 167/1/6 158/1/6 168/1/6
f 168/1/6 158/1/6 169/1/6
f 169/1/6 158/1/6 170/1/6
f 170/1/6 158/1/6 171/1/6
f 171/1/6 158/1/6 172/1/6
f 172/1/6 158/1/6 173/1/6
f 173/1/6 158/1/6 174/1/6
f 174/1/6 158/1/6 175/1/6
f 175/1/6 158/1/6 176/1/6
f 176/1/6 158/1/6 177/1/6
f 177/1/6 158/1/6 178/1/6
f 159/2/6 160/2/6 179/2/6
f 160/1/6 161/1/6 180/1/6
f 179/2/6 160/2/6 180/2/6
f 161/2/6 162/2/6 181/2/6
f 180/1/6 161/1/6 181/1/6
f 162/1/6 163/1/6 182/1/6
f 181/2/6 162/2/6 182/2/6
f 163/2/6 164/2/6 183/2/6
f 182/1/6 163/1/6 183/1/6
f 164/1/6 165/1/6 184/1/6
f 183/2/6 164/2/6 184/2/6
f 165/2/6 166/2/6 185/2/6
f 184/1/6 165/1/6 185/1/6
f 166/1/6 167/1/6 186/1/6
f 185/2/6 166/2/6 186/2/6
f 167/2/6 168/2/6 187/2/6
f 186/1/6 167/1/6 187/1/6
f 168/1/6 169/1/6 188/1/6
f 187/2/6 168/2/6 188/2/6
f 169/2/6 170/2/6 189/2/6
f 188/1/6 169/1/6 189/1/6
f 170/1/6 171/1/6 190/1/6
f 189/2/6 170/2/6 190/2/6
f 171/2/6 172/2/6 191/2/6
f 190/1/6 171/1/6 191/1/6
f 172/1/6 173/1/6 192/1/6
f 191/2/6 172/2/6 192/2/6
f 173/2/6 174/2/6 193/2/6
f 192/1/6 173/1/6 193/1/6
f 174/1/6 175/1/6 194/1/6
f 193/2/6 174/2/6 194/2/6
f 175/2/6 176/2/6 195/2/6
f 194/1/6 175/1/6 195/1/6
f 176/1/6 177/1/6 196/1/6
f 195/2/6 176/2/6 196/2/6
f 177/2/6 178/2/6 197/2/6
f 196/1/6 177/1/6 197/1/6
f 197/2/6 178/2/6 198/2/6
f 199/3/6 200/3/6 201/3/6
f 201/3/6 200/3/6 202/3/6
f 201/2/6 202/2/6 203/2/6
f 203/2/6 202/2/6 204/2/6
f 204/2/6 202/2/6 205/2/6
f 205/2/6 202/2/6 206/2/6
f 201/2/6 203/2/6 207/2/6
f 203/1/6 204/1/6 207/1/6
f 204/2/6 205/2/6 208/2/6
f 207/1/6 204/1/6 208/1/6
f 205/1/6 206/1/6 209/1/6
f 208/2/6 205/2/6 209/2/6
f 206/2/6 202/2/6 210/2/6
f 209/1/6 206/1/6 210/1/6
f 208/2/6 209/2/6 211/2/6
f 207/2/6 208/2/6 211/2/6
f 209/2/6 210/2/6 211/2/6
f 201/2/6 207/2/6 211/2/6
f 210/2/6 202/2/6 212/2/6
f 211/2/6 210/2/6 212/2/6
